ISO-10303-21;
HEADER;
/* Generated by software containing ST-Developer
 * from STEP Tools, Inc. (www.steptools.com) 
 */
/* OPTION: using custom renumber hook */

FILE_DESCRIPTION(
/* description */ ('STEP AP242 Edition 2',
'CAx-IF Rec.Pracs.---Representation and Presentation of Product Manufa
cturing Information (PMI)---4.0---2014-10-13',
'CAx-IF Rec.Pracs.---3D Tessellated Geometry---0.4---2014-09-14','2;1',
'CAx-IF Rec.Pracs.---User Defined Attributes---1.5---2016-08-15'),
/* implementation_level */ '2;1');

FILE_NAME(
/* name */ 'Part Studio 1 - Holder',
/* time_stamp */ '2026-08-07T02:33:05Z',
/* author */ (''),
/* organization */ (''),
/* preprocessor_version */ 'ST-DEVELOPER v20',
/* originating_system */ 'ONSHAPE BY PTC INC, 1.218',
/* authorisation */ '  ');

FILE_SCHEMA (('AP242_MANAGED_MODEL_BASED_3D_ENGINEERING_MIM_LF { 1 0 10303 442 3 1 4 }'));
ENDSEC;

DATA;
#10=SHAPE_REPRESENTATION_RELATIONSHIP('','',#401,#11);
#11=ADVANCED_BREP_SHAPE_REPRESENTATION('',(#399),#632);
#12=CYLINDRICAL_SURFACE('',#425,0.0015);
#13=CYLINDRICAL_SURFACE('',#426,0.00150000000000006);
#14=CIRCLE('',#405,0.00150000000000006);
#15=CIRCLE('',#406,0.0015);
#16=CIRCLE('',#409,0.00150000000000006);
#17=CIRCLE('',#410,0.0015);
#18=ORIENTED_EDGE('',*,*,#120,.F.);
#19=ORIENTED_EDGE('',*,*,#121,.T.);
#20=ORIENTED_EDGE('',*,*,#122,.F.);
#21=ORIENTED_EDGE('',*,*,#123,.F.);
#22=ORIENTED_EDGE('',*,*,#124,.T.);
#23=ORIENTED_EDGE('',*,*,#125,.F.);
#24=ORIENTED_EDGE('',*,*,#126,.F.);
#25=ORIENTED_EDGE('',*,*,#127,.F.);
#26=ORIENTED_EDGE('',*,*,#128,.F.);
#27=ORIENTED_EDGE('',*,*,#129,.T.);
#28=ORIENTED_EDGE('',*,*,#130,.T.);
#29=ORIENTED_EDGE('',*,*,#131,.F.);
#30=ORIENTED_EDGE('',*,*,#132,.F.);
#31=ORIENTED_EDGE('',*,*,#133,.F.);
#32=ORIENTED_EDGE('',*,*,#134,.F.);
#33=ORIENTED_EDGE('',*,*,#135,.F.);
#34=ORIENTED_EDGE('',*,*,#136,.T.);
#35=ORIENTED_EDGE('',*,*,#137,.F.);
#36=ORIENTED_EDGE('',*,*,#138,.F.);
#37=ORIENTED_EDGE('',*,*,#133,.T.);
#38=ORIENTED_EDGE('',*,*,#139,.T.);
#39=ORIENTED_EDGE('',*,*,#140,.F.);
#40=ORIENTED_EDGE('',*,*,#141,.F.);
#41=ORIENTED_EDGE('',*,*,#142,.F.);
#42=ORIENTED_EDGE('',*,*,#135,.T.);
#43=ORIENTED_EDGE('',*,*,#143,.F.);
#44=ORIENTED_EDGE('',*,*,#144,.F.);
#45=ORIENTED_EDGE('',*,*,#145,.F.);
#46=ORIENTED_EDGE('',*,*,#146,.F.);
#47=ORIENTED_EDGE('',*,*,#147,.T.);
#48=ORIENTED_EDGE('',*,*,#124,.F.);
#49=ORIENTED_EDGE('',*,*,#148,.T.);
#50=ORIENTED_EDGE('',*,*,#149,.F.);
#51=ORIENTED_EDGE('',*,*,#131,.T.);
#52=ORIENTED_EDGE('',*,*,#150,.T.);
#53=ORIENTED_EDGE('',*,*,#144,.T.);
#54=ORIENTED_EDGE('',*,*,#151,.T.);
#55=ORIENTED_EDGE('',*,*,#152,.F.);
#56=ORIENTED_EDGE('',*,*,#121,.F.);
#57=ORIENTED_EDGE('',*,*,#127,.T.);
#58=ORIENTED_EDGE('',*,*,#138,.T.);
#59=ORIENTED_EDGE('',*,*,#153,.F.);
#60=ORIENTED_EDGE('',*,*,#154,.T.);
#61=ORIENTED_EDGE('',*,*,#155,.T.);
#62=ORIENTED_EDGE('',*,*,#137,.T.);
#63=ORIENTED_EDGE('',*,*,#156,.F.);
#64=ORIENTED_EDGE('',*,*,#157,.F.);
#65=ORIENTED_EDGE('',*,*,#153,.T.);
#66=ORIENTED_EDGE('',*,*,#156,.T.);
#67=ORIENTED_EDGE('',*,*,#136,.F.);
#68=ORIENTED_EDGE('',*,*,#148,.F.);
#69=ORIENTED_EDGE('',*,*,#123,.T.);
#70=ORIENTED_EDGE('',*,*,#158,.F.);
#71=ORIENTED_EDGE('',*,*,#159,.F.);
#72=ORIENTED_EDGE('',*,*,#158,.T.);
#73=ORIENTED_EDGE('',*,*,#122,.T.);
#74=ORIENTED_EDGE('',*,*,#155,.F.);
#75=ORIENTED_EDGE('',*,*,#160,.F.);
#76=ORIENTED_EDGE('',*,*,#154,.F.);
#77=ORIENTED_EDGE('',*,*,#157,.T.);
#78=ORIENTED_EDGE('',*,*,#159,.T.);
#79=ORIENTED_EDGE('',*,*,#160,.T.);
#80=ORIENTED_EDGE('',*,*,#161,.T.);
#81=ORIENTED_EDGE('',*,*,#152,.T.);
#82=ORIENTED_EDGE('',*,*,#162,.F.);
#83=ORIENTED_EDGE('',*,*,#163,.T.);
#84=ORIENTED_EDGE('',*,*,#162,.T.);
#85=ORIENTED_EDGE('',*,*,#151,.F.);
#86=ORIENTED_EDGE('',*,*,#143,.T.);
#87=ORIENTED_EDGE('',*,*,#134,.T.);
#88=ORIENTED_EDGE('',*,*,#164,.F.);
#89=ORIENTED_EDGE('',*,*,#165,.F.);
#90=ORIENTED_EDGE('',*,*,#140,.T.);
#91=ORIENTED_EDGE('',*,*,#166,.F.);
#92=ORIENTED_EDGE('',*,*,#167,.F.);
#93=ORIENTED_EDGE('',*,*,#164,.T.);
#94=ORIENTED_EDGE('',*,*,#139,.F.);
#95=ORIENTED_EDGE('',*,*,#132,.T.);
#96=ORIENTED_EDGE('',*,*,#149,.T.);
#97=ORIENTED_EDGE('',*,*,#161,.F.);
#98=ORIENTED_EDGE('',*,*,#168,.T.);
#99=ORIENTED_EDGE('',*,*,#166,.T.);
#100=ORIENTED_EDGE('',*,*,#163,.F.);
#101=ORIENTED_EDGE('',*,*,#165,.T.);
#102=ORIENTED_EDGE('',*,*,#167,.T.);
#103=ORIENTED_EDGE('',*,*,#168,.F.);
#104=ORIENTED_EDGE('',*,*,#120,.T.);
#105=ORIENTED_EDGE('',*,*,#147,.F.);
#106=ORIENTED_EDGE('',*,*,#169,.F.);
#107=ORIENTED_EDGE('',*,*,#128,.T.);
#108=ORIENTED_EDGE('',*,*,#150,.F.);
#109=ORIENTED_EDGE('',*,*,#130,.F.);
#110=ORIENTED_EDGE('',*,*,#170,.T.);
#111=ORIENTED_EDGE('',*,*,#145,.T.);
#112=ORIENTED_EDGE('',*,*,#129,.F.);
#113=ORIENTED_EDGE('',*,*,#169,.T.);
#114=ORIENTED_EDGE('',*,*,#146,.T.);
#115=ORIENTED_EDGE('',*,*,#170,.F.);
#116=ORIENTED_EDGE('',*,*,#142,.T.);
#117=ORIENTED_EDGE('',*,*,#126,.T.);
#118=ORIENTED_EDGE('',*,*,#141,.T.);
#119=ORIENTED_EDGE('',*,*,#125,.T.);
#120=EDGE_CURVE('',#171,#172,#206,.T.);
#121=EDGE_CURVE('',#171,#173,#207,.T.);
#122=EDGE_CURVE('',#174,#173,#208,.T.);
#123=EDGE_CURVE('',#175,#174,#209,.T.);
#124=EDGE_CURVE('',#175,#172,#210,.T.);
#125=EDGE_CURVE('',#176,#176,#14,.T.);
#126=EDGE_CURVE('',#177,#177,#15,.T.);
#127=EDGE_CURVE('',#171,#178,#211,.T.);
#128=EDGE_CURVE('',#179,#171,#212,.T.);
#129=EDGE_CURVE('',#179,#180,#213,.T.);
#130=EDGE_CURVE('',#180,#181,#214,.T.);
#131=EDGE_CURVE('',#182,#181,#215,.T.);
#132=EDGE_CURVE('',#183,#182,#216,.T.);
#133=EDGE_CURVE('',#178,#183,#217,.T.);
#134=EDGE_CURVE('',#184,#185,#218,.T.);
#135=EDGE_CURVE('',#186,#184,#219,.T.);
#136=EDGE_CURVE('',#186,#187,#220,.T.);
#137=EDGE_CURVE('',#188,#187,#221,.T.);
#138=EDGE_CURVE('',#178,#188,#222,.T.);
#139=EDGE_CURVE('',#183,#189,#223,.T.);
#140=EDGE_CURVE('',#185,#189,#224,.T.);
#141=EDGE_CURVE('',#190,#190,#16,.T.);
#142=EDGE_CURVE('',#191,#191,#17,.T.);
#143=EDGE_CURVE('',#192,#184,#225,.T.);
#144=EDGE_CURVE('',#193,#192,#226,.T.);
#145=EDGE_CURVE('',#194,#193,#227,.T.);
#146=EDGE_CURVE('',#195,#194,#228,.T.);
#147=EDGE_CURVE('',#195,#172,#229,.T.);
#148=EDGE_CURVE('',#175,#186,#230,.T.);
#149=EDGE_CURVE('',#182,#196,#231,.T.);
#150=EDGE_CURVE('',#181,#193,#232,.T.);
#151=EDGE_CURVE('',#192,#197,#233,.T.);
#152=EDGE_CURVE('',#196,#197,#234,.T.);
#153=EDGE_CURVE('',#198,#188,#235,.T.);
#154=EDGE_CURVE('',#198,#199,#236,.T.);
#155=EDGE_CURVE('',#199,#173,#237,.T.);
#156=EDGE_CURVE('',#200,#187,#238,.T.);
#157=EDGE_CURVE('',#198,#200,#239,.T.);
#158=EDGE_CURVE('',#201,#174,#240,.T.);
#159=EDGE_CURVE('',#200,#201,#241,.T.);
#160=EDGE_CURVE('',#201,#199,#242,.T.);
#161=EDGE_CURVE('',#202,#196,#243,.T.);
#162=EDGE_CURVE('',#203,#197,#244,.T.);
#163=EDGE_CURVE('',#203,#202,#245,.T.);
#164=EDGE_CURVE('',#204,#185,#246,.T.);
#165=EDGE_CURVE('',#203,#204,#247,.T.);
#166=EDGE_CURVE('',#205,#189,#248,.T.);
#167=EDGE_CURVE('',#204,#205,#249,.T.);
#168=EDGE_CURVE('',#202,#205,#250,.T.);
#169=EDGE_CURVE('',#179,#195,#251,.T.);
#170=EDGE_CURVE('',#180,#194,#252,.T.);
#171=VERTEX_POINT('',#527);
#172=VERTEX_POINT('',#528);
#173=VERTEX_POINT('',#530);
#174=VERTEX_POINT('',#532);
#175=VERTEX_POINT('',#534);
#176=VERTEX_POINT('',#538);
#177=VERTEX_POINT('',#540);
#178=VERTEX_POINT('',#542);
#179=VERTEX_POINT('',#544);
#180=VERTEX_POINT('',#546);
#181=VERTEX_POINT('',#548);
#182=VERTEX_POINT('',#550);
#183=VERTEX_POINT('',#552);
#184=VERTEX_POINT('',#556);
#185=VERTEX_POINT('',#557);
#186=VERTEX_POINT('',#559);
#187=VERTEX_POINT('',#561);
#188=VERTEX_POINT('',#563);
#189=VERTEX_POINT('',#566);
#190=VERTEX_POINT('',#570);
#191=VERTEX_POINT('',#572);
#192=VERTEX_POINT('',#574);
#193=VERTEX_POINT('',#576);
#194=VERTEX_POINT('',#578);
#195=VERTEX_POINT('',#580);
#196=VERTEX_POINT('',#585);
#197=VERTEX_POINT('',#588);
#198=VERTEX_POINT('',#592);
#199=VERTEX_POINT('',#594);
#200=VERTEX_POINT('',#598);
#201=VERTEX_POINT('',#602);
#202=VERTEX_POINT('',#609);
#203=VERTEX_POINT('',#611);
#204=VERTEX_POINT('',#615);
#205=VERTEX_POINT('',#619);
#206=LINE('',#526,#253);
#207=LINE('',#529,#254);
#208=LINE('',#531,#255);
#209=LINE('',#533,#256);
#210=LINE('',#535,#257);
#211=LINE('',#541,#258);
#212=LINE('',#543,#259);
#213=LINE('',#545,#260);
#214=LINE('',#547,#261);
#215=LINE('',#549,#262);
#216=LINE('',#551,#263);
#217=LINE('',#553,#264);
#218=LINE('',#555,#265);
#219=LINE('',#558,#266);
#220=LINE('',#560,#267);
#221=LINE('',#562,#268);
#222=LINE('',#564,#269);
#223=LINE('',#565,#270);
#224=LINE('',#567,#271);
#225=LINE('',#573,#272);
#226=LINE('',#575,#273);
#227=LINE('',#577,#274);
#228=LINE('',#579,#275);
#229=LINE('',#581,#276);
#230=LINE('',#582,#277);
#231=LINE('',#584,#278);
#232=LINE('',#586,#279);
#233=LINE('',#587,#280);
#234=LINE('',#589,#281);
#235=LINE('',#591,#282);
#236=LINE('',#593,#283);
#237=LINE('',#595,#284);
#238=LINE('',#597,#285);
#239=LINE('',#599,#286);
#240=LINE('',#601,#287);
#241=LINE('',#603,#288);
#242=LINE('',#605,#289);
#243=LINE('',#608,#290);
#244=LINE('',#610,#291);
#245=LINE('',#612,#292);
#246=LINE('',#614,#293);
#247=LINE('',#616,#294);
#248=LINE('',#618,#295);
#249=LINE('',#620,#296);
#250=LINE('',#622,#297);
#251=LINE('',#625,#298);
#252=LINE('',#627,#299);
#253=VECTOR('',#431,1.);
#254=VECTOR('',#432,1.);
#255=VECTOR('',#433,1.);
#256=VECTOR('',#434,1.);
#257=VECTOR('',#435,1.);
#258=VECTOR('',#442,1.);
#259=VECTOR('',#443,1.);
#260=VECTOR('',#444,1.);
#261=VECTOR('',#445,1.);
#262=VECTOR('',#446,1.);
#263=VECTOR('',#447,1.);
#264=VECTOR('',#448,1.);
#265=VECTOR('',#451,1.);
#266=VECTOR('',#452,1.);
#267=VECTOR('',#453,1.);
#268=VECTOR('',#454,1.);
#269=VECTOR('',#455,1.);
#270=VECTOR('',#456,1.);
#271=VECTOR('',#457,1.);
#272=VECTOR('',#464,1.);
#273=VECTOR('',#465,1.);
#274=VECTOR('',#466,1.);
#275=VECTOR('',#467,1.);
#276=VECTOR('',#468,1.);
#277=VECTOR('',#469,1.);
#278=VECTOR('',#472,1.);
#279=VECTOR('',#473,1.);
#280=VECTOR('',#474,1.);
#281=VECTOR('',#475,1.);
#282=VECTOR('',#478,1.);
#283=VECTOR('',#479,1.);
#284=VECTOR('',#480,1.);
#285=VECTOR('',#483,1.);
#286=VECTOR('',#484,1.);
#287=VECTOR('',#487,1.);
#288=VECTOR('',#488,1.);
#289=VECTOR('',#491,1.);
#290=VECTOR('',#496,1.);
#291=VECTOR('',#497,1.);
#292=VECTOR('',#498,1.);
#293=VECTOR('',#501,1.);
#294=VECTOR('',#502,1.);
#295=VECTOR('',#505,1.);
#296=VECTOR('',#506,1.);
#297=VECTOR('',#509,1.);
#298=VECTOR('',#514,1.);
#299=VECTOR('',#517,1.);
#300=EDGE_LOOP('',(#18,#19,#20,#21,#22));
#301=EDGE_LOOP('',(#23));
#302=EDGE_LOOP('',(#24));
#303=EDGE_LOOP('',(#25,#26,#27,#28,#29,#30,#31));
#304=EDGE_LOOP('',(#32,#33,#34,#35,#36,#37,#38,#39));
#305=EDGE_LOOP('',(#40));
#306=EDGE_LOOP('',(#41));
#307=EDGE_LOOP('',(#42,#43,#44,#45,#46,#47,#48,#49));
#308=EDGE_LOOP('',(#50,#51,#52,#53,#54,#55));
#309=EDGE_LOOP('',(#56,#57,#58,#59,#60,#61));
#310=EDGE_LOOP('',(#62,#63,#64,#65));
#311=EDGE_LOOP('',(#66,#67,#68,#69,#70,#71));
#312=EDGE_LOOP('',(#72,#73,#74,#75));
#313=EDGE_LOOP('',(#76,#77,#78,#79));
#314=EDGE_LOOP('',(#80,#81,#82,#83));
#315=EDGE_LOOP('',(#84,#85,#86,#87,#88,#89));
#316=EDGE_LOOP('',(#90,#91,#92,#93));
#317=EDGE_LOOP('',(#94,#95,#96,#97,#98,#99));
#318=EDGE_LOOP('',(#100,#101,#102,#103));
#319=EDGE_LOOP('',(#104,#105,#106,#107));
#320=EDGE_LOOP('',(#108,#109,#110,#111));
#321=EDGE_LOOP('',(#112,#113,#114,#115));
#322=EDGE_LOOP('',(#116));
#323=EDGE_LOOP('',(#117));
#324=EDGE_LOOP('',(#118));
#325=EDGE_LOOP('',(#119));
#326=FACE_BOUND('',#300,.T.);
#327=FACE_BOUND('',#301,.T.);
#328=FACE_BOUND('',#302,.T.);
#329=FACE_BOUND('',#303,.T.);
#330=FACE_BOUND('',#304,.T.);
#331=FACE_BOUND('',#305,.T.);
#332=FACE_BOUND('',#306,.T.);
#333=FACE_BOUND('',#307,.T.);
#334=FACE_BOUND('',#308,.T.);
#335=FACE_BOUND('',#309,.T.);
#336=FACE_BOUND('',#310,.T.);
#337=FACE_BOUND('',#311,.T.);
#338=FACE_BOUND('',#312,.T.);
#339=FACE_BOUND('',#313,.T.);
#340=FACE_BOUND('',#314,.T.);
#341=FACE_BOUND('',#315,.T.);
#342=FACE_BOUND('',#316,.T.);
#343=FACE_BOUND('',#317,.T.);
#344=FACE_BOUND('',#318,.T.);
#345=FACE_BOUND('',#319,.T.);
#346=FACE_BOUND('',#320,.T.);
#347=FACE_BOUND('',#321,.T.);
#348=FACE_BOUND('',#322,.T.);
#349=FACE_BOUND('',#323,.T.);
#350=FACE_BOUND('',#324,.T.);
#351=FACE_BOUND('',#325,.T.);
#352=PLANE('',#403);
#353=PLANE('',#404);
#354=PLANE('',#407);
#355=PLANE('',#408);
#356=PLANE('',#411);
#357=PLANE('',#412);
#358=PLANE('',#413);
#359=PLANE('',#414);
#360=PLANE('',#415);
#361=PLANE('',#416);
#362=PLANE('',#417);
#363=PLANE('',#418);
#364=PLANE('',#419);
#365=PLANE('',#420);
#366=PLANE('',#421);
#367=PLANE('',#422);
#368=PLANE('',#423);
#369=PLANE('',#424);
#370=ADVANCED_FACE('',(#326),#352,.F.);
#371=ADVANCED_FACE('',(#327,#328,#329),#353,.T.);
#372=ADVANCED_FACE('',(#330),#354,.T.);
#373=ADVANCED_FACE('',(#331,#332,#333),#355,.T.);
#374=ADVANCED_FACE('',(#334),#356,.F.);
#375=ADVANCED_FACE('',(#335),#357,.T.);
#376=ADVANCED_FACE('',(#336),#358,.F.);
#377=ADVANCED_FACE('',(#337),#359,.F.);
#378=ADVANCED_FACE('',(#338),#360,.F.);
#379=ADVANCED_FACE('',(#339),#361,.T.);
#380=ADVANCED_FACE('',(#340),#362,.T.);
#381=ADVANCED_FACE('',(#341),#363,.F.);
#382=ADVANCED_FACE('',(#342),#364,.F.);
#383=ADVANCED_FACE('',(#343),#365,.T.);
#384=ADVANCED_FACE('',(#344),#366,.T.);
#385=ADVANCED_FACE('',(#345),#367,.F.);
#386=ADVANCED_FACE('',(#346),#368,.T.);
#387=ADVANCED_FACE('',(#347),#369,.T.);
#388=ADVANCED_FACE('',(#348,#349),#12,.F.);
#389=ADVANCED_FACE('',(#350,#351),#13,.F.);
#390=CLOSED_SHELL('',(#370,#371,#372,#373,#374,#375,#376,#377,#378,#379,
#380,#381,#382,#383,#384,#385,#386,#387,#388,#389));
#391=STYLED_ITEM('',(#392),#399);
#392=PRESENTATION_STYLE_ASSIGNMENT((#393));
#393=SURFACE_STYLE_USAGE(.BOTH.,#394);
#394=SURFACE_SIDE_STYLE('',(#395));
#395=SURFACE_STYLE_FILL_AREA(#396);
#396=FILL_AREA_STYLE('',(#397));
#397=FILL_AREA_STYLE_COLOUR('',#398);
#398=COLOUR_RGB('',0.498039215686275,0.498039215686275,0.498039215686275);
#399=MANIFOLD_SOLID_BREP('Holder',#390);
#400=SHAPE_DEFINITION_REPRESENTATION(#637,#401);
#401=SHAPE_REPRESENTATION('Holder',(#402),#632);
#402=AXIS2_PLACEMENT_3D('',#524,#427,#428);
#403=AXIS2_PLACEMENT_3D('',#525,#429,#430);
#404=AXIS2_PLACEMENT_3D('',#536,#436,#437);
#405=AXIS2_PLACEMENT_3D('',#537,#438,#439);
#406=AXIS2_PLACEMENT_3D('',#539,#440,#441);
#407=AXIS2_PLACEMENT_3D('',#554,#449,#450);
#408=AXIS2_PLACEMENT_3D('',#568,#458,#459);
#409=AXIS2_PLACEMENT_3D('',#569,#460,#461);
#410=AXIS2_PLACEMENT_3D('',#571,#462,#463);
#411=AXIS2_PLACEMENT_3D('',#583,#470,#471);
#412=AXIS2_PLACEMENT_3D('',#590,#476,#477);
#413=AXIS2_PLACEMENT_3D('',#596,#481,#482);
#414=AXIS2_PLACEMENT_3D('',#600,#485,#486);
#415=AXIS2_PLACEMENT_3D('',#604,#489,#490);
#416=AXIS2_PLACEMENT_3D('',#606,#492,#493);
#417=AXIS2_PLACEMENT_3D('',#607,#494,#495);
#418=AXIS2_PLACEMENT_3D('',#613,#499,#500);
#419=AXIS2_PLACEMENT_3D('',#617,#503,#504);
#420=AXIS2_PLACEMENT_3D('',#621,#507,#508);
#421=AXIS2_PLACEMENT_3D('',#623,#510,#511);
#422=AXIS2_PLACEMENT_3D('',#624,#512,#513);
#423=AXIS2_PLACEMENT_3D('',#626,#515,#516);
#424=AXIS2_PLACEMENT_3D('',#628,#518,#519);
#425=AXIS2_PLACEMENT_3D('',#629,#520,#521);
#426=AXIS2_PLACEMENT_3D('',#630,#522,#523);
#427=DIRECTION('',(0.,0.,1.));
#428=DIRECTION('',(1.,0.,0.));
#429=DIRECTION('',(0.,0.,1.));
#430=DIRECTION('',(1.,0.,0.));
#431=DIRECTION('',(0.,1.,0.));
#432=DIRECTION('',(0.,-1.,0.));
#433=DIRECTION('',(1.,0.,0.));
#434=DIRECTION('',(0.,-1.,0.));
#435=DIRECTION('',(1.,0.,0.));
#436=DIRECTION('',(0.,-1.,0.));
#437=DIRECTION('',(0.,0.,-1.));
#438=DIRECTION('',(0.,-1.,0.));
#439=DIRECTION('',(0.,0.,-1.));
#440=DIRECTION('',(0.,-1.,0.));
#441=DIRECTION('',(0.,0.,-1.));
#442=DIRECTION('',(0.,0.,1.));
#443=DIRECTION('',(0.,0.,1.));
#444=DIRECTION('',(1.,0.,0.));
#445=DIRECTION('',(0.,0.,1.));
#446=DIRECTION('',(1.,0.,0.));
#447=DIRECTION('',(0.,0.,-1.));
#448=DIRECTION('',(1.,0.,0.));
#449=DIRECTION('',(0.,0.,1.));
#450=DIRECTION('',(1.,0.,0.));
#451=DIRECTION('',(0.,-1.,0.));
#452=DIRECTION('',(1.,0.,0.));
#453=DIRECTION('',(0.,-1.,0.));
#454=DIRECTION('',(-1.,0.,0.));
#455=DIRECTION('',(0.,-1.,0.));
#456=DIRECTION('',(0.,-1.,0.));
#457=DIRECTION('',(-1.,0.,0.));
#458=DIRECTION('',(0.,1.,0.));
#459=DIRECTION('',(0.,0.,1.));
#460=DIRECTION('',(0.,1.,0.));
#461=DIRECTION('',(0.,0.,1.));
#462=DIRECTION('',(0.,1.,0.));
#463=DIRECTION('',(0.,0.,1.));
#464=DIRECTION('',(0.,0.,1.));
#465=DIRECTION('',(1.,0.,0.));
#466=DIRECTION('',(0.,0.,1.));
#467=DIRECTION('',(1.,0.,0.));
#468=DIRECTION('',(0.,0.,1.));
#469=DIRECTION('',(0.,0.,1.));
#470=DIRECTION('',(0.,0.,1.));
#471=DIRECTION('',(1.,0.,0.));
#472=DIRECTION('',(0.,-1.,0.));
#473=DIRECTION('',(0.,1.,0.));
#474=DIRECTION('',(0.,-1.,0.));
#475=DIRECTION('',(1.,0.,0.));
#476=DIRECTION('',(1.,0.,0.));
#477=DIRECTION('',(0.,0.,-1.));
#478=DIRECTION('',(0.,0.,-1.));
#479=DIRECTION('',(0.,-1.,0.));
#480=DIRECTION('',(0.,0.,-1.));
#481=DIRECTION('',(0.,-1.,0.));
#482=DIRECTION('',(0.,0.,-1.));
#483=DIRECTION('',(0.,0.,-1.));
#484=DIRECTION('',(-1.,0.,0.));
#485=DIRECTION('',(1.,0.,0.));
#486=DIRECTION('',(0.,0.,-1.));
#487=DIRECTION('',(0.,0.,-1.));
#488=DIRECTION('',(0.,-1.,0.));
#489=DIRECTION('',(0.,1.,0.));
#490=DIRECTION('',(0.,0.,1.));
#491=DIRECTION('',(1.,0.,0.));
#492=DIRECTION('',(0.,0.,1.));
#493=DIRECTION('',(1.,0.,0.));
#494=DIRECTION('',(0.,-1.,0.));
#495=DIRECTION('',(0.,0.,-1.));
#496=DIRECTION('',(0.,0.,-1.));
#497=DIRECTION('',(0.,0.,-1.));
#498=DIRECTION('',(-1.,0.,0.));
#499=DIRECTION('',(-1.,0.,0.));
#500=DIRECTION('',(0.,0.,1.));
#501=DIRECTION('',(0.,0.,-1.));
#502=DIRECTION('',(0.,1.,0.));
#503=DIRECTION('',(0.,-1.,0.));
#504=DIRECTION('',(0.,0.,-1.));
#505=DIRECTION('',(0.,0.,-1.));
#506=DIRECTION('',(-1.,0.,0.));
#507=DIRECTION('',(-1.,0.,0.));
#508=DIRECTION('',(0.,0.,1.));
#509=DIRECTION('',(0.,1.,0.));
#510=DIRECTION('',(0.,0.,1.));
#511=DIRECTION('',(1.,0.,0.));
#512=DIRECTION('',(1.,0.,0.));
#513=DIRECTION('',(0.,0.,-1.));
#514=DIRECTION('',(0.,1.,0.));
#515=DIRECTION('',(1.,0.,0.));
#516=DIRECTION('',(0.,0.,-1.));
#517=DIRECTION('',(0.,1.,0.));
#518=DIRECTION('',(0.,0.,-1.));
#519=DIRECTION('',(1.,0.,0.));
#520=DIRECTION('',(0.,-1.,0.));
#521=DIRECTION('',(0.,0.,-1.));
#522=DIRECTION('',(0.,-1.,0.));
#523=DIRECTION('',(0.,0.,-1.));
#524=CARTESIAN_POINT('',(0.,0.,0.));
#525=CARTESIAN_POINT('',(-0.076355822757721,-0.0121564806442261,-0.01262));
#526=CARTESIAN_POINT('',(-0.0758256462087631,0.0365353193557739,-0.01262));
#527=CARTESIAN_POINT('',(-0.0758256462087631,0.032090319355774,-0.01262));
#528=CARTESIAN_POINT('',(-0.0758256462087631,0.0409803193557739,-0.01262));
#529=CARTESIAN_POINT('',(-0.0758256462087631,-0.0115050465803146,-0.01262));
#530=CARTESIAN_POINT('',(-0.0758256462087631,-0.0431280465803147,-0.01262));
#531=CARTESIAN_POINT('',(-0.0798261462087631,-0.0431280465803147,-0.01262));
#532=CARTESIAN_POINT('',(-0.0838266462087631,-0.0431280465803147,-0.01262));
#533=CARTESIAN_POINT('',(-0.0838266462087631,-0.0115050465803146,-0.01262));
#534=CARTESIAN_POINT('',(-0.0838266462087631,0.0409803193557739,-0.01262));
#535=CARTESIAN_POINT('',(-0.076355822757721,0.0409803193557739,-0.01262));
#536=CARTESIAN_POINT('',(-0.076355822757721,0.032090319355774,-0.01012));
#537=CARTESIAN_POINT('',(0.0663994393014907,0.032090319355774,-0.02532));
#538=CARTESIAN_POINT('',(0.0663994393014907,0.032090319355774,-0.0268200000000001));
#539=CARTESIAN_POINT('',(-0.0656656462087631,0.032090319355774,-0.02532));
#540=CARTESIAN_POINT('',(-0.0656656462087631,0.032090319355774,-0.02682));
#541=CARTESIAN_POINT('',(-0.0758256462087631,0.032090319355774,-0.01012));
#542=CARTESIAN_POINT('',(-0.0758256462087631,0.032090319355774,-0.00762));
#543=CARTESIAN_POINT('',(-0.0758256462087631,0.032090319355774,-0.03802));
#544=CARTESIAN_POINT('',(-0.0758256462087631,0.032090319355774,-0.03802));
#545=CARTESIAN_POINT('',(-0.076355822757721,0.032090319355774,-0.03802));
#546=CARTESIAN_POINT('',(0.0765594393014907,0.032090319355774,-0.03802));
#547=CARTESIAN_POINT('',(0.0765594393014907,0.032090319355774,-0.03802));
#548=CARTESIAN_POINT('',(0.0765594393014907,0.032090319355774,-0.01262));
#549=CARTESIAN_POINT('',(-0.076355822757721,0.032090319355774,-0.01262));
#550=CARTESIAN_POINT('',(0.0762981772422791,0.032090319355774,-0.01262));
#551=CARTESIAN_POINT('',(0.0762981772422791,0.032090319355774,-0.01012));
#552=CARTESIAN_POINT('',(0.0762981772422791,0.032090319355774,-0.00762));
#553=CARTESIAN_POINT('',(-0.076355822757721,0.032090319355774,-0.00762));
#554=CARTESIAN_POINT('',(-0.076355822757721,-0.0121564806442261,-0.00762));
#555=CARTESIAN_POINT('',(0.0842991772422791,-0.0121564806442261,-0.00762));
#556=CARTESIAN_POINT('',(0.0842991772422791,0.0409803193557739,-0.00762));
#557=CARTESIAN_POINT('',(0.0842991772422791,-0.03493532538414,-0.00762));
#558=CARTESIAN_POINT('',(-0.076355822757721,0.0409803193557739,-0.00762));
#559=CARTESIAN_POINT('',(-0.0838266462087631,0.0409803193557739,-0.00762));
#560=CARTESIAN_POINT('',(-0.0838266462087631,-0.0115050465803146,-0.00762));
#561=CARTESIAN_POINT('',(-0.0838266462087631,-0.03493532538414,-0.00762));
#562=CARTESIAN_POINT('',(-0.0798261462087631,-0.03493532538414,-0.00762));
#563=CARTESIAN_POINT('',(-0.0758256462087631,-0.03493532538414,-0.00762));
#564=CARTESIAN_POINT('',(-0.0758256462087631,-0.0115050465803146,-0.00762));
#565=CARTESIAN_POINT('',(0.0762981772422791,-0.0121564806442261,-0.00762));
#566=CARTESIAN_POINT('',(0.0762981772422791,-0.03493532538414,-0.00762));
#567=CARTESIAN_POINT('',(0.0802986772422791,-0.03493532538414,-0.00762));
#568=CARTESIAN_POINT('',(-0.076355822757721,0.0409803193557739,-0.01262));
#569=CARTESIAN_POINT('',(0.0663994393014907,0.0409803193557739,-0.02532));
#570=CARTESIAN_POINT('',(0.0663994393014907,0.0409803193557739,-0.0238199999999999));
#571=CARTESIAN_POINT('',(-0.0656656462087631,0.0409803193557739,-0.02532));
#572=CARTESIAN_POINT('',(-0.0656656462087631,0.0409803193557739,-0.02382));
#573=CARTESIAN_POINT('',(0.0842991772422791,0.0409803193557739,-0.01262));
#574=CARTESIAN_POINT('',(0.0842991772422791,0.0409803193557739,-0.01262));
#575=CARTESIAN_POINT('',(-0.076355822757721,0.0409803193557739,-0.01262));
#576=CARTESIAN_POINT('',(0.0765594393014907,0.0409803193557739,-0.01262));
#577=CARTESIAN_POINT('',(0.0765594393014907,0.0409803193557739,-0.03802));
#578=CARTESIAN_POINT('',(0.0765594393014907,0.0409803193557739,-0.03802));
#579=CARTESIAN_POINT('',(-0.076355822757721,0.0409803193557739,-0.03802));
#580=CARTESIAN_POINT('',(-0.0758256462087631,0.0409803193557739,-0.03802));
#581=CARTESIAN_POINT('',(-0.0758256462087631,0.0409803193557739,-0.03802));
#582=CARTESIAN_POINT('',(-0.0838266462087631,0.0409803193557739,-0.01262));
#583=CARTESIAN_POINT('',(-0.076355822757721,-0.0121564806442261,-0.01262));
#584=CARTESIAN_POINT('',(0.0762981772422791,-0.0121564806442261,-0.01262));
#585=CARTESIAN_POINT('',(0.0762981772422791,-0.0437794806442261,-0.01262));
#586=CARTESIAN_POINT('',(0.0765594393014907,0.0365353193557739,-0.01262));
#587=CARTESIAN_POINT('',(0.0842991772422791,-0.0121564806442261,-0.01262));
#588=CARTESIAN_POINT('',(0.0842991772422791,-0.0437794806442261,-0.01262));
#589=CARTESIAN_POINT('',(0.0802986772422791,-0.0437794806442261,-0.01262));
#590=CARTESIAN_POINT('',(-0.0758256462087631,-0.0115050465803146,-0.00381));
#591=CARTESIAN_POINT('',(-0.0758256462087631,-0.03493532538414,-0.00381));
#592=CARTESIAN_POINT('',(-0.0758256462087631,-0.03493532538414,-0.00381));
#593=CARTESIAN_POINT('',(-0.0758256462087631,-0.0115050465803146,-0.00381));
#594=CARTESIAN_POINT('',(-0.0758256462087631,-0.0431280465803147,-0.00381));
#595=CARTESIAN_POINT('',(-0.0758256462087631,-0.0431280465803147,-0.00381));
#596=CARTESIAN_POINT('',(-0.0798261462087631,-0.03493532538414,-0.00381));
#597=CARTESIAN_POINT('',(-0.0838266462087631,-0.03493532538414,-0.00381));
#598=CARTESIAN_POINT('',(-0.0838266462087631,-0.03493532538414,-0.00381));
#599=CARTESIAN_POINT('',(-0.0798261462087631,-0.03493532538414,-0.00381));
#600=CARTESIAN_POINT('',(-0.0838266462087631,-0.0115050465803146,-0.00381));
#601=CARTESIAN_POINT('',(-0.0838266462087631,-0.0431280465803147,-0.00381));
#602=CARTESIAN_POINT('',(-0.0838266462087631,-0.0431280465803147,-0.00381));
#603=CARTESIAN_POINT('',(-0.0838266462087631,-0.0115050465803146,-0.00381));
#604=CARTESIAN_POINT('',(-0.0798261462087631,-0.0431280465803147,-0.00381));
#605=CARTESIAN_POINT('',(-0.0798261462087631,-0.0431280465803147,-0.00381));
#606=CARTESIAN_POINT('',(0.000236265516757969,-0.00139958064422608,-0.00381));
#607=CARTESIAN_POINT('',(0.0802986772422791,-0.0437794806442261,-0.00381));
#608=CARTESIAN_POINT('',(0.0762981772422791,-0.0437794806442261,-0.00381));
#609=CARTESIAN_POINT('',(0.0762981772422791,-0.0437794806442261,-0.00381));
#610=CARTESIAN_POINT('',(0.0842991772422791,-0.0437794806442261,-0.00381));
#611=CARTESIAN_POINT('',(0.0842991772422791,-0.0437794806442261,-0.00381));
#612=CARTESIAN_POINT('',(0.0802986772422791,-0.0437794806442261,-0.00381));
#613=CARTESIAN_POINT('',(0.0842991772422791,-0.039357403014183,-0.00381));
#614=CARTESIAN_POINT('',(0.0842991772422791,-0.03493532538414,-0.00381));
#615=CARTESIAN_POINT('',(0.0842991772422791,-0.03493532538414,-0.00381));
#616=CARTESIAN_POINT('',(0.0842991772422791,-0.039357403014183,-0.00381));
#617=CARTESIAN_POINT('',(0.0802986772422791,-0.03493532538414,-0.00381));
#618=CARTESIAN_POINT('',(0.0762981772422791,-0.03493532538414,-0.00381));
#619=CARTESIAN_POINT('',(0.0762981772422791,-0.03493532538414,-0.00381));
#620=CARTESIAN_POINT('',(0.0802986772422791,-0.03493532538414,-0.00381));
#621=CARTESIAN_POINT('',(0.0762981772422791,-0.039357403014183,-0.00381));
#622=CARTESIAN_POINT('',(0.0762981772422791,-0.039357403014183,-0.00381));
#623=CARTESIAN_POINT('',(0.000236265516757969,-0.00139958064422608,-0.00381));
#624=CARTESIAN_POINT('',(-0.0758256462087631,0.0365353193557739,-0.03802));
#625=CARTESIAN_POINT('',(-0.0758256462087631,0.0365353193557739,-0.03802));
#626=CARTESIAN_POINT('',(0.0765594393014907,0.0365353193557739,-0.03802));
#627=CARTESIAN_POINT('',(0.0765594393014907,0.0365353193557739,-0.03802));
#628=CARTESIAN_POINT('',(0.000236265516757969,-0.00139958064422608,-0.03802));
#629=CARTESIAN_POINT('',(-0.0656656462087631,0.0574903193557739,-0.02532));
#630=CARTESIAN_POINT('',(0.0663994393014907,0.0574903193557739,-0.02532));
#631=MECHANICAL_DESIGN_GEOMETRIC_PRESENTATION_REPRESENTATION('',(#391),
#632);
#632=(
GEOMETRIC_REPRESENTATION_CONTEXT(3)
GLOBAL_UNCERTAINTY_ASSIGNED_CONTEXT((#633))
GLOBAL_UNIT_ASSIGNED_CONTEXT((#636,#635,#634))
REPRESENTATION_CONTEXT('Holder','TOP_LEVEL_ASSEMBLY_PART')
);
#633=UNCERTAINTY_MEASURE_WITH_UNIT(LENGTH_MEASURE(1.E-8),#636,
'DISTANCE_ACCURACY_VALUE','Maximum Tolerance applied to model');
#634=(
NAMED_UNIT(*)
SI_UNIT($,.STERADIAN.)
SOLID_ANGLE_UNIT()
);
#635=(
NAMED_UNIT(*)
PLANE_ANGLE_UNIT()
SI_UNIT($,.RADIAN.)
);
#636=(
LENGTH_UNIT()
NAMED_UNIT(*)
SI_UNIT($,.METRE.)
);
#637=PRODUCT_DEFINITION_SHAPE('','',#638);
#638=PRODUCT_DEFINITION('','',#640,#639);
#639=PRODUCT_DEFINITION_CONTEXT('',#646,'design');
#640=PRODUCT_DEFINITION_FORMATION_WITH_SPECIFIED_SOURCE('','',#642,
 .NOT_KNOWN.);
#641=PRODUCT_RELATED_PRODUCT_CATEGORY('','',(#642));
#642=PRODUCT('Holder','Holder','Holder',(#644));
#643=PRODUCT_CATEGORY('','');
#644=PRODUCT_CONTEXT('',#646,'mechanical');
#645=APPLICATION_PROTOCOL_DEFINITION('international standard',
'ap242_managed_model_based_3d_engineering',2020,#646);
#646=APPLICATION_CONTEXT('managed model based 3d engineering');
ENDSEC;
END-ISO-10303-21;
