ISO-10303-21;
HEADER;
/* Generated by software containing ST-Developer
 * from STEP Tools, Inc. (www.steptools.com) 
 */
/* OPTION: using custom renumber hook */

FILE_DESCRIPTION(
/* description */ ('STEP AP242 Edition 2',
'CAx-IF Rec.Pracs.---Representation and Presentation of Product Manufa
cturing Information (PMI)---4.0---2014-10-13',
'CAx-IF Rec.Pracs.---3D Tessellated Geometry---0.4---2014-09-14','2;1',
'CAx-IF Rec.Pracs.---User Defined Attributes---1.5---2016-08-15'),
/* implementation_level */ '2;1');

FILE_NAME(
/* name */ 'Part Studio 1 - Mini Trash Can',
/* time_stamp */ '2026-08-07T02:32:53Z',
/* author */ (''),
/* organization */ (''),
/* preprocessor_version */ 'ST-DEVELOPER v20',
/* originating_system */ 'ONSHAPE BY PTC INC, 1.218',
/* authorisation */ '  ');

FILE_SCHEMA (('AP242_MANAGED_MODEL_BASED_3D_ENGINEERING_MIM_LF { 1 0 10303 442 3 1 4 }'));
ENDSEC;

DATA;
#10=SHAPE_REPRESENTATION_RELATIONSHIP('','',#523,#11);
#11=ADVANCED_BREP_SHAPE_REPRESENTATION('',(#521),#881);
#12=CYLINDRICAL_SURFACE('',#535,0.0122642048968553);
#13=CYLINDRICAL_SURFACE('',#538,0.0122642048968553);
#14=CYLINDRICAL_SURFACE('',#541,0.0122642048968553);
#15=CYLINDRICAL_SURFACE('',#544,0.0122642048968553);
#16=CYLINDRICAL_SURFACE('',#548,0.0122642048968553);
#17=CYLINDRICAL_SURFACE('',#551,0.0122642048968553);
#18=CYLINDRICAL_SURFACE('',#554,0.0122642048968553);
#19=CYLINDRICAL_SURFACE('',#557,0.0122642048968553);
#20=CYLINDRICAL_SURFACE('',#569,0.0122642048968553);
#21=CYLINDRICAL_SURFACE('',#571,0.0122642048968553);
#22=CYLINDRICAL_SURFACE('',#573,0.0122642048968553);
#23=CYLINDRICAL_SURFACE('',#575,0.0122642048968553);
#24=LINE('',#736,#72);
#25=LINE('',#740,#73);
#26=LINE('',#744,#74);
#27=LINE('',#748,#75);
#28=LINE('',#749,#76);
#29=LINE('',#754,#77);
#30=LINE('',#758,#78);
#31=LINE('',#762,#79);
#32=LINE('',#766,#80);
#33=LINE('',#768,#81);
#34=LINE('',#770,#82);
#35=LINE('',#772,#83);
#36=LINE('',#776,#84);
#37=LINE('',#778,#85);
#38=LINE('',#780,#86);
#39=LINE('',#784,#87);
#40=LINE('',#786,#88);
#41=LINE('',#788,#89);
#42=LINE('',#792,#90);
#43=LINE('',#794,#91);
#44=LINE('',#799,#92);
#45=LINE('',#801,#93);
#46=LINE('',#803,#94);
#47=LINE('',#807,#95);
#48=LINE('',#809,#96);
#49=LINE('',#811,#97);
#50=LINE('',#815,#98);
#51=LINE('',#817,#99);
#52=LINE('',#819,#100);
#53=LINE('',#823,#101);
#54=LINE('',#825,#102);
#55=LINE('',#827,#103);
#56=LINE('',#834,#104);
#57=LINE('',#838,#105);
#58=LINE('',#842,#106);
#59=LINE('',#846,#107);
#60=LINE('',#848,#108);
#61=LINE('',#853,#109);
#62=LINE('',#857,#110);
#63=LINE('',#861,#111);
#64=LINE('',#865,#112);
#65=LINE('',#866,#113);
#66=LINE('',#868,#114);
#67=LINE('',#870,#115);
#68=LINE('',#872,#116);
#69=LINE('',#874,#117);
#70=LINE('',#876,#118);
#71=LINE('',#878,#119);
#72=VECTOR('',#583,1.);
#73=VECTOR('',#586,1.);
#74=VECTOR('',#589,1.);
#75=VECTOR('',#592,1.);
#76=VECTOR('',#593,1.);
#77=VECTOR('',#596,1.);
#78=VECTOR('',#599,1.);
#79=VECTOR('',#602,1.);
#80=VECTOR('',#607,1.);
#81=VECTOR('',#608,1.);
#82=VECTOR('',#609,1.);
#83=VECTOR('',#612,1.);
#84=VECTOR('',#617,1.);
#85=VECTOR('',#618,1.);
#86=VECTOR('',#621,1.);
#87=VECTOR('',#626,1.);
#88=VECTOR('',#627,1.);
#89=VECTOR('',#630,1.);
#90=VECTOR('',#635,1.);
#91=VECTOR('',#636,1.);
#92=VECTOR('',#645,1.);
#93=VECTOR('',#646,1.);
#94=VECTOR('',#647,1.);
#95=VECTOR('',#652,1.);
#96=VECTOR('',#655,1.);
#97=VECTOR('',#656,1.);
#98=VECTOR('',#661,1.);
#99=VECTOR('',#664,1.);
#100=VECTOR('',#665,1.);
#101=VECTOR('',#670,1.);
#102=VECTOR('',#673,1.);
#103=VECTOR('',#674,1.);
#104=VECTOR('',#683,1.);
#105=VECTOR('',#686,1.);
#106=VECTOR('',#689,1.);
#107=VECTOR('',#692,1.);
#108=VECTOR('',#695,1.);
#109=VECTOR('',#698,1.);
#110=VECTOR('',#701,1.);
#111=VECTOR('',#704,1.);
#112=VECTOR('',#709,1.);
#113=VECTOR('',#710,1.);
#114=VECTOR('',#713,1.);
#115=VECTOR('',#716,1.);
#116=VECTOR('',#719,1.);
#117=VECTOR('',#722,1.);
#118=VECTOR('',#725,1.);
#119=VECTOR('',#728,1.);
#120=ORIENTED_EDGE('',*,*,#264,.F.);
#121=ORIENTED_EDGE('',*,*,#265,.T.);
#122=ORIENTED_EDGE('',*,*,#266,.F.);
#123=ORIENTED_EDGE('',*,*,#267,.F.);
#124=ORIENTED_EDGE('',*,*,#268,.F.);
#125=ORIENTED_EDGE('',*,*,#269,.F.);
#126=ORIENTED_EDGE('',*,*,#270,.F.);
#127=ORIENTED_EDGE('',*,*,#271,.T.);
#128=ORIENTED_EDGE('',*,*,#272,.F.);
#129=ORIENTED_EDGE('',*,*,#273,.T.);
#130=ORIENTED_EDGE('',*,*,#274,.F.);
#131=ORIENTED_EDGE('',*,*,#275,.T.);
#132=ORIENTED_EDGE('',*,*,#276,.T.);
#133=ORIENTED_EDGE('',*,*,#277,.T.);
#134=ORIENTED_EDGE('',*,*,#278,.T.);
#135=ORIENTED_EDGE('',*,*,#279,.T.);
#136=ORIENTED_EDGE('',*,*,#265,.F.);
#137=ORIENTED_EDGE('',*,*,#280,.F.);
#138=ORIENTED_EDGE('',*,*,#281,.T.);
#139=ORIENTED_EDGE('',*,*,#282,.T.);
#140=ORIENTED_EDGE('',*,*,#264,.T.);
#141=ORIENTED_EDGE('',*,*,#283,.F.);
#142=ORIENTED_EDGE('',*,*,#284,.F.);
#143=ORIENTED_EDGE('',*,*,#280,.T.);
#144=ORIENTED_EDGE('',*,*,#271,.F.);
#145=ORIENTED_EDGE('',*,*,#285,.F.);
#146=ORIENTED_EDGE('',*,*,#286,.T.);
#147=ORIENTED_EDGE('',*,*,#283,.T.);
#148=ORIENTED_EDGE('',*,*,#270,.T.);
#149=ORIENTED_EDGE('',*,*,#287,.F.);
#150=ORIENTED_EDGE('',*,*,#288,.F.);
#151=ORIENTED_EDGE('',*,*,#285,.T.);
#152=ORIENTED_EDGE('',*,*,#269,.T.);
#153=ORIENTED_EDGE('',*,*,#289,.F.);
#154=ORIENTED_EDGE('',*,*,#290,.F.);
#155=ORIENTED_EDGE('',*,*,#287,.T.);
#156=ORIENTED_EDGE('',*,*,#268,.T.);
#157=ORIENTED_EDGE('',*,*,#291,.F.);
#158=ORIENTED_EDGE('',*,*,#292,.F.);
#159=ORIENTED_EDGE('',*,*,#289,.T.);
#160=ORIENTED_EDGE('',*,*,#267,.T.);
#161=ORIENTED_EDGE('',*,*,#293,.F.);
#162=ORIENTED_EDGE('',*,*,#294,.F.);
#163=ORIENTED_EDGE('',*,*,#291,.T.);
#164=ORIENTED_EDGE('',*,*,#266,.T.);
#165=ORIENTED_EDGE('',*,*,#282,.F.);
#166=ORIENTED_EDGE('',*,*,#295,.F.);
#167=ORIENTED_EDGE('',*,*,#293,.T.);
#168=ORIENTED_EDGE('',*,*,#281,.F.);
#169=ORIENTED_EDGE('',*,*,#284,.T.);
#170=ORIENTED_EDGE('',*,*,#286,.F.);
#171=ORIENTED_EDGE('',*,*,#288,.T.);
#172=ORIENTED_EDGE('',*,*,#290,.T.);
#173=ORIENTED_EDGE('',*,*,#292,.T.);
#174=ORIENTED_EDGE('',*,*,#294,.T.);
#175=ORIENTED_EDGE('',*,*,#295,.T.);
#176=ORIENTED_EDGE('',*,*,#272,.T.);
#177=ORIENTED_EDGE('',*,*,#296,.F.);
#178=ORIENTED_EDGE('',*,*,#297,.F.);
#179=ORIENTED_EDGE('',*,*,#298,.T.);
#180=ORIENTED_EDGE('',*,*,#273,.F.);
#181=ORIENTED_EDGE('',*,*,#298,.F.);
#182=ORIENTED_EDGE('',*,*,#299,.T.);
#183=ORIENTED_EDGE('',*,*,#300,.T.);
#184=ORIENTED_EDGE('',*,*,#274,.T.);
#185=ORIENTED_EDGE('',*,*,#300,.F.);
#186=ORIENTED_EDGE('',*,*,#301,.F.);
#187=ORIENTED_EDGE('',*,*,#302,.T.);
#188=ORIENTED_EDGE('',*,*,#275,.F.);
#189=ORIENTED_EDGE('',*,*,#302,.F.);
#190=ORIENTED_EDGE('',*,*,#303,.T.);
#191=ORIENTED_EDGE('',*,*,#304,.T.);
#192=ORIENTED_EDGE('',*,*,#276,.F.);
#193=ORIENTED_EDGE('',*,*,#304,.F.);
#194=ORIENTED_EDGE('',*,*,#305,.T.);
#195=ORIENTED_EDGE('',*,*,#306,.T.);
#196=ORIENTED_EDGE('',*,*,#277,.F.);
#197=ORIENTED_EDGE('',*,*,#306,.F.);
#198=ORIENTED_EDGE('',*,*,#307,.T.);
#199=ORIENTED_EDGE('',*,*,#308,.T.);
#200=ORIENTED_EDGE('',*,*,#278,.F.);
#201=ORIENTED_EDGE('',*,*,#308,.F.);
#202=ORIENTED_EDGE('',*,*,#309,.T.);
#203=ORIENTED_EDGE('',*,*,#310,.T.);
#204=ORIENTED_EDGE('',*,*,#279,.F.);
#205=ORIENTED_EDGE('',*,*,#310,.F.);
#206=ORIENTED_EDGE('',*,*,#311,.T.);
#207=ORIENTED_EDGE('',*,*,#296,.T.);
#208=ORIENTED_EDGE('',*,*,#312,.T.);
#209=ORIENTED_EDGE('',*,*,#313,.T.);
#210=ORIENTED_EDGE('',*,*,#314,.T.);
#211=ORIENTED_EDGE('',*,*,#315,.T.);
#212=ORIENTED_EDGE('',*,*,#316,.T.);
#213=ORIENTED_EDGE('',*,*,#317,.F.);
#214=ORIENTED_EDGE('',*,*,#318,.T.);
#215=ORIENTED_EDGE('',*,*,#319,.F.);
#216=ORIENTED_EDGE('',*,*,#297,.T.);
#217=ORIENTED_EDGE('',*,*,#311,.F.);
#218=ORIENTED_EDGE('',*,*,#309,.F.);
#219=ORIENTED_EDGE('',*,*,#307,.F.);
#220=ORIENTED_EDGE('',*,*,#305,.F.);
#221=ORIENTED_EDGE('',*,*,#303,.F.);
#222=ORIENTED_EDGE('',*,*,#301,.T.);
#223=ORIENTED_EDGE('',*,*,#299,.F.);
#224=ORIENTED_EDGE('',*,*,#320,.T.);
#225=ORIENTED_EDGE('',*,*,#321,.F.);
#226=ORIENTED_EDGE('',*,*,#322,.T.);
#227=ORIENTED_EDGE('',*,*,#323,.F.);
#228=ORIENTED_EDGE('',*,*,#324,.F.);
#229=ORIENTED_EDGE('',*,*,#325,.F.);
#230=ORIENTED_EDGE('',*,*,#326,.F.);
#231=ORIENTED_EDGE('',*,*,#327,.F.);
#232=ORIENTED_EDGE('',*,*,#328,.T.);
#233=ORIENTED_EDGE('',*,*,#318,.F.);
#234=ORIENTED_EDGE('',*,*,#329,.F.);
#235=ORIENTED_EDGE('',*,*,#321,.T.);
#236=ORIENTED_EDGE('',*,*,#317,.T.);
#237=ORIENTED_EDGE('',*,*,#330,.F.);
#238=ORIENTED_EDGE('',*,*,#322,.F.);
#239=ORIENTED_EDGE('',*,*,#329,.T.);
#240=ORIENTED_EDGE('',*,*,#330,.T.);
#241=ORIENTED_EDGE('',*,*,#316,.F.);
#242=ORIENTED_EDGE('',*,*,#331,.F.);
#243=ORIENTED_EDGE('',*,*,#323,.T.);
#244=ORIENTED_EDGE('',*,*,#331,.T.);
#245=ORIENTED_EDGE('',*,*,#315,.F.);
#246=ORIENTED_EDGE('',*,*,#332,.F.);
#247=ORIENTED_EDGE('',*,*,#324,.T.);
#248=ORIENTED_EDGE('',*,*,#332,.T.);
#249=ORIENTED_EDGE('',*,*,#314,.F.);
#250=ORIENTED_EDGE('',*,*,#333,.F.);
#251=ORIENTED_EDGE('',*,*,#325,.T.);
#252=ORIENTED_EDGE('',*,*,#333,.T.);
#253=ORIENTED_EDGE('',*,*,#313,.F.);
#254=ORIENTED_EDGE('',*,*,#334,.F.);
#255=ORIENTED_EDGE('',*,*,#326,.T.);
#256=ORIENTED_EDGE('',*,*,#334,.T.);
#257=ORIENTED_EDGE('',*,*,#312,.F.);
#258=ORIENTED_EDGE('',*,*,#335,.F.);
#259=ORIENTED_EDGE('',*,*,#327,.T.);
#260=ORIENTED_EDGE('',*,*,#319,.T.);
#261=ORIENTED_EDGE('',*,*,#328,.F.);
#262=ORIENTED_EDGE('',*,*,#320,.F.);
#263=ORIENTED_EDGE('',*,*,#335,.T.);
#264=EDGE_CURVE('',#336,#337,#384,.T.);
#265=EDGE_CURVE('',#336,#338,#24,.T.);
#266=EDGE_CURVE('',#339,#338,#385,.T.);
#267=EDGE_CURVE('',#340,#339,#25,.T.);
#268=EDGE_CURVE('',#341,#340,#386,.T.);
#269=EDGE_CURVE('',#342,#341,#26,.T.);
#270=EDGE_CURVE('',#343,#342,#387,.T.);
#271=EDGE_CURVE('',#343,#337,#27,.T.);
#272=EDGE_CURVE('',#344,#345,#28,.T.);
#273=EDGE_CURVE('',#344,#346,#388,.T.);
#274=EDGE_CURVE('',#347,#346,#29,.T.);
#275=EDGE_CURVE('',#347,#348,#389,.T.);
#276=EDGE_CURVE('',#348,#349,#30,.T.);
#277=EDGE_CURVE('',#349,#350,#390,.T.);
#278=EDGE_CURVE('',#350,#351,#31,.T.);
#279=EDGE_CURVE('',#351,#345,#391,.T.);
#280=EDGE_CURVE('',#352,#336,#32,.T.);
#281=EDGE_CURVE('',#352,#353,#33,.T.);
#282=EDGE_CURVE('',#353,#338,#34,.T.);
#283=EDGE_CURVE('',#354,#337,#35,.T.);
#284=EDGE_CURVE('',#352,#354,#392,.T.);
#285=EDGE_CURVE('',#355,#343,#36,.T.);
#286=EDGE_CURVE('',#355,#354,#37,.T.);
#287=EDGE_CURVE('',#356,#342,#38,.T.);
#288=EDGE_CURVE('',#355,#356,#393,.T.);
#289=EDGE_CURVE('',#357,#341,#39,.T.);
#290=EDGE_CURVE('',#356,#357,#40,.T.);
#291=EDGE_CURVE('',#358,#340,#41,.T.);
#292=EDGE_CURVE('',#357,#358,#394,.T.);
#293=EDGE_CURVE('',#359,#339,#42,.T.);
#294=EDGE_CURVE('',#358,#359,#43,.T.);
#295=EDGE_CURVE('',#359,#353,#395,.T.);
#296=EDGE_CURVE('',#360,#345,#44,.T.);
#297=EDGE_CURVE('',#361,#360,#45,.T.);
#298=EDGE_CURVE('',#361,#344,#46,.T.);
#299=EDGE_CURVE('',#361,#362,#396,.T.);
#300=EDGE_CURVE('',#362,#346,#47,.T.);
#301=EDGE_CURVE('',#363,#362,#48,.T.);
#302=EDGE_CURVE('',#363,#347,#49,.T.);
#303=EDGE_CURVE('',#363,#364,#397,.T.);
#304=EDGE_CURVE('',#364,#348,#50,.T.);
#305=EDGE_CURVE('',#364,#365,#51,.T.);
#306=EDGE_CURVE('',#365,#349,#52,.T.);
#307=EDGE_CURVE('',#365,#366,#398,.T.);
#308=EDGE_CURVE('',#366,#350,#53,.T.);
#309=EDGE_CURVE('',#366,#367,#54,.T.);
#310=EDGE_CURVE('',#367,#351,#55,.T.);
#311=EDGE_CURVE('',#367,#360,#399,.T.);
#312=EDGE_CURVE('',#368,#369,#400,.T.);
#313=EDGE_CURVE('',#369,#370,#56,.T.);
#314=EDGE_CURVE('',#370,#371,#401,.T.);
#315=EDGE_CURVE('',#371,#372,#57,.T.);
#316=EDGE_CURVE('',#372,#373,#402,.T.);
#317=EDGE_CURVE('',#374,#373,#58,.T.);
#318=EDGE_CURVE('',#374,#375,#403,.T.);
#319=EDGE_CURVE('',#368,#375,#59,.T.);
#320=EDGE_CURVE('',#376,#377,#60,.T.);
#321=EDGE_CURVE('',#378,#377,#404,.T.);
#322=EDGE_CURVE('',#378,#379,#61,.T.);
#323=EDGE_CURVE('',#380,#379,#405,.T.);
#324=EDGE_CURVE('',#381,#380,#62,.T.);
#325=EDGE_CURVE('',#382,#381,#406,.T.);
#326=EDGE_CURVE('',#383,#382,#63,.T.);
#327=EDGE_CURVE('',#376,#383,#407,.T.);
#328=EDGE_CURVE('',#377,#375,#64,.T.);
#329=EDGE_CURVE('',#378,#374,#65,.T.);
#330=EDGE_CURVE('',#379,#373,#66,.T.);
#331=EDGE_CURVE('',#380,#372,#67,.T.);
#332=EDGE_CURVE('',#381,#371,#68,.T.);
#333=EDGE_CURVE('',#382,#370,#69,.T.);
#334=EDGE_CURVE('',#383,#369,#70,.T.);
#335=EDGE_CURVE('',#376,#368,#71,.T.);
#336=VERTEX_POINT('',#734);
#337=VERTEX_POINT('',#735);
#338=VERTEX_POINT('',#737);
#339=VERTEX_POINT('',#739);
#340=VERTEX_POINT('',#741);
#341=VERTEX_POINT('',#743);
#342=VERTEX_POINT('',#745);
#343=VERTEX_POINT('',#747);
#344=VERTEX_POINT('',#750);
#345=VERTEX_POINT('',#751);
#346=VERTEX_POINT('',#753);
#347=VERTEX_POINT('',#755);
#348=VERTEX_POINT('',#757);
#349=VERTEX_POINT('',#759);
#350=VERTEX_POINT('',#761);
#351=VERTEX_POINT('',#763);
#352=VERTEX_POINT('',#767);
#353=VERTEX_POINT('',#769);
#354=VERTEX_POINT('',#773);
#355=VERTEX_POINT('',#777);
#356=VERTEX_POINT('',#781);
#357=VERTEX_POINT('',#785);
#358=VERTEX_POINT('',#789);
#359=VERTEX_POINT('',#793);
#360=VERTEX_POINT('',#800);
#361=VERTEX_POINT('',#802);
#362=VERTEX_POINT('',#806);
#363=VERTEX_POINT('',#810);
#364=VERTEX_POINT('',#814);
#365=VERTEX_POINT('',#818);
#366=VERTEX_POINT('',#822);
#367=VERTEX_POINT('',#826);
#368=VERTEX_POINT('',#832);
#369=VERTEX_POINT('',#833);
#370=VERTEX_POINT('',#835);
#371=VERTEX_POINT('',#837);
#372=VERTEX_POINT('',#839);
#373=VERTEX_POINT('',#841);
#374=VERTEX_POINT('',#843);
#375=VERTEX_POINT('',#845);
#376=VERTEX_POINT('',#849);
#377=VERTEX_POINT('',#850);
#378=VERTEX_POINT('',#852);
#379=VERTEX_POINT('',#854);
#380=VERTEX_POINT('',#856);
#381=VERTEX_POINT('',#858);
#382=VERTEX_POINT('',#860);
#383=VERTEX_POINT('',#862);
#384=CIRCLE('',#526,0.0122642048968553);
#385=CIRCLE('',#527,0.0122642048968553);
#386=CIRCLE('',#528,0.0122642048968553);
#387=CIRCLE('',#529,0.0122642048968553);
#388=CIRCLE('',#530,0.0122642048968553);
#389=CIRCLE('',#531,0.0122642048968553);
#390=CIRCLE('',#532,0.0122642048968553);
#391=CIRCLE('',#533,0.0122642048968553);
#392=CIRCLE('',#536,0.0122642048968553);
#393=CIRCLE('',#539,0.0122642048968553);
#394=CIRCLE('',#542,0.0122642048968553);
#395=CIRCLE('',#545,0.0122642048968553);
#396=CIRCLE('',#549,0.0122642048968553);
#397=CIRCLE('',#552,0.0122642048968553);
#398=CIRCLE('',#555,0.0122642048968553);
#399=CIRCLE('',#558,0.0122642048968553);
#400=CIRCLE('',#560,0.0122642048968553);
#401=CIRCLE('',#561,0.0122642048968553);
#402=CIRCLE('',#562,0.0122642048968553);
#403=CIRCLE('',#563,0.0122642048968553);
#404=CIRCLE('',#565,0.0122642048968553);
#405=CIRCLE('',#566,0.0122642048968553);
#406=CIRCLE('',#567,0.0122642048968553);
#407=CIRCLE('',#568,0.0122642048968553);
#408=EDGE_LOOP('',(#120,#121,#122,#123,#124,#125,#126,#127));
#409=EDGE_LOOP('',(#128,#129,#130,#131,#132,#133,#134,#135));
#410=EDGE_LOOP('',(#136,#137,#138,#139));
#411=EDGE_LOOP('',(#140,#141,#142,#143));
#412=EDGE_LOOP('',(#144,#145,#146,#147));
#413=EDGE_LOOP('',(#148,#149,#150,#151));
#414=EDGE_LOOP('',(#152,#153,#154,#155));
#415=EDGE_LOOP('',(#156,#157,#158,#159));
#416=EDGE_LOOP('',(#160,#161,#162,#163));
#417=EDGE_LOOP('',(#164,#165,#166,#167));
#418=EDGE_LOOP('',(#168,#169,#170,#171,#172,#173,#174,#175));
#419=EDGE_LOOP('',(#176,#177,#178,#179));
#420=EDGE_LOOP('',(#180,#181,#182,#183));
#421=EDGE_LOOP('',(#184,#185,#186,#187));
#422=EDGE_LOOP('',(#188,#189,#190,#191));
#423=EDGE_LOOP('',(#192,#193,#194,#195));
#424=EDGE_LOOP('',(#196,#197,#198,#199));
#425=EDGE_LOOP('',(#200,#201,#202,#203));
#426=EDGE_LOOP('',(#204,#205,#206,#207));
#427=EDGE_LOOP('',(#208,#209,#210,#211,#212,#213,#214,#215));
#428=EDGE_LOOP('',(#216,#217,#218,#219,#220,#221,#222,#223));
#429=EDGE_LOOP('',(#224,#225,#226,#227,#228,#229,#230,#231));
#430=EDGE_LOOP('',(#232,#233,#234,#235));
#431=EDGE_LOOP('',(#236,#237,#238,#239));
#432=EDGE_LOOP('',(#240,#241,#242,#243));
#433=EDGE_LOOP('',(#244,#245,#246,#247));
#434=EDGE_LOOP('',(#248,#249,#250,#251));
#435=EDGE_LOOP('',(#252,#253,#254,#255));
#436=EDGE_LOOP('',(#256,#257,#258,#259));
#437=EDGE_LOOP('',(#260,#261,#262,#263));
#438=FACE_BOUND('',#408,.T.);
#439=FACE_BOUND('',#409,.T.);
#440=FACE_BOUND('',#410,.T.);
#441=FACE_BOUND('',#411,.T.);
#442=FACE_BOUND('',#412,.T.);
#443=FACE_BOUND('',#413,.T.);
#444=FACE_BOUND('',#414,.T.);
#445=FACE_BOUND('',#415,.T.);
#446=FACE_BOUND('',#416,.T.);
#447=FACE_BOUND('',#417,.T.);
#448=FACE_BOUND('',#418,.T.);
#449=FACE_BOUND('',#419,.T.);
#450=FACE_BOUND('',#420,.T.);
#451=FACE_BOUND('',#421,.T.);
#452=FACE_BOUND('',#422,.T.);
#453=FACE_BOUND('',#423,.T.);
#454=FACE_BOUND('',#424,.T.);
#455=FACE_BOUND('',#425,.T.);
#456=FACE_BOUND('',#426,.T.);
#457=FACE_BOUND('',#427,.T.);
#458=FACE_BOUND('',#428,.T.);
#459=FACE_BOUND('',#429,.T.);
#460=FACE_BOUND('',#430,.T.);
#461=FACE_BOUND('',#431,.T.);
#462=FACE_BOUND('',#432,.T.);
#463=FACE_BOUND('',#433,.T.);
#464=FACE_BOUND('',#434,.T.);
#465=FACE_BOUND('',#435,.T.);
#466=FACE_BOUND('',#436,.T.);
#467=FACE_BOUND('',#437,.T.);
#468=PLANE('',#525);
#469=PLANE('',#534);
#470=PLANE('',#537);
#471=PLANE('',#540);
#472=PLANE('',#543);
#473=PLANE('',#546);
#474=PLANE('',#547);
#475=PLANE('',#550);
#476=PLANE('',#553);
#477=PLANE('',#556);
#478=PLANE('',#559);
#479=PLANE('',#564);
#480=PLANE('',#570);
#481=PLANE('',#572);
#482=PLANE('',#574);
#483=PLANE('',#576);
#484=ADVANCED_FACE('',(#438,#439),#468,.T.);
#485=ADVANCED_FACE('',(#440),#469,.T.);
#486=ADVANCED_FACE('',(#441),#12,.F.);
#487=ADVANCED_FACE('',(#442),#470,.T.);
#488=ADVANCED_FACE('',(#443),#13,.F.);
#489=ADVANCED_FACE('',(#444),#471,.F.);
#490=ADVANCED_FACE('',(#445),#14,.F.);
#491=ADVANCED_FACE('',(#446),#472,.F.);
#492=ADVANCED_FACE('',(#447),#15,.F.);
#493=ADVANCED_FACE('',(#448),#473,.T.);
#494=ADVANCED_FACE('',(#449),#474,.F.);
#495=ADVANCED_FACE('',(#450),#16,.T.);
#496=ADVANCED_FACE('',(#451),#475,.F.);
#497=ADVANCED_FACE('',(#452),#17,.T.);
#498=ADVANCED_FACE('',(#453),#476,.T.);
#499=ADVANCED_FACE('',(#454),#18,.T.);
#500=ADVANCED_FACE('',(#455),#477,.T.);
#501=ADVANCED_FACE('',(#456),#19,.T.);
#502=ADVANCED_FACE('',(#457,#458),#478,.F.);
#503=ADVANCED_FACE('',(#459),#479,.F.);
#504=ADVANCED_FACE('',(#460),#20,.T.);
#505=ADVANCED_FACE('',(#461),#480,.F.);
#506=ADVANCED_FACE('',(#462),#21,.T.);
#507=ADVANCED_FACE('',(#463),#481,.T.);
#508=ADVANCED_FACE('',(#464),#22,.T.);
#509=ADVANCED_FACE('',(#465),#482,.T.);
#510=ADVANCED_FACE('',(#466),#23,.T.);
#511=ADVANCED_FACE('',(#467),#483,.F.);
#512=CLOSED_SHELL('',(#484,#485,#486,#487,#488,#489,#490,#491,#492,#493,
#494,#495,#496,#497,#498,#499,#500,#501,#502,#503,#504,#505,#506,#507,#508,
#509,#510,#511));
#513=STYLED_ITEM('',(#514),#521);
#514=PRESENTATION_STYLE_ASSIGNMENT((#515));
#515=SURFACE_STYLE_USAGE(.BOTH.,#516);
#516=SURFACE_SIDE_STYLE('',(#517));
#517=SURFACE_STYLE_FILL_AREA(#518);
#518=FILL_AREA_STYLE('',(#519));
#519=FILL_AREA_STYLE_COLOUR('',#520);
#520=COLOUR_RGB('',0.647058823529412,0.647058823529412,0.647058823529412);
#521=MANIFOLD_SOLID_BREP('Mini Trash Can',#512);
#522=SHAPE_DEFINITION_REPRESENTATION(#886,#523);
#523=SHAPE_REPRESENTATION('Mini Trash Can',(#524),#881);
#524=AXIS2_PLACEMENT_3D('',#731,#577,#578);
#525=AXIS2_PLACEMENT_3D('',#732,#579,#580);
#526=AXIS2_PLACEMENT_3D('',#733,#581,#582);
#527=AXIS2_PLACEMENT_3D('',#738,#584,#585);
#528=AXIS2_PLACEMENT_3D('',#742,#587,#588);
#529=AXIS2_PLACEMENT_3D('',#746,#590,#591);
#530=AXIS2_PLACEMENT_3D('',#752,#594,#595);
#531=AXIS2_PLACEMENT_3D('',#756,#597,#598);
#532=AXIS2_PLACEMENT_3D('',#760,#600,#601);
#533=AXIS2_PLACEMENT_3D('',#764,#603,#604);
#534=AXIS2_PLACEMENT_3D('',#765,#605,#606);
#535=AXIS2_PLACEMENT_3D('',#771,#610,#611);
#536=AXIS2_PLACEMENT_3D('',#774,#613,#614);
#537=AXIS2_PLACEMENT_3D('',#775,#615,#616);
#538=AXIS2_PLACEMENT_3D('',#779,#619,#620);
#539=AXIS2_PLACEMENT_3D('',#782,#622,#623);
#540=AXIS2_PLACEMENT_3D('',#783,#624,#625);
#541=AXIS2_PLACEMENT_3D('',#787,#628,#629);
#542=AXIS2_PLACEMENT_3D('',#790,#631,#632);
#543=AXIS2_PLACEMENT_3D('',#791,#633,#634);
#544=AXIS2_PLACEMENT_3D('',#795,#637,#638);
#545=AXIS2_PLACEMENT_3D('',#796,#639,#640);
#546=AXIS2_PLACEMENT_3D('',#797,#641,#642);
#547=AXIS2_PLACEMENT_3D('',#798,#643,#644);
#548=AXIS2_PLACEMENT_3D('',#804,#648,#649);
#549=AXIS2_PLACEMENT_3D('',#805,#650,#651);
#550=AXIS2_PLACEMENT_3D('',#808,#653,#654);
#551=AXIS2_PLACEMENT_3D('',#812,#657,#658);
#552=AXIS2_PLACEMENT_3D('',#813,#659,#660);
#553=AXIS2_PLACEMENT_3D('',#816,#662,#663);
#554=AXIS2_PLACEMENT_3D('',#820,#666,#667);
#555=AXIS2_PLACEMENT_3D('',#821,#668,#669);
#556=AXIS2_PLACEMENT_3D('',#824,#671,#672);
#557=AXIS2_PLACEMENT_3D('',#828,#675,#676);
#558=AXIS2_PLACEMENT_3D('',#829,#677,#678);
#559=AXIS2_PLACEMENT_3D('',#830,#679,#680);
#560=AXIS2_PLACEMENT_3D('',#831,#681,#682);
#561=AXIS2_PLACEMENT_3D('',#836,#684,#685);
#562=AXIS2_PLACEMENT_3D('',#840,#687,#688);
#563=AXIS2_PLACEMENT_3D('',#844,#690,#691);
#564=AXIS2_PLACEMENT_3D('',#847,#693,#694);
#565=AXIS2_PLACEMENT_3D('',#851,#696,#697);
#566=AXIS2_PLACEMENT_3D('',#855,#699,#700);
#567=AXIS2_PLACEMENT_3D('',#859,#702,#703);
#568=AXIS2_PLACEMENT_3D('',#863,#705,#706);
#569=AXIS2_PLACEMENT_3D('',#864,#707,#708);
#570=AXIS2_PLACEMENT_3D('',#867,#711,#712);
#571=AXIS2_PLACEMENT_3D('',#869,#714,#715);
#572=AXIS2_PLACEMENT_3D('',#871,#717,#718);
#573=AXIS2_PLACEMENT_3D('',#873,#720,#721);
#574=AXIS2_PLACEMENT_3D('',#875,#723,#724);
#575=AXIS2_PLACEMENT_3D('',#877,#726,#727);
#576=AXIS2_PLACEMENT_3D('',#879,#729,#730);
#577=DIRECTION('',(0.,0.,1.));
#578=DIRECTION('',(1.,0.,0.));
#579=DIRECTION('',(0.,0.,1.));
#580=DIRECTION('',(1.,0.,0.));
#581=DIRECTION('',(0.,0.,1.));
#582=DIRECTION('',(1.,0.,0.));
#583=DIRECTION('',(0.,-1.,0.));
#584=DIRECTION('',(0.,0.,1.));
#585=DIRECTION('',(1.,0.,0.));
#586=DIRECTION('',(1.,0.,0.));
#587=DIRECTION('',(0.,0.,1.));
#588=DIRECTION('',(1.,0.,0.));
#589=DIRECTION('',(0.,-1.,0.));
#590=DIRECTION('',(0.,0.,1.));
#591=DIRECTION('',(1.,0.,0.));
#592=DIRECTION('',(1.,0.,0.));
#593=DIRECTION('',(0.,-1.,0.));
#594=DIRECTION('',(0.,0.,1.));
#595=DIRECTION('',(1.,0.,0.));
#596=DIRECTION('',(1.,0.,0.));
#597=DIRECTION('',(0.,0.,1.));
#598=DIRECTION('',(1.,0.,0.));
#599=DIRECTION('',(0.,-1.,0.));
#600=DIRECTION('',(0.,0.,1.));
#601=DIRECTION('',(1.,0.,0.));
#602=DIRECTION('',(1.,0.,0.));
#603=DIRECTION('',(0.,0.,1.));
#604=DIRECTION('',(1.,0.,0.));
#605=DIRECTION('',(-1.,0.,0.));
#606=DIRECTION('',(0.,0.,1.));
#607=DIRECTION('',(0.,0.,1.));
#608=DIRECTION('',(0.,-1.,0.));
#609=DIRECTION('',(0.,0.,1.));
#610=DIRECTION('',(0.,0.,1.));
#611=DIRECTION('',(1.,0.,0.));
#612=DIRECTION('',(0.,0.,1.));
#613=DIRECTION('',(0.,0.,1.));
#614=DIRECTION('',(1.,0.,0.));
#615=DIRECTION('',(0.,-1.,0.));
#616=DIRECTION('',(0.,0.,-1.));
#617=DIRECTION('',(0.,0.,1.));
#618=DIRECTION('',(1.,0.,0.));
#619=DIRECTION('',(0.,0.,1.));
#620=DIRECTION('',(1.,0.,0.));
#621=DIRECTION('',(0.,0.,1.));
#622=DIRECTION('',(0.,0.,1.));
#623=DIRECTION('',(1.,0.,0.));
#624=DIRECTION('',(-1.,0.,0.));
#625=DIRECTION('',(0.,0.,1.));
#626=DIRECTION('',(0.,0.,1.));
#627=DIRECTION('',(0.,-1.,0.));
#628=DIRECTION('',(0.,0.,1.));
#629=DIRECTION('',(1.,0.,0.));
#630=DIRECTION('',(0.,0.,1.));
#631=DIRECTION('',(0.,0.,1.));
#632=DIRECTION('',(1.,0.,0.));
#633=DIRECTION('',(0.,-1.,0.));
#634=DIRECTION('',(0.,0.,-1.));
#635=DIRECTION('',(0.,0.,1.));
#636=DIRECTION('',(1.,0.,0.));
#637=DIRECTION('',(0.,0.,1.));
#638=DIRECTION('',(1.,0.,0.));
#639=DIRECTION('',(0.,0.,1.));
#640=DIRECTION('',(1.,0.,0.));
#641=DIRECTION('',(0.,0.,1.));
#642=DIRECTION('',(1.,0.,0.));
#643=DIRECTION('',(-1.,0.,0.));
#644=DIRECTION('',(0.,0.,1.));
#645=DIRECTION('',(0.,0.,1.));
#646=DIRECTION('',(0.,-1.,0.));
#647=DIRECTION('',(0.,0.,1.));
#648=DIRECTION('',(0.,0.,1.));
#649=DIRECTION('',(1.,0.,0.));
#650=DIRECTION('',(0.,0.,1.));
#651=DIRECTION('',(1.,0.,0.));
#652=DIRECTION('',(0.,0.,1.));
#653=DIRECTION('',(0.,-1.,0.));
#654=DIRECTION('',(0.,0.,-1.));
#655=DIRECTION('',(1.,0.,0.));
#656=DIRECTION('',(0.,0.,1.));
#657=DIRECTION('',(0.,0.,1.));
#658=DIRECTION('',(1.,0.,0.));
#659=DIRECTION('',(0.,0.,1.));
#660=DIRECTION('',(1.,0.,0.));
#661=DIRECTION('',(0.,0.,1.));
#662=DIRECTION('',(-1.,0.,0.));
#663=DIRECTION('',(0.,0.,1.));
#664=DIRECTION('',(0.,-1.,0.));
#665=DIRECTION('',(0.,0.,1.));
#666=DIRECTION('',(0.,0.,1.));
#667=DIRECTION('',(1.,0.,0.));
#668=DIRECTION('',(0.,0.,1.));
#669=DIRECTION('',(1.,0.,0.));
#670=DIRECTION('',(0.,0.,1.));
#671=DIRECTION('',(0.,-1.,0.));
#672=DIRECTION('',(0.,0.,-1.));
#673=DIRECTION('',(1.,0.,0.));
#674=DIRECTION('',(0.,0.,1.));
#675=DIRECTION('',(0.,0.,1.));
#676=DIRECTION('',(1.,0.,0.));
#677=DIRECTION('',(0.,0.,1.));
#678=DIRECTION('',(1.,0.,0.));
#679=DIRECTION('',(0.,0.,1.));
#680=DIRECTION('',(1.,0.,0.));
#681=DIRECTION('',(0.,0.,1.));
#682=DIRECTION('',(1.,0.,0.));
#683=DIRECTION('',(0.,-1.,0.));
#684=DIRECTION('',(0.,0.,1.));
#685=DIRECTION('',(1.,0.,0.));
#686=DIRECTION('',(1.,0.,0.));
#687=DIRECTION('',(0.,0.,1.));
#688=DIRECTION('',(1.,0.,0.));
#689=DIRECTION('',(0.,-1.,0.));
#690=DIRECTION('',(0.,0.,1.));
#691=DIRECTION('',(1.,0.,0.));
#692=DIRECTION('',(1.,0.,0.));
#693=DIRECTION('',(0.,0.,1.));
#694=DIRECTION('',(1.,0.,0.));
#695=DIRECTION('',(1.,0.,0.));
#696=DIRECTION('',(0.,0.,1.));
#697=DIRECTION('',(1.,0.,0.));
#698=DIRECTION('',(0.,-1.,0.));
#699=DIRECTION('',(0.,0.,1.));
#700=DIRECTION('',(1.,0.,0.));
#701=DIRECTION('',(1.,0.,0.));
#702=DIRECTION('',(0.,0.,1.));
#703=DIRECTION('',(1.,0.,0.));
#704=DIRECTION('',(0.,-1.,0.));
#705=DIRECTION('',(0.,0.,1.));
#706=DIRECTION('',(1.,0.,0.));
#707=DIRECTION('',(0.,0.,1.));
#708=DIRECTION('',(1.,0.,0.));
#709=DIRECTION('',(0.,0.,1.));
#710=DIRECTION('',(0.,0.,1.));
#711=DIRECTION('',(-1.,0.,0.));
#712=DIRECTION('',(0.,0.,1.));
#713=DIRECTION('',(0.,0.,1.));
#714=DIRECTION('',(0.,0.,1.));
#715=DIRECTION('',(1.,0.,0.));
#716=DIRECTION('',(0.,0.,1.));
#717=DIRECTION('',(0.,-1.,0.));
#718=DIRECTION('',(0.,0.,-1.));
#719=DIRECTION('',(0.,0.,1.));
#720=DIRECTION('',(0.,0.,1.));
#721=DIRECTION('',(1.,0.,0.));
#722=DIRECTION('',(0.,0.,1.));
#723=DIRECTION('',(-1.,0.,0.));
#724=DIRECTION('',(0.,0.,1.));
#725=DIRECTION('',(0.,0.,1.));
#726=DIRECTION('',(0.,0.,1.));
#727=DIRECTION('',(1.,0.,0.));
#728=DIRECTION('',(0.,0.,1.));
#729=DIRECTION('',(0.,-1.,0.));
#730=DIRECTION('',(0.,0.,-1.));
#731=CARTESIAN_POINT('',(0.,0.,0.));
#732=CARTESIAN_POINT('',(0.,-6.93889390390723E-18,0.));
#733=CARTESIAN_POINT('',(0.0577357951031447,0.0127357951031447,0.));
#734=CARTESIAN_POINT('',(0.07,0.0127357951031447,0.));
#735=CARTESIAN_POINT('',(0.0577357951031447,0.025,0.));
#736=CARTESIAN_POINT('',(0.07,-1.7347234759768E-18,0.));
#737=CARTESIAN_POINT('',(0.07,-0.0127357951031447,0.));
#738=CARTESIAN_POINT('',(0.0577357951031447,-0.0127357951031446,0.));
#739=CARTESIAN_POINT('',(0.0577357951031447,-0.025,0.));
#740=CARTESIAN_POINT('',(0.,-0.025,0.));
#741=CARTESIAN_POINT('',(-0.0577357951031447,-0.025,0.));
#742=CARTESIAN_POINT('',(-0.0577357951031447,-0.0127357951031446,0.));
#743=CARTESIAN_POINT('',(-0.07,-0.0127357951031447,0.));
#744=CARTESIAN_POINT('',(-0.07,3.46944695195361E-18,0.));
#745=CARTESIAN_POINT('',(-0.07,0.0127357951031447,0.));
#746=CARTESIAN_POINT('',(-0.0577357951031447,0.0127357951031447,0.));
#747=CARTESIAN_POINT('',(-0.0577357951031447,0.025,0.));
#748=CARTESIAN_POINT('',(0.,0.025,0.));
#749=CARTESIAN_POINT('',(0.085,0.,0.));
#750=CARTESIAN_POINT('',(0.085,0.0220407939182044,0.));
#751=CARTESIAN_POINT('',(0.085,-0.0220407939182044,0.));
#752=CARTESIAN_POINT('',(0.0727357951031447,0.0220407939182044,0.));
#753=CARTESIAN_POINT('',(0.0727357951031447,0.0343049988150596,0.));
#754=CARTESIAN_POINT('',(0.,0.0343049988150596,0.));
#755=CARTESIAN_POINT('',(-0.0727357951031447,0.0343049988150596,0.));
#756=CARTESIAN_POINT('',(-0.0727357951031447,0.0220407939182044,0.));
#757=CARTESIAN_POINT('',(-0.085,0.0220407939182044,0.));
#758=CARTESIAN_POINT('',(-0.085,-3.46944695195361E-18,0.));
#759=CARTESIAN_POINT('',(-0.085,-0.0220407939182044,0.));
#760=CARTESIAN_POINT('',(-0.0727357951031447,-0.0220407939182044,0.));
#761=CARTESIAN_POINT('',(-0.0727357951031447,-0.0343049988150596,0.));
#762=CARTESIAN_POINT('',(-1.38777878078145E-17,-0.0343049988150596,0.));
#763=CARTESIAN_POINT('',(0.0727357951031447,-0.0343049988150596,0.));
#764=CARTESIAN_POINT('',(0.0727357951031447,-0.0220407939182044,0.));
#765=CARTESIAN_POINT('',(0.07,-1.7347234759768E-18,-0.14732));
#766=CARTESIAN_POINT('',(0.07,0.0127357951031447,-0.14732));
#767=CARTESIAN_POINT('',(0.07,0.0127357951031447,-0.14732));
#768=CARTESIAN_POINT('',(0.07,-1.7347234759768E-18,-0.14732));
#769=CARTESIAN_POINT('',(0.07,-0.0127357951031447,-0.14732));
#770=CARTESIAN_POINT('',(0.07,-0.0127357951031447,-0.14732));
#771=CARTESIAN_POINT('',(0.0577357951031447,0.0127357951031447,-0.14732));
#772=CARTESIAN_POINT('',(0.0577357951031447,0.025,-0.14732));
#773=CARTESIAN_POINT('',(0.0577357951031447,0.025,-0.14732));
#774=CARTESIAN_POINT('',(0.0577357951031447,0.0127357951031447,-0.14732));
#775=CARTESIAN_POINT('',(0.,0.025,-0.14732));
#776=CARTESIAN_POINT('',(-0.0577357951031447,0.025,-0.14732));
#777=CARTESIAN_POINT('',(-0.0577357951031447,0.025,-0.14732));
#778=CARTESIAN_POINT('',(0.,0.025,-0.14732));
#779=CARTESIAN_POINT('',(-0.0577357951031447,0.0127357951031447,-0.14732));
#780=CARTESIAN_POINT('',(-0.07,0.0127357951031447,-0.14732));
#781=CARTESIAN_POINT('',(-0.07,0.0127357951031447,-0.14732));
#782=CARTESIAN_POINT('',(-0.0577357951031447,0.0127357951031447,-0.14732));
#783=CARTESIAN_POINT('',(-0.07,3.46944695195361E-18,-0.14732));
#784=CARTESIAN_POINT('',(-0.07,-0.0127357951031447,-0.14732));
#785=CARTESIAN_POINT('',(-0.07,-0.0127357951031447,-0.14732));
#786=CARTESIAN_POINT('',(-0.07,3.46944695195361E-18,-0.14732));
#787=CARTESIAN_POINT('',(-0.0577357951031447,-0.0127357951031446,-0.14732));
#788=CARTESIAN_POINT('',(-0.0577357951031447,-0.025,-0.14732));
#789=CARTESIAN_POINT('',(-0.0577357951031447,-0.025,-0.14732));
#790=CARTESIAN_POINT('',(-0.0577357951031447,-0.0127357951031446,-0.14732));
#791=CARTESIAN_POINT('',(0.,-0.025,-0.14732));
#792=CARTESIAN_POINT('',(0.0577357951031447,-0.025,-0.14732));
#793=CARTESIAN_POINT('',(0.0577357951031447,-0.025,-0.14732));
#794=CARTESIAN_POINT('',(0.,-0.025,-0.14732));
#795=CARTESIAN_POINT('',(0.0577357951031447,-0.0127357951031446,-0.14732));
#796=CARTESIAN_POINT('',(0.0577357951031447,-0.0127357951031446,-0.14732));
#797=CARTESIAN_POINT('',(0.,-6.93889390390723E-18,-0.14732));
#798=CARTESIAN_POINT('',(0.085,0.,-0.00508));
#799=CARTESIAN_POINT('',(0.085,-0.0220407939182044,-0.00508));
#800=CARTESIAN_POINT('',(0.085,-0.0220407939182044,-0.00508));
#801=CARTESIAN_POINT('',(0.085,0.,-0.00508));
#802=CARTESIAN_POINT('',(0.085,0.0220407939182044,-0.00508));
#803=CARTESIAN_POINT('',(0.085,0.0220407939182044,-0.00508));
#804=CARTESIAN_POINT('',(0.0727357951031447,0.0220407939182044,-0.00508));
#805=CARTESIAN_POINT('',(0.0727357951031447,0.0220407939182044,-0.00508));
#806=CARTESIAN_POINT('',(0.0727357951031447,0.0343049988150596,-0.00508));
#807=CARTESIAN_POINT('',(0.0727357951031447,0.0343049988150596,-0.00508));
#808=CARTESIAN_POINT('',(0.,0.0343049988150596,-0.00508));
#809=CARTESIAN_POINT('',(0.,0.0343049988150596,-0.00508));
#810=CARTESIAN_POINT('',(-0.0727357951031447,0.0343049988150596,-0.00508));
#811=CARTESIAN_POINT('',(-0.0727357951031447,0.0343049988150596,-0.00508));
#812=CARTESIAN_POINT('',(-0.0727357951031447,0.0220407939182044,-0.00508));
#813=CARTESIAN_POINT('',(-0.0727357951031447,0.0220407939182044,-0.00508));
#814=CARTESIAN_POINT('',(-0.085,0.0220407939182044,-0.00508));
#815=CARTESIAN_POINT('',(-0.085,0.0220407939182044,-0.00508));
#816=CARTESIAN_POINT('',(-0.085,-3.46944695195361E-18,-0.00508));
#817=CARTESIAN_POINT('',(-0.085,-3.46944695195361E-18,-0.00508));
#818=CARTESIAN_POINT('',(-0.085,-0.0220407939182044,-0.00508));
#819=CARTESIAN_POINT('',(-0.085,-0.0220407939182044,-0.00508));
#820=CARTESIAN_POINT('',(-0.0727357951031447,-0.0220407939182044,-0.00508));
#821=CARTESIAN_POINT('',(-0.0727357951031447,-0.0220407939182044,-0.00508));
#822=CARTESIAN_POINT('',(-0.0727357951031447,-0.0343049988150596,-0.00508));
#823=CARTESIAN_POINT('',(-0.0727357951031447,-0.0343049988150596,-0.00508));
#824=CARTESIAN_POINT('',(-1.38777878078145E-17,-0.0343049988150596,-0.00508));
#825=CARTESIAN_POINT('',(-1.38777878078145E-17,-0.0343049988150596,-0.00508));
#826=CARTESIAN_POINT('',(0.0727357951031447,-0.0343049988150596,-0.00508));
#827=CARTESIAN_POINT('',(0.0727357951031447,-0.0343049988150596,-0.00508));
#828=CARTESIAN_POINT('',(0.0727357951031447,-0.0220407939182044,-0.00508));
#829=CARTESIAN_POINT('',(0.0727357951031447,-0.0220407939182044,-0.00508));
#830=CARTESIAN_POINT('',(0.,0.,-0.00508));
#831=CARTESIAN_POINT('',(-0.0627357951031447,0.0177357951031447,-0.00508));
#832=CARTESIAN_POINT('',(-0.0627357951031447,0.03,-0.00508));
#833=CARTESIAN_POINT('',(-0.075,0.0177357951031447,-0.00508));
#834=CARTESIAN_POINT('',(-0.075,0.,-0.00508));
#835=CARTESIAN_POINT('',(-0.075,-0.0177357951031447,-0.00508));
#836=CARTESIAN_POINT('',(-0.0627357951031447,-0.0177357951031447,-0.00508));
#837=CARTESIAN_POINT('',(-0.0627357951031447,-0.03,-0.00508));
#838=CARTESIAN_POINT('',(0.,-0.03,-0.00508));
#839=CARTESIAN_POINT('',(0.0627357951031447,-0.03,-0.00508));
#840=CARTESIAN_POINT('',(0.0627357951031447,-0.0177357951031447,-0.00508));
#841=CARTESIAN_POINT('',(0.075,-0.0177357951031447,-0.00508));
#842=CARTESIAN_POINT('',(0.075,0.,-0.00508));
#843=CARTESIAN_POINT('',(0.075,0.0177357951031447,-0.00508000000000006));
#844=CARTESIAN_POINT('',(0.0627357951031447,0.0177357951031447,-0.00508));
#845=CARTESIAN_POINT('',(0.0627357951031447,0.03,-0.00508));
#846=CARTESIAN_POINT('',(0.,0.03,-0.00508));
#847=CARTESIAN_POINT('',(0.,-6.93889390390723E-18,-0.1524));
#848=CARTESIAN_POINT('',(0.,0.03,-0.1524));
#849=CARTESIAN_POINT('',(-0.0627357951031447,0.03,-0.1524));
#850=CARTESIAN_POINT('',(0.0627357951031447,0.03,-0.1524));
#851=CARTESIAN_POINT('',(0.0627357951031447,0.0177357951031447,-0.1524));
#852=CARTESIAN_POINT('',(0.075,0.0177357951031447,-0.1524));
#853=CARTESIAN_POINT('',(0.075,0.,-0.1524));
#854=CARTESIAN_POINT('',(0.075,-0.0177357951031447,-0.1524));
#855=CARTESIAN_POINT('',(0.0627357951031447,-0.0177357951031447,-0.1524));
#856=CARTESIAN_POINT('',(0.0627357951031447,-0.03,-0.1524));
#857=CARTESIAN_POINT('',(0.,-0.03,-0.1524));
#858=CARTESIAN_POINT('',(-0.0627357951031447,-0.03,-0.1524));
#859=CARTESIAN_POINT('',(-0.0627357951031447,-0.0177357951031447,-0.1524));
#860=CARTESIAN_POINT('',(-0.075,-0.0177357951031447,-0.1524));
#861=CARTESIAN_POINT('',(-0.075,0.,-0.1524));
#862=CARTESIAN_POINT('',(-0.075,0.0177357951031447,-0.1524));
#863=CARTESIAN_POINT('',(-0.0627357951031447,0.0177357951031447,-0.1524));
#864=CARTESIAN_POINT('',(0.0627357951031447,0.0177357951031447,-0.1524));
#865=CARTESIAN_POINT('',(0.0627357951031447,0.03,-0.1524));
#866=CARTESIAN_POINT('',(0.075,0.0177357951031447,-0.1524));
#867=CARTESIAN_POINT('',(0.075,0.,-0.1524));
#868=CARTESIAN_POINT('',(0.075,-0.0177357951031447,-0.1524));
#869=CARTESIAN_POINT('',(0.0627357951031447,-0.0177357951031447,-0.1524));
#870=CARTESIAN_POINT('',(0.0627357951031447,-0.03,-0.1524));
#871=CARTESIAN_POINT('',(0.,-0.03,-0.1524));
#872=CARTESIAN_POINT('',(-0.0627357951031447,-0.03,-0.1524));
#873=CARTESIAN_POINT('',(-0.0627357951031447,-0.0177357951031447,-0.1524));
#874=CARTESIAN_POINT('',(-0.075,-0.0177357951031447,-0.1524));
#875=CARTESIAN_POINT('',(-0.075,0.,-0.1524));
#876=CARTESIAN_POINT('',(-0.075,0.0177357951031447,-0.1524));
#877=CARTESIAN_POINT('',(-0.0627357951031447,0.0177357951031447,-0.1524));
#878=CARTESIAN_POINT('',(-0.0627357951031447,0.03,-0.1524));
#879=CARTESIAN_POINT('',(0.,0.03,-0.1524));
#880=MECHANICAL_DESIGN_GEOMETRIC_PRESENTATION_REPRESENTATION('',(#513),
#881);
#881=(
GEOMETRIC_REPRESENTATION_CONTEXT(3)
GLOBAL_UNCERTAINTY_ASSIGNED_CONTEXT((#882))
GLOBAL_UNIT_ASSIGNED_CONTEXT((#885,#884,#883))
REPRESENTATION_CONTEXT('Mini Trash Can','TOP_LEVEL_ASSEMBLY_PART')
);
#882=UNCERTAINTY_MEASURE_WITH_UNIT(LENGTH_MEASURE(1.E-8),#885,
'DISTANCE_ACCURACY_VALUE','Maximum Tolerance applied to model');
#883=(
NAMED_UNIT(*)
SI_UNIT($,.STERADIAN.)
SOLID_ANGLE_UNIT()
);
#884=(
NAMED_UNIT(*)
PLANE_ANGLE_UNIT()
SI_UNIT($,.RADIAN.)
);
#885=(
LENGTH_UNIT()
NAMED_UNIT(*)
SI_UNIT($,.METRE.)
);
#886=PRODUCT_DEFINITION_SHAPE('','',#887);
#887=PRODUCT_DEFINITION('','',#889,#888);
#888=PRODUCT_DEFINITION_CONTEXT('',#895,'design');
#889=PRODUCT_DEFINITION_FORMATION_WITH_SPECIFIED_SOURCE('','',#891,
 .NOT_KNOWN.);
#890=PRODUCT_RELATED_PRODUCT_CATEGORY('','',(#891));
#891=PRODUCT('Mini Trash Can','Mini Trash Can','Mini Trash Can',(#893));
#892=PRODUCT_CATEGORY('','');
#893=PRODUCT_CONTEXT('',#895,'mechanical');
#894=APPLICATION_PROTOCOL_DEFINITION('international standard',
'ap242_managed_model_based_3d_engineering',2020,#895);
#895=APPLICATION_CONTEXT('managed model based 3d engineering');
ENDSEC;
END-ISO-10303-21;
