ISO-10303-21;
HEADER;
/* Generated by software containing ST-Developer
 * from STEP Tools, Inc. (www.steptools.com) 
 */
/* OPTION: using custom renumber hook */

FILE_DESCRIPTION(
/* description */ ('STEP AP242 Edition 2',
'CAx-IF Rec.Pracs.---Representation and Presentation of Product Manufa
cturing Information (PMI)---4.0---2014-10-13',
'CAx-IF Rec.Pracs.---3D Tessellated Geometry---0.4---2014-09-14','2;1',
'CAx-IF Rec.Pracs.---User Defined Attributes---1.5---2016-08-15'),
/* implementation_level */ '2;1');

FILE_NAME(
/* name */ 'Part Studio 1 - Tray',
/* time_stamp */ '2026-08-05T21:19:22Z',
/* author */ (''),
/* organization */ (''),
/* preprocessor_version */ 'ST-DEVELOPER v20',
/* originating_system */ 'ONSHAPE BY PTC INC, 1.218',
/* authorisation */ '  ');

FILE_SCHEMA (('AP242_MANAGED_MODEL_BASED_3D_ENGINEERING_MIM_LF { 1 0 10303 442 3 1 4 }'));
ENDSEC;

DATA;
#10=SHAPE_REPRESENTATION_RELATIONSHIP('','',#637,#11);
#11=ADVANCED_BREP_SHAPE_REPRESENTATION('',(#635),#1407);
#12=CYLINDRICAL_SURFACE('',#652,0.0014);
#13=CYLINDRICAL_SURFACE('',#654,0.0014);
#14=CYLINDRICAL_SURFACE('',#658,0.0014);
#15=CYLINDRICAL_SURFACE('',#660,0.0014);
#16=CYLINDRICAL_SURFACE('',#662,0.0014);
#17=CYLINDRICAL_SURFACE('',#667,0.0014);
#18=CYLINDRICAL_SURFACE('',#669,0.0014);
#19=CYLINDRICAL_SURFACE('',#673,0.0014);
#20=CIRCLE('',#650,0.0014);
#21=CIRCLE('',#651,0.0014);
#22=CIRCLE('',#653,0.0014);
#23=CIRCLE('',#655,0.0014);
#24=CIRCLE('',#656,0.0014);
#25=CIRCLE('',#657,0.0014);
#26=CIRCLE('',#659,0.0014);
#27=CIRCLE('',#661,0.0014);
#28=CIRCLE('',#663,0.0014);
#29=CIRCLE('',#664,0.0014);
#30=CIRCLE('',#665,0.0014);
#31=CIRCLE('',#666,0.0014);
#32=CIRCLE('',#668,0.0014);
#33=CIRCLE('',#670,0.0014);
#34=CIRCLE('',#671,0.0014);
#35=CIRCLE('',#672,0.0014);
#36=CIRCLE('',#674,0.0014);
#37=CIRCLE('',#675,0.0014);
#38=(
BOUNDED_SURFACE()
B_SPLINE_SURFACE(3,2,((#1152,#1153,#1154),(#1155,#1156,#1157),(#1158,#1159,
#1160),(#1161,#1162,#1163),(#1164,#1165,#1166),(#1167,#1168,#1169),(#1170,
#1171,#1172)),.UNSPECIFIED.,.F.,.F.,.F.)
B_SPLINE_SURFACE_WITH_KNOTS((4,1,1,1,4),(3,3),(-8.06646416329215E-17,0.00356128660707444,
0.00712257321414897,0.0106838598212235,0.014245146428298),(0.,1.),
 .UNSPECIFIED.)
GEOMETRIC_REPRESENTATION_ITEM()
RATIONAL_B_SPLINE_SURFACE(((1.,0.707106781186548,1.),(1.,0.707106781186548,
1.),(1.,0.707106781186547,1.),(1.,0.707106781186548,1.),(1.,0.707106781186547,
1.),(1.,0.707106781186549,1.),(1.,0.707106781186549,1.)))
REPRESENTATION_ITEM('')
SURFACE()
);
#39=(
BOUNDED_SURFACE()
B_SPLINE_SURFACE(3,2,((#1179,#1180,#1181),(#1182,#1183,#1184),(#1185,#1186,
#1187),(#1188,#1189,#1190),(#1191,#1192,#1193),(#1194,#1195,#1196),(#1197,
#1198,#1199)),.UNSPECIFIED.,.F.,.F.,.F.)
B_SPLINE_SURFACE_WITH_KNOTS((4,1,1,1,4),(3,3),(-1.20996962449382E-16,0.00356128660707436,
0.00712257321414884,0.0106838598212233,0.0142451464282978),(0.,1.),
 .UNSPECIFIED.)
GEOMETRIC_REPRESENTATION_ITEM()
RATIONAL_B_SPLINE_SURFACE(((1.,0.707106781186549,1.),(1.,0.707106781186549,
1.),(1.,0.707106781186547,1.),(1.,0.707106781186548,1.),(1.,0.707106781186547,
1.),(1.,0.707106781186548,1.),(1.,0.707106781186548,1.)))
REPRESENTATION_ITEM('')
SURFACE()
);
#40=(
BOUNDED_SURFACE()
B_SPLINE_SURFACE(3,2,((#1201,#1202,#1203),(#1204,#1205,#1206),(#1207,#1208,
#1209),(#1210,#1211,#1212),(#1213,#1214,#1215),(#1216,#1217,#1218),(#1219,
#1220,#1221)),.UNSPECIFIED.,.F.,.F.,.F.)
B_SPLINE_SURFACE_WITH_KNOTS((4,1,1,1,4),(3,3),(-1.09721259855533E-16,0.00356128660707432,
0.00712257321414874,0.0106838598212232,0.0142451464282976),(0.,1.),
 .UNSPECIFIED.)
GEOMETRIC_REPRESENTATION_ITEM()
RATIONAL_B_SPLINE_SURFACE(((1.,0.707106781186542,1.),(1.,0.707106781186542,
1.),(1.,0.70710678118655,1.),(1.,0.707106781186548,1.),(1.,0.707106781186544,
1.),(1.,0.707106781186548,1.),(1.,0.707106781186548,1.)))
REPRESENTATION_ITEM('')
SURFACE()
);
#41=(
BOUNDED_SURFACE()
B_SPLINE_SURFACE(3,2,((#1227,#1228,#1229),(#1230,#1231,#1232),(#1233,#1234,
#1235),(#1236,#1237,#1238),(#1239,#1240,#1241),(#1242,#1243,#1244),(#1245,
#1246,#1247)),.UNSPECIFIED.,.F.,.F.,.F.)
B_SPLINE_SURFACE_WITH_KNOTS((4,1,1,1,4),(3,3),(-7.45931094670027E-17,0.00356128660707438,
0.00712257321414883,0.0106838598212233,0.0142451464282977),(0.,1.),
 .UNSPECIFIED.)
GEOMETRIC_REPRESENTATION_ITEM()
RATIONAL_B_SPLINE_SURFACE(((1.,0.707106781186549,1.),(1.,0.707106781186549,
1.),(1.,0.707106781186532,1.),(1.,0.707106781186559,1.),(1.,0.707106781186547,
1.),(1.,0.707106781186541,1.),(1.,0.707106781186542,1.)))
REPRESENTATION_ITEM('')
SURFACE()
);
#42=(
BOUNDED_SURFACE()
B_SPLINE_SURFACE(3,2,((#1251,#1252,#1253),(#1254,#1255,#1256),(#1257,#1258,
#1259),(#1260,#1261,#1262),(#1263,#1264,#1265),(#1266,#1267,#1268),(#1269,
#1270,#1271),(#1272,#1273,#1274),(#1275,#1276,#1277),(#1278,#1279,#1280),
(#1281,#1282,#1283)),.UNSPECIFIED.,.F.,.F.,.F.)
B_SPLINE_SURFACE_WITH_KNOTS((4,1,1,1,1,1,1,1,4),(3,3),(-2.39391839684799E-16,
0.0027517147280427,0.00550342945608564,0.00825514418412858,0.0110068589121715,
0.0137585736402145,0.0165102883682574,0.0192620030963003,0.0220137178243433),
(0.,1.),.UNSPECIFIED.)
GEOMETRIC_REPRESENTATION_ITEM()
RATIONAL_B_SPLINE_SURFACE(((1.,0.707106781186549,1.),(1.,0.707106781186549,
1.),(1.,0.707106781186533,1.),(1.,0.707106781186552,1.),(1.,0.707106781186547,
1.),(1.,0.707106781186545,1.),(1.,0.707106781186558,1.),(1.,0.707106781186546,
1.),(1.,0.707106781186546,1.),(1.,0.707106781186555,1.),(1.,0.707106781186555,
1.)))
REPRESENTATION_ITEM('')
SURFACE()
);
#43=(
BOUNDED_SURFACE()
B_SPLINE_SURFACE(3,2,((#1285,#1286,#1287),(#1288,#1289,#1290),(#1291,#1292,
#1293),(#1294,#1295,#1296),(#1297,#1298,#1299),(#1300,#1301,#1302),(#1303,
#1304,#1305),(#1306,#1307,#1308),(#1309,#1310,#1311),(#1312,#1313,#1314),
(#1315,#1316,#1317)),.UNSPECIFIED.,.F.,.F.,.F.)
B_SPLINE_SURFACE_WITH_KNOTS((4,1,1,1,1,1,1,1,4),(3,3),(-1.92554305833426E-16,
0.00275171472804272,0.00550342945608564,0.00825514418412856,0.0110068589121715,
0.0137585736402144,0.0165102883682573,0.0192620030963002,0.0220137178243431),
(0.,1.),.UNSPECIFIED.)
GEOMETRIC_REPRESENTATION_ITEM()
RATIONAL_B_SPLINE_SURFACE(((1.,0.707106781186555,1.),(1.,0.707106781186555,
1.),(1.,0.707106781186543,1.),(1.,0.707106781186551,1.),(1.,0.707106781186537,
1.),(1.,0.707106781186549,1.),(1.,0.707106781186553,1.),(1.,0.707106781186545,
1.),(1.,0.707106781186554,1.),(1.,0.707106781186534,1.),(1.,0.707106781186534,
1.)))
REPRESENTATION_ITEM('')
SURFACE()
);
#44=(
BOUNDED_SURFACE()
B_SPLINE_SURFACE(3,2,((#1323,#1324,#1325),(#1326,#1327,#1328),(#1329,#1330,
#1331),(#1332,#1333,#1334),(#1335,#1336,#1337),(#1338,#1339,#1340),(#1341,
#1342,#1343),(#1344,#1345,#1346),(#1347,#1348,#1349),(#1350,#1351,#1352),
(#1353,#1354,#1355)),.UNSPECIFIED.,.F.,.F.,.F.)
B_SPLINE_SURFACE_WITH_KNOTS((4,1,1,1,1,1,1,1,4),(3,3),(-1.59594559789866E-16,
0.00275171472804279,0.00550342945608575,0.0082551441841287,0.0110068589121717,
0.0137585736402146,0.0165102883682576,0.0192620030963005,0.0220137178243435),
(0.,1.),.UNSPECIFIED.)
GEOMETRIC_REPRESENTATION_ITEM()
RATIONAL_B_SPLINE_SURFACE(((1.,0.707106781186548,1.),(1.,0.707106781186548,
1.),(1.,0.707106781186554,1.),(1.,0.707106781186545,1.),(1.,0.707106781186554,
1.),(1.,0.707106781186544,1.),(1.,0.707106781186556,1.),(1.,0.707106781186556,
1.),(1.,0.707106781186545,1.),(1.,0.707106781186548,1.),(1.,0.707106781186548,
1.)))
REPRESENTATION_ITEM('')
SURFACE()
);
#45=(
BOUNDED_SURFACE()
B_SPLINE_SURFACE(3,2,((#1357,#1358,#1359),(#1360,#1361,#1362),(#1363,#1364,
#1365),(#1366,#1367,#1368),(#1369,#1370,#1371)),.UNSPECIFIED.,.F.,.F.,.F.)
B_SPLINE_SURFACE_WITH_KNOTS((4,1,4),(3,3),(-1.30971622436249E-16,0.00355428551844653,
0.00710857103689318),(0.,1.),.UNSPECIFIED.)
GEOMETRIC_REPRESENTATION_ITEM()
RATIONAL_B_SPLINE_SURFACE(((1.,0.707106781186534,1.),(1.,0.707106781186534,
1.),(1.,0.70710678118656,1.),(1.,0.707106781186535,1.),(1.,0.707106781186536,
1.)))
REPRESENTATION_ITEM('')
SURFACE()
);
#46=(
BOUNDED_SURFACE()
B_SPLINE_SURFACE(3,2,((#1375,#1376,#1377),(#1378,#1379,#1380),(#1381,#1382,
#1383),(#1384,#1385,#1386),(#1387,#1388,#1389)),.UNSPECIFIED.,.F.,.F.,.F.)
B_SPLINE_SURFACE_WITH_KNOTS((4,1,4),(3,3),(9.71445146547012E-17,0.00396701549442117,
0.00793403098884224),(0.,1.),.UNSPECIFIED.)
GEOMETRIC_REPRESENTATION_ITEM()
RATIONAL_B_SPLINE_SURFACE(((1.,0.707106781186535,1.),(1.,0.707106781186535,
1.),(1.,0.707106781186553,1.),(1.,0.707106781186548,1.),(1.,0.707106781186548,
1.)))
REPRESENTATION_ITEM('')
SURFACE()
);
#47=(
BOUNDED_SURFACE()
B_SPLINE_SURFACE(3,2,((#1391,#1392,#1393),(#1394,#1395,#1396),(#1397,#1398,
#1399),(#1400,#1401,#1402),(#1403,#1404,#1405)),.UNSPECIFIED.,.F.,.F.,.F.)
B_SPLINE_SURFACE_WITH_KNOTS((4,1,4),(3,3),(6.15826833971767E-17,0.00354828097165883,
0.00709656194331759),(0.,1.),.UNSPECIFIED.)
GEOMETRIC_REPRESENTATION_ITEM()
RATIONAL_B_SPLINE_SURFACE(((1.,0.707106781186549,1.),(1.,0.707106781186548,
1.),(1.,0.70710678118654,1.),(1.,0.707106781186548,1.),(1.,0.707106781186549,
1.)))
REPRESENTATION_ITEM('')
SURFACE()
);
#48=B_SPLINE_SURFACE_WITH_KNOTS('',3,1,((#890,#891),(#892,#893),(#894,#895),
(#896,#897)),.SURF_OF_LINEAR_EXTRUSION.,.F.,.F.,.F.,(4,4),(2,2),(0.,0.292893218817601),
(0.,1.),.PIECEWISE_BEZIER_KNOTS.);
#49=B_SPLINE_SURFACE_WITH_KNOTS('',3,1,((#911,#912),(#913,#914),(#915,#916),
(#917,#918)),.SURF_OF_LINEAR_EXTRUSION.,.F.,.F.,.F.,(4,4),(2,2),(0.292893218817601,
0.707106781182399),(0.,1.),.PIECEWISE_BEZIER_KNOTS.);
#50=B_SPLINE_SURFACE_WITH_KNOTS('',3,1,((#930,#931),(#932,#933),(#934,#935),
(#936,#937)),.SURF_OF_LINEAR_EXTRUSION.,.F.,.F.,.F.,(4,4),(2,2),(0.707106781182399,
1.),(0.,1.),.PIECEWISE_BEZIER_KNOTS.);
#51=B_SPLINE_SURFACE_WITH_KNOTS('',3,1,((#954,#955),(#956,#957),(#958,#959),
(#960,#961)),.SURF_OF_LINEAR_EXTRUSION.,.F.,.F.,.F.,(4,4),(2,2),(0.,1.),
(0.,1.),.PIECEWISE_BEZIER_KNOTS.);
#52=B_SPLINE_SURFACE_WITH_KNOTS('',3,1,((#983,#984),(#985,#986),(#987,#988),
(#989,#990)),.SURF_OF_LINEAR_EXTRUSION.,.F.,.F.,.F.,(4,4),(2,2),(0.,1.),
(0.,1.),.PIECEWISE_BEZIER_KNOTS.);
#53=B_SPLINE_SURFACE_WITH_KNOTS('',3,1,((#1012,#1013),(#1014,#1015),(#1016,
#1017),(#1018,#1019)),.SURF_OF_LINEAR_EXTRUSION.,.F.,.F.,.F.,(4,4),(2,2),
(0.,1.),(0.,1.),.PIECEWISE_BEZIER_KNOTS.);
#54=B_SPLINE_SURFACE_WITH_KNOTS('',3,1,((#1039,#1040),(#1041,#1042),(#1043,
#1044),(#1045,#1046)),.SURF_OF_LINEAR_EXTRUSION.,.F.,.F.,.F.,(4,4),(2,2),
(0.,1.),(0.,1.),.PIECEWISE_BEZIER_KNOTS.);
#55=B_SPLINE_SURFACE_WITH_KNOTS('',3,1,((#1070,#1071),(#1072,#1073),(#1074,
#1075),(#1076,#1077)),.SURF_OF_LINEAR_EXTRUSION.,.F.,.F.,.F.,(4,4),(2,2),
(0.,1.),(0.,1.),.PIECEWISE_BEZIER_KNOTS.);
#56=B_SPLINE_SURFACE_WITH_KNOTS('',3,1,((#1098,#1099),(#1100,#1101),(#1102,
#1103),(#1104,#1105)),.SURF_OF_LINEAR_EXTRUSION.,.F.,.F.,.F.,(4,4),(2,2),
(0.,1.),(0.,1.),.PIECEWISE_BEZIER_KNOTS.);
#57=B_SPLINE_SURFACE_WITH_KNOTS('',3,1,((#1126,#1127),(#1128,#1129),(#1130,
#1131),(#1132,#1133)),.SURF_OF_LINEAR_EXTRUSION.,.F.,.F.,.F.,(4,4),(2,2),
(0.,1.),(0.,1.),.PIECEWISE_BEZIER_KNOTS.);
#58=B_SPLINE_CURVE_WITH_KNOTS('',3,(#799,#800,#801,#802,#803,#804,#805),
 .UNSPECIFIED.,.F.,.F.,(4,1,1,1,4),(0.,0.00356128660707449,0.00712257321414897,
0.0106838598212235,0.0142451464282979),.UNSPECIFIED.);
#59=B_SPLINE_CURVE_WITH_KNOTS('',3,(#809,#810,#811,#812,#813,#814,#815),
 .UNSPECIFIED.,.F.,.F.,(4,1,1,1,4),(0.,0.00356128660707443,0.00712257321414885,
0.0106838598212233,0.0142451464282977),.UNSPECIFIED.);
#60=B_SPLINE_CURVE_WITH_KNOTS('',3,(#819,#820,#821,#822,#823,#824,#825),
 .UNSPECIFIED.,.F.,.F.,(4,1,1,1,4),(0.,0.00356128660707456,0.00712257321414912,
0.0106838598212237,0.0142451464282982),.UNSPECIFIED.);
#61=B_SPLINE_CURVE_WITH_KNOTS('',3,(#829,#830,#831,#832,#833,#834,#835),
 .UNSPECIFIED.,.F.,.F.,(4,1,1,1,4),(0.,0.00356128660707454,0.00712257321414908,
0.0106838598212236,0.0142451464282982),.UNSPECIFIED.);
#62=B_SPLINE_CURVE_WITH_KNOTS('',3,(#839,#840,#841,#842),.UNSPECIFIED.,
 .F.,.F.,(4,4),(0.,0.00710825994308469),.UNSPECIFIED.);
#63=B_SPLINE_CURVE_WITH_KNOTS('',3,(#844,#845,#846,#847,#848),
 .UNSPECIFIED.,.F.,.F.,(4,1,4),(0.,0.00396364091606812,0.00792728183213624),
 .UNSPECIFIED.);
#64=B_SPLINE_CURVE_WITH_KNOTS('',3,(#850,#851,#852,#853),.UNSPECIFIED.,
 .F.,.F.,(4,4),(0.,0.00709605759368467),.UNSPECIFIED.);
#65=B_SPLINE_CURVE_WITH_KNOTS('',3,(#857,#858,#859,#860,#861,#862,#863,
#864,#865),.UNSPECIFIED.,.F.,.F.,(4,1,1,1,1,1,4),(0.,0.00552479134798483,
0.00828718702197724,0.0110495826959697,0.0138119783699621,0.0165743740439545,
0.0220991653919393),.UNSPECIFIED.);
#66=B_SPLINE_CURVE_WITH_KNOTS('',3,(#869,#870,#871,#872,#873,#874,#875,
#876,#877),.UNSPECIFIED.,.F.,.F.,(4,1,1,1,1,1,4),(0.,0.00552479134798495,
0.00828718702197743,0.0110495826959699,0.0138119783699624,0.0165743740439549,
0.0220991653919398),.UNSPECIFIED.);
#67=B_SPLINE_CURVE_WITH_KNOTS('',3,(#881,#882,#883,#884,#885,#886,#887,
#888,#889),.UNSPECIFIED.,.F.,.F.,(4,1,1,1,1,1,4),(0.,0.00552479134798492,
0.00828718702197738,0.0110495826959698,0.0138119783699623,0.0165743740439548,
0.0220991653919397),.UNSPECIFIED.);
#68=B_SPLINE_CURVE_WITH_KNOTS('',3,(#901,#902,#903,#904),.UNSPECIFIED.,
 .F.,.F.,(4,4),(-5.99999998861429E-8,0.00764512723675391),.UNSPECIFIED.);
#69=B_SPLINE_CURVE_WITH_KNOTS('',2,(#908,#909,#910),.UNSPECIFIED.,.F.,.F.,
(3,3),(0.,0.292893218817601),.PIECEWISE_BEZIER_KNOTS.);
#70=B_SPLINE_CURVE_WITH_KNOTS('',3,(#922,#923,#924,#925,#926),
 .UNSPECIFIED.,.F.,.F.,(4,1,4),(-6.00000002192976E-8,0.00451704876147696,
0.00903415752295413),.UNSPECIFIED.);
#71=B_SPLINE_CURVE_WITH_KNOTS('',2,(#927,#928,#929),.UNSPECIFIED.,.F.,.F.,
(3,3),(0.292893218817601,0.707106781182399),.PIECEWISE_BEZIER_KNOTS.);
#72=B_SPLINE_CURVE_WITH_KNOTS('',3,(#941,#942,#943,#944),.UNSPECIFIED.,
 .F.,.F.,(4,4),(-5.99999999962042E-8,0.00765856369738146),.UNSPECIFIED.);
#73=B_SPLINE_CURVE_WITH_KNOTS('',2,(#945,#946,#947),.UNSPECIFIED.,.F.,.F.,
(3,3),(0.707106781182399,1.),.PIECEWISE_BEZIER_KNOTS.);
#74=B_SPLINE_CURVE_WITH_KNOTS('',3,(#965,#966,#967,#968,#969,#970,#971,
#972,#973),.UNSPECIFIED.,.F.,.F.,(4,1,1,1,1,1,4),(-5.99999999684487E-8,
0.00604373407698647,0.00906563111547969,0.0120875281539729,0.0151094251924661,
0.0181313222309593,0.0241751163079458),.UNSPECIFIED.);
#75=B_SPLINE_CURVE_WITH_KNOTS('',2,(#974,#975,#976),.UNSPECIFIED.,.F.,.F.,
(3,3),(0.,1.),.PIECEWISE_BEZIER_KNOTS.);
#76=B_SPLINE_CURVE_WITH_KNOTS('',3,(#994,#995,#996,#997,#998,#999,#1000,
#1001,#1002),.UNSPECIFIED.,.F.,.F.,(4,1,1,1,1,1,4),(-5.99999999962042E-8,
0.00604373407698638,0.00906563111547956,0.0120875281539727,0.0151094251924659,
0.0181313222309591,0.0241751163079455),.UNSPECIFIED.);
#77=B_SPLINE_CURVE_WITH_KNOTS('',2,(#1003,#1004,#1005),.UNSPECIFIED.,.F.,
 .F.,(3,3),(0.,1.),.PIECEWISE_BEZIER_KNOTS.);
#78=B_SPLINE_CURVE_WITH_KNOTS('',3,(#1023,#1024,#1025,#1026,#1027,#1028,
#1029,#1030,#1031),.UNSPECIFIED.,.F.,.F.,(4,1,1,1,1,1,4),(-5.99999999962042E-8,
0.00604373407698643,0.00906563111547965,0.0120875281539729,0.0151094251924661,
0.0181313222309593,0.0241751163079457),.UNSPECIFIED.);
#79=B_SPLINE_CURVE_WITH_KNOTS('',2,(#1032,#1033,#1034),.UNSPECIFIED.,.F.,
 .F.,(3,3),(0.,1.),.PIECEWISE_BEZIER_KNOTS.);
#80=B_SPLINE_CURVE_WITH_KNOTS('',3,(#1050,#1051,#1052,#1053,#1054,#1055,
#1056,#1057),.UNSPECIFIED.,.F.,.F.,(4,1,1,1,1,4),(-5.99999999962942E-8,
0.00303457625022928,0.00606921250045855,0.00758653062557319,0.00910384875068783,
0.0121384850009171),.UNSPECIFIED.);
#81=B_SPLINE_CURVE_WITH_KNOTS('',2,(#1061,#1062,#1063),.UNSPECIFIED.,.F.,
 .F.,(3,3),(0.,1.),.PIECEWISE_BEZIER_KNOTS.);
#82=B_SPLINE_CURVE_WITH_KNOTS('',3,(#1078,#1079,#1080,#1081,#1082,#1083,
#1084,#1085),.UNSPECIFIED.,.F.,.F.,(4,1,1,1,1,4),(-6.00000000240498E-8,
0.0030345762502292,0.00606921250045843,0.00758653062557304,0.00910384875068766,
0.0121384850009169),.UNSPECIFIED.);
#83=B_SPLINE_CURVE_WITH_KNOTS('',2,(#1089,#1090,#1091),.UNSPECIFIED.,.F.,
 .F.,(3,3),(0.,1.),.PIECEWISE_BEZIER_KNOTS.);
#84=B_SPLINE_CURVE_WITH_KNOTS('',3,(#1106,#1107,#1108,#1109,#1110,#1111,
#1112,#1113),.UNSPECIFIED.,.F.,.F.,(4,1,1,1,1,4),(-5.99999999685387E-8,
0.00303457625022917,0.00606921250045831,0.00758653062557288,0.00910384875068745,
0.0121384850009166),.UNSPECIFIED.);
#85=B_SPLINE_CURVE_WITH_KNOTS('',2,(#1117,#1118,#1119),.UNSPECIFIED.,.F.,
 .F.,(3,3),(0.,1.),.PIECEWISE_BEZIER_KNOTS.);
#86=B_SPLINE_CURVE_WITH_KNOTS('',3,(#1134,#1135,#1136,#1137,#1138,#1139,
#1140,#1141),.UNSPECIFIED.,.F.,.F.,(4,1,1,1,1,4),(-5.99999999962943E-8,
0.00303457625022912,0.00606921250045823,0.00758653062557279,0.00910384875068735,
0.0121384850009165),.UNSPECIFIED.);
#87=B_SPLINE_CURVE_WITH_KNOTS('',2,(#1145,#1146,#1147),.UNSPECIFIED.,.F.,
 .F.,(3,3),(0.,1.),.PIECEWISE_BEZIER_KNOTS.);
#88=ORIENTED_EDGE('',*,*,#268,.T.);
#89=ORIENTED_EDGE('',*,*,#269,.T.);
#90=ORIENTED_EDGE('',*,*,#270,.T.);
#91=ORIENTED_EDGE('',*,*,#271,.T.);
#92=ORIENTED_EDGE('',*,*,#272,.T.);
#93=ORIENTED_EDGE('',*,*,#273,.T.);
#94=ORIENTED_EDGE('',*,*,#274,.T.);
#95=ORIENTED_EDGE('',*,*,#275,.T.);
#96=ORIENTED_EDGE('',*,*,#276,.T.);
#97=ORIENTED_EDGE('',*,*,#277,.T.);
#98=ORIENTED_EDGE('',*,*,#278,.T.);
#99=ORIENTED_EDGE('',*,*,#279,.T.);
#100=ORIENTED_EDGE('',*,*,#280,.T.);
#101=ORIENTED_EDGE('',*,*,#281,.T.);
#102=ORIENTED_EDGE('',*,*,#282,.T.);
#103=ORIENTED_EDGE('',*,*,#283,.T.);
#104=ORIENTED_EDGE('',*,*,#284,.T.);
#105=ORIENTED_EDGE('',*,*,#285,.T.);
#106=ORIENTED_EDGE('',*,*,#286,.F.);
#107=ORIENTED_EDGE('',*,*,#287,.T.);
#108=ORIENTED_EDGE('',*,*,#288,.T.);
#109=ORIENTED_EDGE('',*,*,#289,.T.);
#110=ORIENTED_EDGE('',*,*,#290,.F.);
#111=ORIENTED_EDGE('',*,*,#291,.T.);
#112=ORIENTED_EDGE('',*,*,#286,.T.);
#113=ORIENTED_EDGE('',*,*,#292,.T.);
#114=ORIENTED_EDGE('',*,*,#293,.F.);
#115=ORIENTED_EDGE('',*,*,#294,.T.);
#116=ORIENTED_EDGE('',*,*,#290,.T.);
#117=ORIENTED_EDGE('',*,*,#295,.T.);
#118=ORIENTED_EDGE('',*,*,#296,.F.);
#119=ORIENTED_EDGE('',*,*,#297,.T.);
#120=ORIENTED_EDGE('',*,*,#293,.T.);
#121=ORIENTED_EDGE('',*,*,#298,.T.);
#122=ORIENTED_EDGE('',*,*,#299,.F.);
#123=ORIENTED_EDGE('',*,*,#300,.T.);
#124=ORIENTED_EDGE('',*,*,#296,.T.);
#125=ORIENTED_EDGE('',*,*,#301,.T.);
#126=ORIENTED_EDGE('',*,*,#302,.F.);
#127=ORIENTED_EDGE('',*,*,#303,.T.);
#128=ORIENTED_EDGE('',*,*,#299,.T.);
#129=ORIENTED_EDGE('',*,*,#304,.T.);
#130=ORIENTED_EDGE('',*,*,#305,.F.);
#131=ORIENTED_EDGE('',*,*,#306,.T.);
#132=ORIENTED_EDGE('',*,*,#302,.T.);
#133=ORIENTED_EDGE('',*,*,#307,.F.);
#134=ORIENTED_EDGE('',*,*,#308,.F.);
#135=ORIENTED_EDGE('',*,*,#309,.T.);
#136=ORIENTED_EDGE('',*,*,#305,.T.);
#137=ORIENTED_EDGE('',*,*,#310,.F.);
#138=ORIENTED_EDGE('',*,*,#311,.F.);
#139=ORIENTED_EDGE('',*,*,#312,.T.);
#140=ORIENTED_EDGE('',*,*,#308,.T.);
#141=ORIENTED_EDGE('',*,*,#313,.F.);
#142=ORIENTED_EDGE('',*,*,#288,.F.);
#143=ORIENTED_EDGE('',*,*,#314,.T.);
#144=ORIENTED_EDGE('',*,*,#311,.T.);
#145=ORIENTED_EDGE('',*,*,#315,.F.);
#146=ORIENTED_EDGE('',*,*,#289,.F.);
#147=ORIENTED_EDGE('',*,*,#315,.T.);
#148=ORIENTED_EDGE('',*,*,#313,.T.);
#149=ORIENTED_EDGE('',*,*,#310,.T.);
#150=ORIENTED_EDGE('',*,*,#307,.T.);
#151=ORIENTED_EDGE('',*,*,#304,.F.);
#152=ORIENTED_EDGE('',*,*,#301,.F.);
#153=ORIENTED_EDGE('',*,*,#298,.F.);
#154=ORIENTED_EDGE('',*,*,#295,.F.);
#155=ORIENTED_EDGE('',*,*,#292,.F.);
#156=ORIENTED_EDGE('',*,*,#316,.T.);
#157=ORIENTED_EDGE('',*,*,#317,.T.);
#158=ORIENTED_EDGE('',*,*,#318,.F.);
#159=ORIENTED_EDGE('',*,*,#319,.T.);
#160=ORIENTED_EDGE('',*,*,#318,.T.);
#161=ORIENTED_EDGE('',*,*,#320,.T.);
#162=ORIENTED_EDGE('',*,*,#321,.F.);
#163=ORIENTED_EDGE('',*,*,#322,.F.);
#164=ORIENTED_EDGE('',*,*,#321,.T.);
#165=ORIENTED_EDGE('',*,*,#323,.T.);
#166=ORIENTED_EDGE('',*,*,#324,.F.);
#167=ORIENTED_EDGE('',*,*,#325,.T.);
#168=ORIENTED_EDGE('',*,*,#324,.T.);
#169=ORIENTED_EDGE('',*,*,#326,.T.);
#170=ORIENTED_EDGE('',*,*,#327,.F.);
#171=ORIENTED_EDGE('',*,*,#328,.F.);
#172=ORIENTED_EDGE('',*,*,#327,.T.);
#173=ORIENTED_EDGE('',*,*,#329,.T.);
#174=ORIENTED_EDGE('',*,*,#330,.F.);
#175=ORIENTED_EDGE('',*,*,#331,.F.);
#176=ORIENTED_EDGE('',*,*,#330,.T.);
#177=ORIENTED_EDGE('',*,*,#332,.T.);
#178=ORIENTED_EDGE('',*,*,#333,.F.);
#179=ORIENTED_EDGE('',*,*,#334,.T.);
#180=ORIENTED_EDGE('',*,*,#333,.T.);
#181=ORIENTED_EDGE('',*,*,#335,.T.);
#182=ORIENTED_EDGE('',*,*,#336,.F.);
#183=ORIENTED_EDGE('',*,*,#337,.F.);
#184=ORIENTED_EDGE('',*,*,#336,.T.);
#185=ORIENTED_EDGE('',*,*,#338,.T.);
#186=ORIENTED_EDGE('',*,*,#316,.F.);
#187=ORIENTED_EDGE('',*,*,#339,.T.);
#188=ORIENTED_EDGE('',*,*,#319,.F.);
#189=ORIENTED_EDGE('',*,*,#322,.T.);
#190=ORIENTED_EDGE('',*,*,#325,.F.);
#191=ORIENTED_EDGE('',*,*,#328,.T.);
#192=ORIENTED_EDGE('',*,*,#331,.T.);
#193=ORIENTED_EDGE('',*,*,#334,.F.);
#194=ORIENTED_EDGE('',*,*,#337,.T.);
#195=ORIENTED_EDGE('',*,*,#339,.F.);
#196=ORIENTED_EDGE('',*,*,#340,.F.);
#197=ORIENTED_EDGE('',*,*,#329,.F.);
#198=ORIENTED_EDGE('',*,*,#341,.F.);
#199=ORIENTED_EDGE('',*,*,#273,.F.);
#200=ORIENTED_EDGE('',*,*,#341,.T.);
#201=ORIENTED_EDGE('',*,*,#326,.F.);
#202=ORIENTED_EDGE('',*,*,#342,.F.);
#203=ORIENTED_EDGE('',*,*,#274,.F.);
#204=ORIENTED_EDGE('',*,*,#340,.T.);
#205=ORIENTED_EDGE('',*,*,#272,.F.);
#206=ORIENTED_EDGE('',*,*,#343,.F.);
#207=ORIENTED_EDGE('',*,*,#332,.F.);
#208=ORIENTED_EDGE('',*,*,#342,.T.);
#209=ORIENTED_EDGE('',*,*,#323,.F.);
#210=ORIENTED_EDGE('',*,*,#344,.F.);
#211=ORIENTED_EDGE('',*,*,#275,.F.);
#212=ORIENTED_EDGE('',*,*,#343,.T.);
#213=ORIENTED_EDGE('',*,*,#271,.F.);
#214=ORIENTED_EDGE('',*,*,#345,.F.);
#215=ORIENTED_EDGE('',*,*,#335,.F.);
#216=ORIENTED_EDGE('',*,*,#344,.T.);
#217=ORIENTED_EDGE('',*,*,#320,.F.);
#218=ORIENTED_EDGE('',*,*,#346,.F.);
#219=ORIENTED_EDGE('',*,*,#268,.F.);
#220=ORIENTED_EDGE('',*,*,#345,.T.);
#221=ORIENTED_EDGE('',*,*,#270,.F.);
#222=ORIENTED_EDGE('',*,*,#347,.F.);
#223=ORIENTED_EDGE('',*,*,#338,.F.);
#224=ORIENTED_EDGE('',*,*,#346,.T.);
#225=ORIENTED_EDGE('',*,*,#317,.F.);
#226=ORIENTED_EDGE('',*,*,#347,.T.);
#227=ORIENTED_EDGE('',*,*,#269,.F.);
#228=ORIENTED_EDGE('',*,*,#348,.F.);
#229=ORIENTED_EDGE('',*,*,#303,.F.);
#230=ORIENTED_EDGE('',*,*,#349,.F.);
#231=ORIENTED_EDGE('',*,*,#282,.F.);
#232=ORIENTED_EDGE('',*,*,#349,.T.);
#233=ORIENTED_EDGE('',*,*,#306,.F.);
#234=ORIENTED_EDGE('',*,*,#350,.F.);
#235=ORIENTED_EDGE('',*,*,#283,.F.);
#236=ORIENTED_EDGE('',*,*,#348,.T.);
#237=ORIENTED_EDGE('',*,*,#281,.F.);
#238=ORIENTED_EDGE('',*,*,#351,.F.);
#239=ORIENTED_EDGE('',*,*,#300,.F.);
#240=ORIENTED_EDGE('',*,*,#350,.T.);
#241=ORIENTED_EDGE('',*,*,#309,.F.);
#242=ORIENTED_EDGE('',*,*,#352,.F.);
#243=ORIENTED_EDGE('',*,*,#284,.F.);
#244=ORIENTED_EDGE('',*,*,#351,.T.);
#245=ORIENTED_EDGE('',*,*,#280,.F.);
#246=ORIENTED_EDGE('',*,*,#353,.F.);
#247=ORIENTED_EDGE('',*,*,#297,.F.);
#248=ORIENTED_EDGE('',*,*,#352,.T.);
#249=ORIENTED_EDGE('',*,*,#312,.F.);
#250=ORIENTED_EDGE('',*,*,#354,.F.);
#251=ORIENTED_EDGE('',*,*,#285,.F.);
#252=ORIENTED_EDGE('',*,*,#353,.T.);
#253=ORIENTED_EDGE('',*,*,#279,.F.);
#254=ORIENTED_EDGE('',*,*,#355,.F.);
#255=ORIENTED_EDGE('',*,*,#294,.F.);
#256=ORIENTED_EDGE('',*,*,#354,.T.);
#257=ORIENTED_EDGE('',*,*,#314,.F.);
#258=ORIENTED_EDGE('',*,*,#356,.F.);
#259=ORIENTED_EDGE('',*,*,#276,.F.);
#260=ORIENTED_EDGE('',*,*,#355,.T.);
#261=ORIENTED_EDGE('',*,*,#278,.F.);
#262=ORIENTED_EDGE('',*,*,#357,.F.);
#263=ORIENTED_EDGE('',*,*,#291,.F.);
#264=ORIENTED_EDGE('',*,*,#356,.T.);
#265=ORIENTED_EDGE('',*,*,#287,.F.);
#266=ORIENTED_EDGE('',*,*,#357,.T.);
#267=ORIENTED_EDGE('',*,*,#277,.F.);
#268=EDGE_CURVE('',#358,#359,#412,.F.);
#269=EDGE_CURVE('',#359,#360,#58,.T.);
#270=EDGE_CURVE('',#360,#361,#413,.T.);
#271=EDGE_CURVE('',#361,#362,#59,.T.);
#272=EDGE_CURVE('',#362,#363,#414,.T.);
#273=EDGE_CURVE('',#363,#364,#60,.T.);
#274=EDGE_CURVE('',#364,#365,#415,.F.);
#275=EDGE_CURVE('',#365,#358,#61,.T.);
#276=EDGE_CURVE('',#366,#367,#416,.F.);
#277=EDGE_CURVE('',#367,#368,#62,.T.);
#278=EDGE_CURVE('',#368,#369,#63,.T.);
#279=EDGE_CURVE('',#369,#370,#64,.T.);
#280=EDGE_CURVE('',#370,#371,#417,.T.);
#281=EDGE_CURVE('',#371,#372,#65,.T.);
#282=EDGE_CURVE('',#372,#373,#418,.T.);
#283=EDGE_CURVE('',#373,#374,#66,.T.);
#284=EDGE_CURVE('',#374,#375,#419,.F.);
#285=EDGE_CURVE('',#375,#366,#67,.T.);
#286=EDGE_CURVE('',#376,#377,#420,.T.);
#287=EDGE_CURVE('',#376,#378,#68,.T.);
#288=EDGE_CURVE('',#378,#379,#421,.T.);
#289=EDGE_CURVE('',#379,#377,#69,.T.);
#290=EDGE_CURVE('',#380,#381,#422,.T.);
#291=EDGE_CURVE('',#380,#376,#70,.T.);
#292=EDGE_CURVE('',#377,#381,#71,.T.);
#293=EDGE_CURVE('',#382,#383,#423,.T.);
#294=EDGE_CURVE('',#382,#380,#72,.T.);
#295=EDGE_CURVE('',#381,#383,#73,.T.);
#296=EDGE_CURVE('',#384,#385,#424,.T.);
#297=EDGE_CURVE('',#384,#382,#425,.F.);
#298=EDGE_CURVE('',#383,#385,#426,.T.);
#299=EDGE_CURVE('',#386,#387,#427,.T.);
#300=EDGE_CURVE('',#386,#384,#74,.T.);
#301=EDGE_CURVE('',#385,#387,#75,.T.);
#302=EDGE_CURVE('',#388,#389,#428,.T.);
#303=EDGE_CURVE('',#388,#386,#429,.F.);
#304=EDGE_CURVE('',#387,#389,#430,.T.);
#305=EDGE_CURVE('',#390,#391,#431,.T.);
#306=EDGE_CURVE('',#390,#388,#76,.T.);
#307=EDGE_CURVE('',#391,#389,#77,.T.);
#308=EDGE_CURVE('',#392,#393,#432,.T.);
#309=EDGE_CURVE('',#392,#390,#433,.T.);
#310=EDGE_CURVE('',#393,#391,#434,.T.);
#311=EDGE_CURVE('',#394,#395,#435,.T.);
#312=EDGE_CURVE('',#394,#392,#78,.T.);
#313=EDGE_CURVE('',#395,#393,#79,.T.);
#314=EDGE_CURVE('',#378,#394,#436,.T.);
#315=EDGE_CURVE('',#379,#395,#437,.T.);
#316=EDGE_CURVE('',#396,#397,#438,.T.);
#317=EDGE_CURVE('',#397,#398,#80,.T.);
#318=EDGE_CURVE('',#399,#398,#439,.T.);
#319=EDGE_CURVE('',#399,#396,#81,.T.);
#320=EDGE_CURVE('',#398,#400,#440,.T.);
#321=EDGE_CURVE('',#401,#400,#441,.T.);
#322=EDGE_CURVE('',#399,#401,#442,.T.);
#323=EDGE_CURVE('',#400,#402,#82,.T.);
#324=EDGE_CURVE('',#403,#402,#443,.T.);
#325=EDGE_CURVE('',#403,#401,#83,.T.);
#326=EDGE_CURVE('',#402,#404,#444,.T.);
#327=EDGE_CURVE('',#405,#404,#445,.T.);
#328=EDGE_CURVE('',#403,#405,#446,.T.);
#329=EDGE_CURVE('',#404,#406,#84,.T.);
#330=EDGE_CURVE('',#407,#406,#447,.T.);
#331=EDGE_CURVE('',#405,#407,#85,.T.);
#332=EDGE_CURVE('',#406,#408,#448,.F.);
#333=EDGE_CURVE('',#409,#408,#449,.T.);
#334=EDGE_CURVE('',#409,#407,#450,.T.);
#335=EDGE_CURVE('',#408,#410,#86,.T.);
#336=EDGE_CURVE('',#411,#410,#451,.T.);
#337=EDGE_CURVE('',#409,#411,#87,.T.);
#338=EDGE_CURVE('',#410,#397,#452,.F.);
#339=EDGE_CURVE('',#396,#411,#453,.T.);
#340=EDGE_CURVE('',#406,#363,#20,.T.);
#341=EDGE_CURVE('',#364,#404,#21,.T.);
#342=EDGE_CURVE('',#365,#402,#22,.T.);
#343=EDGE_CURVE('',#408,#362,#23,.T.);
#344=EDGE_CURVE('',#358,#400,#24,.T.);
#345=EDGE_CURVE('',#410,#361,#25,.T.);
#346=EDGE_CURVE('',#359,#398,#26,.T.);
#347=EDGE_CURVE('',#397,#360,#27,.T.);
#348=EDGE_CURVE('',#386,#372,#28,.T.);
#349=EDGE_CURVE('',#373,#388,#29,.T.);
#350=EDGE_CURVE('',#374,#390,#30,.T.);
#351=EDGE_CURVE('',#384,#371,#31,.T.);
#352=EDGE_CURVE('',#375,#392,#32,.T.);
#353=EDGE_CURVE('',#382,#370,#33,.T.);
#354=EDGE_CURVE('',#366,#394,#34,.T.);
#355=EDGE_CURVE('',#380,#369,#35,.T.);
#356=EDGE_CURVE('',#367,#378,#36,.T.);
#357=EDGE_CURVE('',#376,#368,#37,.T.);
#358=VERTEX_POINT('',#797);
#359=VERTEX_POINT('',#798);
#360=VERTEX_POINT('',#806);
#361=VERTEX_POINT('',#808);
#362=VERTEX_POINT('',#816);
#363=VERTEX_POINT('',#818);
#364=VERTEX_POINT('',#826);
#365=VERTEX_POINT('',#828);
#366=VERTEX_POINT('',#837);
#367=VERTEX_POINT('',#838);
#368=VERTEX_POINT('',#843);
#369=VERTEX_POINT('',#849);
#370=VERTEX_POINT('',#854);
#371=VERTEX_POINT('',#856);
#372=VERTEX_POINT('',#866);
#373=VERTEX_POINT('',#868);
#374=VERTEX_POINT('',#878);
#375=VERTEX_POINT('',#880);
#376=VERTEX_POINT('',#899);
#377=VERTEX_POINT('',#900);
#378=VERTEX_POINT('',#905);
#379=VERTEX_POINT('',#907);
#380=VERTEX_POINT('',#920);
#381=VERTEX_POINT('',#921);
#382=VERTEX_POINT('',#939);
#383=VERTEX_POINT('',#940);
#384=VERTEX_POINT('',#950);
#385=VERTEX_POINT('',#951);
#386=VERTEX_POINT('',#963);
#387=VERTEX_POINT('',#964);
#388=VERTEX_POINT('',#979);
#389=VERTEX_POINT('',#980);
#390=VERTEX_POINT('',#992);
#391=VERTEX_POINT('',#993);
#392=VERTEX_POINT('',#1008);
#393=VERTEX_POINT('',#1009);
#394=VERTEX_POINT('',#1021);
#395=VERTEX_POINT('',#1022);
#396=VERTEX_POINT('',#1048);
#397=VERTEX_POINT('',#1049);
#398=VERTEX_POINT('',#1058);
#399=VERTEX_POINT('',#1060);
#400=VERTEX_POINT('',#1066);
#401=VERTEX_POINT('',#1068);
#402=VERTEX_POINT('',#1086);
#403=VERTEX_POINT('',#1088);
#404=VERTEX_POINT('',#1094);
#405=VERTEX_POINT('',#1096);
#406=VERTEX_POINT('',#1114);
#407=VERTEX_POINT('',#1116);
#408=VERTEX_POINT('',#1122);
#409=VERTEX_POINT('',#1124);
#410=VERTEX_POINT('',#1142);
#411=VERTEX_POINT('',#1144);
#412=LINE('',#796,#454);
#413=LINE('',#807,#455);
#414=LINE('',#817,#456);
#415=LINE('',#827,#457);
#416=LINE('',#836,#458);
#417=LINE('',#855,#459);
#418=LINE('',#867,#460);
#419=LINE('',#879,#461);
#420=LINE('',#898,#462);
#421=LINE('',#906,#463);
#422=LINE('',#919,#464);
#423=LINE('',#938,#465);
#424=LINE('',#949,#466);
#425=LINE('',#952,#467);
#426=LINE('',#953,#468);
#427=LINE('',#962,#469);
#428=LINE('',#978,#470);
#429=LINE('',#981,#471);
#430=LINE('',#982,#472);
#431=LINE('',#991,#473);
#432=LINE('',#1007,#474);
#433=LINE('',#1010,#475);
#434=LINE('',#1011,#476);
#435=LINE('',#1020,#477);
#436=LINE('',#1036,#478);
#437=LINE('',#1037,#479);
#438=LINE('',#1047,#480);
#439=LINE('',#1059,#481);
#440=LINE('',#1065,#482);
#441=LINE('',#1067,#483);
#442=LINE('',#1069,#484);
#443=LINE('',#1087,#485);
#444=LINE('',#1093,#486);
#445=LINE('',#1095,#487);
#446=LINE('',#1097,#488);
#447=LINE('',#1115,#489);
#448=LINE('',#1121,#490);
#449=LINE('',#1123,#491);
#450=LINE('',#1125,#492);
#451=LINE('',#1143,#493);
#452=LINE('',#1149,#494);
#453=LINE('',#1150,#495);
#454=VECTOR('',#680,1.);
#455=VECTOR('',#681,1.);
#456=VECTOR('',#682,1.);
#457=VECTOR('',#683,1.);
#458=VECTOR('',#684,1.);
#459=VECTOR('',#685,1.);
#460=VECTOR('',#686,1.);
#461=VECTOR('',#687,1.);
#462=VECTOR('',#688,1.);
#463=VECTOR('',#689,1.);
#464=VECTOR('',#690,1.);
#465=VECTOR('',#691,1.);
#466=VECTOR('',#694,1.);
#467=VECTOR('',#695,1.);
#468=VECTOR('',#696,1.);
#469=VECTOR('',#697,1.);
#470=VECTOR('',#700,1.);
#471=VECTOR('',#701,1.);
#472=VECTOR('',#702,1.);
#473=VECTOR('',#703,1.);
#474=VECTOR('',#706,1.);
#475=VECTOR('',#707,1.);
#476=VECTOR('',#708,1.);
#477=VECTOR('',#709,1.);
#478=VECTOR('',#712,1.);
#479=VECTOR('',#713,1.);
#480=VECTOR('',#716,1.);
#481=VECTOR('',#717,1.);
#482=VECTOR('',#720,1.);
#483=VECTOR('',#721,1.);
#484=VECTOR('',#722,1.);
#485=VECTOR('',#723,1.);
#486=VECTOR('',#726,1.);
#487=VECTOR('',#727,1.);
#488=VECTOR('',#728,1.);
#489=VECTOR('',#729,1.);
#490=VECTOR('',#732,1.);
#491=VECTOR('',#733,1.);
#492=VECTOR('',#734,1.);
#493=VECTOR('',#735,1.);
#494=VECTOR('',#738,1.);
#495=VECTOR('',#739,1.);
#496=EDGE_LOOP('',(#88,#89,#90,#91,#92,#93,#94,#95));
#497=EDGE_LOOP('',(#96,#97,#98,#99,#100,#101,#102,#103,#104,#105));
#498=EDGE_LOOP('',(#106,#107,#108,#109));
#499=EDGE_LOOP('',(#110,#111,#112,#113));
#500=EDGE_LOOP('',(#114,#115,#116,#117));
#501=EDGE_LOOP('',(#118,#119,#120,#121));
#502=EDGE_LOOP('',(#122,#123,#124,#125));
#503=EDGE_LOOP('',(#126,#127,#128,#129));
#504=EDGE_LOOP('',(#130,#131,#132,#133));
#505=EDGE_LOOP('',(#134,#135,#136,#137));
#506=EDGE_LOOP('',(#138,#139,#140,#141));
#507=EDGE_LOOP('',(#142,#143,#144,#145));
#508=EDGE_LOOP('',(#146,#147,#148,#149,#150,#151,#152,#153,#154,#155));
#509=EDGE_LOOP('',(#156,#157,#158,#159));
#510=EDGE_LOOP('',(#160,#161,#162,#163));
#511=EDGE_LOOP('',(#164,#165,#166,#167));
#512=EDGE_LOOP('',(#168,#169,#170,#171));
#513=EDGE_LOOP('',(#172,#173,#174,#175));
#514=EDGE_LOOP('',(#176,#177,#178,#179));
#515=EDGE_LOOP('',(#180,#181,#182,#183));
#516=EDGE_LOOP('',(#184,#185,#186,#187));
#517=EDGE_LOOP('',(#188,#189,#190,#191,#192,#193,#194,#195));
#518=EDGE_LOOP('',(#196,#197,#198,#199));
#519=EDGE_LOOP('',(#200,#201,#202,#203));
#520=EDGE_LOOP('',(#204,#205,#206,#207));
#521=EDGE_LOOP('',(#208,#209,#210,#211));
#522=EDGE_LOOP('',(#212,#213,#214,#215));
#523=EDGE_LOOP('',(#216,#217,#218,#219));
#524=EDGE_LOOP('',(#220,#221,#222,#223));
#525=EDGE_LOOP('',(#224,#225,#226,#227));
#526=EDGE_LOOP('',(#228,#229,#230,#231));
#527=EDGE_LOOP('',(#232,#233,#234,#235));
#528=EDGE_LOOP('',(#236,#237,#238,#239));
#529=EDGE_LOOP('',(#240,#241,#242,#243));
#530=EDGE_LOOP('',(#244,#245,#246,#247));
#531=EDGE_LOOP('',(#248,#249,#250,#251));
#532=EDGE_LOOP('',(#252,#253,#254,#255));
#533=EDGE_LOOP('',(#256,#257,#258,#259));
#534=EDGE_LOOP('',(#260,#261,#262,#263));
#535=EDGE_LOOP('',(#264,#265,#266,#267));
#536=FACE_BOUND('',#496,.T.);
#537=FACE_BOUND('',#497,.T.);
#538=FACE_BOUND('',#498,.T.);
#539=FACE_BOUND('',#499,.T.);
#540=FACE_BOUND('',#500,.T.);
#541=FACE_BOUND('',#501,.T.);
#542=FACE_BOUND('',#502,.T.);
#543=FACE_BOUND('',#503,.T.);
#544=FACE_BOUND('',#504,.T.);
#545=FACE_BOUND('',#505,.T.);
#546=FACE_BOUND('',#506,.T.);
#547=FACE_BOUND('',#507,.T.);
#548=FACE_BOUND('',#508,.T.);
#549=FACE_BOUND('',#509,.T.);
#550=FACE_BOUND('',#510,.T.);
#551=FACE_BOUND('',#511,.T.);
#552=FACE_BOUND('',#512,.T.);
#553=FACE_BOUND('',#513,.T.);
#554=FACE_BOUND('',#514,.T.);
#555=FACE_BOUND('',#515,.T.);
#556=FACE_BOUND('',#516,.T.);
#557=FACE_BOUND('',#517,.T.);
#558=FACE_BOUND('',#518,.T.);
#559=FACE_BOUND('',#519,.T.);
#560=FACE_BOUND('',#520,.T.);
#561=FACE_BOUND('',#521,.T.);
#562=FACE_BOUND('',#522,.T.);
#563=FACE_BOUND('',#523,.T.);
#564=FACE_BOUND('',#524,.T.);
#565=FACE_BOUND('',#525,.T.);
#566=FACE_BOUND('',#526,.T.);
#567=FACE_BOUND('',#527,.T.);
#568=FACE_BOUND('',#528,.T.);
#569=FACE_BOUND('',#529,.T.);
#570=FACE_BOUND('',#530,.T.);
#571=FACE_BOUND('',#531,.T.);
#572=FACE_BOUND('',#532,.T.);
#573=FACE_BOUND('',#533,.T.);
#574=FACE_BOUND('',#534,.T.);
#575=FACE_BOUND('',#535,.T.);
#576=PLANE('',#639);
#577=PLANE('',#640);
#578=PLANE('',#641);
#579=PLANE('',#642);
#580=PLANE('',#643);
#581=PLANE('',#644);
#582=PLANE('',#645);
#583=PLANE('',#646);
#584=PLANE('',#647);
#585=PLANE('',#648);
#586=PLANE('',#649);
#587=ADVANCED_FACE('',(#536,#537),#576,.T.);
#588=ADVANCED_FACE('',(#538),#48,.F.);
#589=ADVANCED_FACE('',(#539),#49,.F.);
#590=ADVANCED_FACE('',(#540),#50,.F.);
#591=ADVANCED_FACE('',(#541),#577,.F.);
#592=ADVANCED_FACE('',(#542),#51,.F.);
#593=ADVANCED_FACE('',(#543),#578,.F.);
#594=ADVANCED_FACE('',(#544),#52,.T.);
#595=ADVANCED_FACE('',(#545),#579,.T.);
#596=ADVANCED_FACE('',(#546),#53,.T.);
#597=ADVANCED_FACE('',(#547),#580,.T.);
#598=ADVANCED_FACE('',(#548),#581,.F.);
#599=ADVANCED_FACE('',(#549),#54,.T.);
#600=ADVANCED_FACE('',(#550),#582,.F.);
#601=ADVANCED_FACE('',(#551),#55,.T.);
#602=ADVANCED_FACE('',(#552),#583,.F.);
#603=ADVANCED_FACE('',(#553),#56,.F.);
#604=ADVANCED_FACE('',(#554),#584,.T.);
#605=ADVANCED_FACE('',(#555),#57,.F.);
#606=ADVANCED_FACE('',(#556),#585,.T.);
#607=ADVANCED_FACE('',(#557),#586,.T.);
#608=ADVANCED_FACE('',(#558),#38,.T.);
#609=ADVANCED_FACE('',(#559),#12,.T.);
#610=ADVANCED_FACE('',(#560),#13,.T.);
#611=ADVANCED_FACE('',(#561),#39,.T.);
#612=ADVANCED_FACE('',(#562),#40,.T.);
#613=ADVANCED_FACE('',(#563),#14,.T.);
#614=ADVANCED_FACE('',(#564),#15,.T.);
#615=ADVANCED_FACE('',(#565),#41,.T.);
#616=ADVANCED_FACE('',(#566),#16,.T.);
#617=ADVANCED_FACE('',(#567),#42,.T.);
#618=ADVANCED_FACE('',(#568),#43,.T.);
#619=ADVANCED_FACE('',(#569),#17,.T.);
#620=ADVANCED_FACE('',(#570),#18,.T.);
#621=ADVANCED_FACE('',(#571),#44,.T.);
#622=ADVANCED_FACE('',(#572),#45,.T.);
#623=ADVANCED_FACE('',(#573),#19,.T.);
#624=ADVANCED_FACE('',(#574),#46,.T.);
#625=ADVANCED_FACE('',(#575),#47,.T.);
#626=CLOSED_SHELL('',(#587,#588,#589,#590,#591,#592,#593,#594,#595,#596,
#597,#598,#599,#600,#601,#602,#603,#604,#605,#606,#607,#608,#609,#610,#611,
#612,#613,#614,#615,#616,#617,#618,#619,#620,#621,#622,#623,#624,#625));
#627=STYLED_ITEM('',(#628),#635);
#628=PRESENTATION_STYLE_ASSIGNMENT((#629));
#629=SURFACE_STYLE_USAGE(.BOTH.,#630);
#630=SURFACE_SIDE_STYLE('',(#631));
#631=SURFACE_STYLE_FILL_AREA(#632);
#632=FILL_AREA_STYLE('',(#633));
#633=FILL_AREA_STYLE_COLOUR('',#634);
#634=COLOUR_RGB('',0.615686274509804,0.811764705882353,0.929411764705882);
#635=MANIFOLD_SOLID_BREP('Tray',#626);
#636=SHAPE_DEFINITION_REPRESENTATION(#1412,#637);
#637=SHAPE_REPRESENTATION('Tray',(#638),#1407);
#638=AXIS2_PLACEMENT_3D('',#794,#676,#677);
#639=AXIS2_PLACEMENT_3D('',#795,#678,#679);
#640=AXIS2_PLACEMENT_3D('',#948,#692,#693);
#641=AXIS2_PLACEMENT_3D('',#977,#698,#699);
#642=AXIS2_PLACEMENT_3D('',#1006,#704,#705);
#643=AXIS2_PLACEMENT_3D('',#1035,#710,#711);
#644=AXIS2_PLACEMENT_3D('',#1038,#714,#715);
#645=AXIS2_PLACEMENT_3D('',#1064,#718,#719);
#646=AXIS2_PLACEMENT_3D('',#1092,#724,#725);
#647=AXIS2_PLACEMENT_3D('',#1120,#730,#731);
#648=AXIS2_PLACEMENT_3D('',#1148,#736,#737);
#649=AXIS2_PLACEMENT_3D('',#1151,#740,#741);
#650=AXIS2_PLACEMENT_3D('',#1173,#742,#743);
#651=AXIS2_PLACEMENT_3D('',#1174,#744,#745);
#652=AXIS2_PLACEMENT_3D('',#1175,#746,#747);
#653=AXIS2_PLACEMENT_3D('',#1176,#748,#749);
#654=AXIS2_PLACEMENT_3D('',#1177,#750,#751);
#655=AXIS2_PLACEMENT_3D('',#1178,#752,#753);
#656=AXIS2_PLACEMENT_3D('',#1200,#754,#755);
#657=AXIS2_PLACEMENT_3D('',#1222,#756,#757);
#658=AXIS2_PLACEMENT_3D('',#1223,#758,#759);
#659=AXIS2_PLACEMENT_3D('',#1224,#760,#761);
#660=AXIS2_PLACEMENT_3D('',#1225,#762,#763);
#661=AXIS2_PLACEMENT_3D('',#1226,#764,#765);
#662=AXIS2_PLACEMENT_3D('',#1248,#766,#767);
#663=AXIS2_PLACEMENT_3D('',#1249,#768,#769);
#664=AXIS2_PLACEMENT_3D('',#1250,#770,#771);
#665=AXIS2_PLACEMENT_3D('',#1284,#772,#773);
#666=AXIS2_PLACEMENT_3D('',#1318,#774,#775);
#667=AXIS2_PLACEMENT_3D('',#1319,#776,#777);
#668=AXIS2_PLACEMENT_3D('',#1320,#778,#779);
#669=AXIS2_PLACEMENT_3D('',#1321,#780,#781);
#670=AXIS2_PLACEMENT_3D('',#1322,#782,#783);
#671=AXIS2_PLACEMENT_3D('',#1356,#784,#785);
#672=AXIS2_PLACEMENT_3D('',#1372,#786,#787);
#673=AXIS2_PLACEMENT_3D('',#1373,#788,#789);
#674=AXIS2_PLACEMENT_3D('',#1374,#790,#791);
#675=AXIS2_PLACEMENT_3D('',#1390,#792,#793);
#676=DIRECTION('',(0.,0.,1.));
#677=DIRECTION('',(1.,0.,0.));
#678=DIRECTION('',(0.,0.,1.));
#679=DIRECTION('',(1.,0.,0.));
#680=DIRECTION('',(0.,1.,0.));
#681=DIRECTION('',(-1.,0.,0.));
#682=DIRECTION('',(0.,1.,0.));
#683=DIRECTION('',(-1.,0.,0.));
#684=DIRECTION('',(1.,0.,0.));
#685=DIRECTION('',(0.,-1.,0.));
#686=DIRECTION('',(1.,0.,0.));
#687=DIRECTION('',(0.,-1.,0.));
#688=DIRECTION('',(0.,0.,-1.));
#689=DIRECTION('',(0.,0.,-1.));
#690=DIRECTION('',(0.,0.,-1.));
#691=DIRECTION('',(0.,0.,-1.));
#692=DIRECTION('',(1.,0.,0.));
#693=DIRECTION('',(0.,0.,-1.));
#694=DIRECTION('',(0.,0.,-1.));
#695=DIRECTION('',(0.,-1.,0.));
#696=DIRECTION('',(0.,-1.,0.));
#697=DIRECTION('',(0.,0.,-1.));
#698=DIRECTION('',(0.,1.,0.));
#699=DIRECTION('',(0.,0.,1.));
#700=DIRECTION('',(0.,0.,-1.));
#701=DIRECTION('',(1.,0.,0.));
#702=DIRECTION('',(1.,0.,0.));
#703=DIRECTION('',(0.,0.,-1.));
#704=DIRECTION('',(1.,0.,0.));
#705=DIRECTION('',(0.,0.,-1.));
#706=DIRECTION('',(0.,0.,-1.));
#707=DIRECTION('',(0.,-1.,0.));
#708=DIRECTION('',(0.,-1.,0.));
#709=DIRECTION('',(0.,0.,-1.));
#710=DIRECTION('',(0.,1.,0.));
#711=DIRECTION('',(0.,0.,1.));
#712=DIRECTION('',(1.,0.,0.));
#713=DIRECTION('',(1.,0.,0.));
#714=DIRECTION('',(0.,0.,1.));
#715=DIRECTION('',(1.,0.,0.));
#716=DIRECTION('',(0.,0.,1.));
#717=DIRECTION('',(0.,0.,1.));
#718=DIRECTION('',(1.,0.,0.));
#719=DIRECTION('',(0.,0.,-1.));
#720=DIRECTION('',(0.,1.,0.));
#721=DIRECTION('',(0.,0.,1.));
#722=DIRECTION('',(0.,1.,0.));
#723=DIRECTION('',(0.,0.,1.));
#724=DIRECTION('',(0.,1.,0.));
#725=DIRECTION('',(0.,0.,1.));
#726=DIRECTION('',(-1.,0.,0.));
#727=DIRECTION('',(0.,0.,1.));
#728=DIRECTION('',(-1.,0.,0.));
#729=DIRECTION('',(0.,0.,1.));
#730=DIRECTION('',(1.,0.,0.));
#731=DIRECTION('',(0.,0.,-1.));
#732=DIRECTION('',(0.,1.,0.));
#733=DIRECTION('',(0.,0.,1.));
#734=DIRECTION('',(0.,1.,0.));
#735=DIRECTION('',(0.,0.,1.));
#736=DIRECTION('',(0.,1.,0.));
#737=DIRECTION('',(0.,0.,1.));
#738=DIRECTION('',(-1.,0.,0.));
#739=DIRECTION('',(-1.,0.,0.));
#740=DIRECTION('',(0.,0.,1.));
#741=DIRECTION('',(1.,0.,0.));
#742=DIRECTION('',(0.,-1.,0.));
#743=DIRECTION('',(0.,0.,-1.));
#744=DIRECTION('',(1.,0.,0.));
#745=DIRECTION('',(0.,0.,-1.));
#746=DIRECTION('',(1.,0.,0.));
#747=DIRECTION('',(0.,0.,-1.));
#748=DIRECTION('',(1.,0.,0.));
#749=DIRECTION('',(0.,0.,-1.));
#750=DIRECTION('',(0.,1.,0.));
#751=DIRECTION('',(0.,0.,1.));
#752=DIRECTION('',(0.,-1.,0.));
#753=DIRECTION('',(0.,0.,-1.));
#754=DIRECTION('',(0.,-1.,0.));
#755=DIRECTION('',(0.,0.,-1.));
#756=DIRECTION('',(1.,0.,0.));
#757=DIRECTION('',(0.,0.,-1.));
#758=DIRECTION('',(0.,-1.,0.));
#759=DIRECTION('',(0.,0.,-1.));
#760=DIRECTION('',(0.,-1.,0.));
#761=DIRECTION('',(0.,0.,-1.));
#762=DIRECTION('',(-1.,0.,0.));
#763=DIRECTION('',(0.,0.,1.));
#764=DIRECTION('',(1.,0.,0.));
#765=DIRECTION('',(0.,0.,-1.));
#766=DIRECTION('',(-1.,0.,0.));
#767=DIRECTION('',(0.,0.,1.));
#768=DIRECTION('',(-1.,0.,0.));
#769=DIRECTION('',(0.,0.,1.));
#770=DIRECTION('',(1.,0.,0.));
#771=DIRECTION('',(0.,0.,-1.));
#772=DIRECTION('',(0.,1.,0.));
#773=DIRECTION('',(0.,0.,1.));
#774=DIRECTION('',(0.,1.,-4.95635278850517E-15));
#775=DIRECTION('',(0.,4.95635278850517E-15,1.));
#776=DIRECTION('',(0.,-1.,0.));
#777=DIRECTION('',(0.,0.,-1.));
#778=DIRECTION('',(0.,1.,0.));
#779=DIRECTION('',(0.,0.,1.));
#780=DIRECTION('',(0.,1.,0.));
#781=DIRECTION('',(0.,0.,1.));
#782=DIRECTION('',(0.,1.,9.91270557701034E-15));
#783=DIRECTION('',(0.,-9.91270557701034E-15,1.));
#784=DIRECTION('',(-1.,0.,0.));
#785=DIRECTION('',(0.,0.,1.));
#786=DIRECTION('',(0.382683432371638,0.923879532508574,-9.15814579438345E-15));
#787=DIRECTION('',(-0.923879532508574,0.382683432371638,0.));
#788=DIRECTION('',(1.,0.,0.));
#789=DIRECTION('',(0.,0.,-1.));
#790=DIRECTION('',(-1.,0.,0.));
#791=DIRECTION('',(0.,0.,1.));
#792=DIRECTION('',(0.923879532508578,0.38268343237163,-5.80668543367262E-11));
#793=DIRECTION('',(-0.38268343237163,0.923879532508578,0.));
#794=CARTESIAN_POINT('',(0.,0.,0.));
#795=CARTESIAN_POINT('',(-0.342138,-0.173228,0.03175));
#796=CARTESIAN_POINT('',(-0.227588,-0.208987057425538,0.03175));
#797=CARTESIAN_POINT('',(-0.227588,-0.137387057425538,0.03175));
#798=CARTESIAN_POINT('',(-0.227588,-0.208987057425538,0.03175));
#799=CARTESIAN_POINT('',(-0.227588,-0.208987057425538,0.03175));
#800=CARTESIAN_POINT('',(-0.227588,-0.210188213557513,0.03175));
#801=CARTESIAN_POINT('',(-0.22782625136917,-0.212564685136354,0.03175));
#802=CARTESIAN_POINT('',(-0.229623817367523,-0.215841448259859,0.03175));
#803=CARTESIAN_POINT('',(-0.232874443327355,-0.217639161343057,0.03175));
#804=CARTESIAN_POINT('',(-0.235283446443257,-0.217887057425538,0.03175));
#805=CARTESIAN_POINT('',(-0.236488,-0.217887057425538,0.03175));
#806=CARTESIAN_POINT('',(-0.236488,-0.217887057425538,0.03175));
#807=CARTESIAN_POINT('',(-0.342138,-0.217887057425538,0.03175));
#808=CARTESIAN_POINT('',(-0.447788,-0.217887057425538,0.03175));
#809=CARTESIAN_POINT('',(-0.447788,-0.217887057425538,0.03175));
#810=CARTESIAN_POINT('',(-0.448989156131975,-0.217887057425538,0.03175));
#811=CARTESIAN_POINT('',(-0.451365627710817,-0.217648806056368,0.03175));
#812=CARTESIAN_POINT('',(-0.454642390834321,-0.215851240058016,0.03175));
#813=CARTESIAN_POINT('',(-0.456440103917519,-0.212600614098183,0.03175));
#814=CARTESIAN_POINT('',(-0.456688,-0.210191610982281,0.03175));
#815=CARTESIAN_POINT('',(-0.456688,-0.208987057425538,0.03175));
#816=CARTESIAN_POINT('',(-0.456688,-0.208987057425538,0.03175));
#817=CARTESIAN_POINT('',(-0.456688,-0.173228,0.03175));
#818=CARTESIAN_POINT('',(-0.456688,-0.137387057425538,0.03175));
#819=CARTESIAN_POINT('',(-0.456688,-0.137387057425538,0.03175));
#820=CARTESIAN_POINT('',(-0.456688,-0.136185901293563,0.03175));
#821=CARTESIAN_POINT('',(-0.45644974863083,-0.133809429714721,0.03175));
#822=CARTESIAN_POINT('',(-0.454652182632478,-0.130532666591217,0.03175));
#823=CARTESIAN_POINT('',(-0.451401556672645,-0.128734953508019,0.03175));
#824=CARTESIAN_POINT('',(-0.448992553556744,-0.128487057425538,0.03175));
#825=CARTESIAN_POINT('',(-0.447788,-0.128487057425538,0.03175));
#826=CARTESIAN_POINT('',(-0.447788,-0.128487057425538,0.03175));
#827=CARTESIAN_POINT('',(-0.236488,-0.128487057425538,0.03175));
#828=CARTESIAN_POINT('',(-0.236488,-0.128487057425538,0.03175));
#829=CARTESIAN_POINT('',(-0.236488,-0.128487057425538,0.03175));
#830=CARTESIAN_POINT('',(-0.235286843868025,-0.128487057425538,0.03175));
#831=CARTESIAN_POINT('',(-0.232910372289183,-0.128725308794708,0.03175));
#832=CARTESIAN_POINT('',(-0.229633609165679,-0.13052287479306,0.03175));
#833=CARTESIAN_POINT('',(-0.227835896082481,-0.133773500752893,0.03175));
#834=CARTESIAN_POINT('',(-0.227588,-0.136182503868795,0.03175));
#835=CARTESIAN_POINT('',(-0.227588,-0.137387057425538,0.03175));
#836=CARTESIAN_POINT('',(-0.342138,-0.123828,0.03175));
#837=CARTESIAN_POINT('',(-0.236488,-0.123828,0.03175));
#838=CARTESIAN_POINT('',(-0.447788,-0.123828,0.03175));
#839=CARTESIAN_POINT('',(-0.447788,-0.123828,0.03175));
#840=CARTESIAN_POINT('',(-0.450159900602524,-0.123828,0.03175));
#841=CARTESIAN_POINT('',(-0.452558002682121,-0.124099343730487,0.03175));
#842=CARTESIAN_POINT('',(-0.454752243194693,-0.125008227909921,0.03175));
#843=CARTESIAN_POINT('',(-0.454752243194693,-0.125008227909921,0.03175));
#844=CARTESIAN_POINT('',(-0.454752243194693,-0.125008227909921,0.03175));
#845=CARTESIAN_POINT('',(-0.455980535543437,-0.12551700325934,0.03175));
#846=CARTESIAN_POINT('',(-0.458256398048027,-0.126959756819027,0.03175));
#847=CARTESIAN_POINT('',(-0.459698956418438,-0.129235367110108,0.03175));
#848=CARTESIAN_POINT('',(-0.460207772090048,-0.130463756805232,0.03175));
#849=CARTESIAN_POINT('',(-0.460207772090048,-0.130463756805232,0.03175));
#850=CARTESIAN_POINT('',(-0.460207772090048,-0.130463756805232,0.03175));
#851=CARTESIAN_POINT('',(-0.461116683846255,-0.132658063894023,0.03175));
#852=CARTESIAN_POINT('',(-0.461388,-0.135056060272482,0.03175));
#853=CARTESIAN_POINT('',(-0.461388,-0.137428,0.03175));
#854=CARTESIAN_POINT('',(-0.461388,-0.137428,0.03175));
#855=CARTESIAN_POINT('',(-0.461388,-0.209028,0.03175));
#856=CARTESIAN_POINT('',(-0.461388,-0.209028,0.03175));
#857=CARTESIAN_POINT('',(-0.461388,-0.209028,0.03175));
#858=CARTESIAN_POINT('',(-0.461388,-0.210881626584067,0.03175));
#859=CARTESIAN_POINT('',(-0.461132683054277,-0.213666780112463,0.03175));
#860=CARTESIAN_POINT('',(-0.459802207927678,-0.217128848707203,0.03175));
#861=CARTESIAN_POINT('',(-0.458146755255405,-0.219392357952928,0.03175));
#862=CARTESIAN_POINT('',(-0.455882068159948,-0.221047021047147,0.03175));
#863=CARTESIAN_POINT('',(-0.452395899949816,-0.222379721091851,0.03175));
#864=CARTESIAN_POINT('',(-0.449639424331788,-0.222628,0.03175));
#865=CARTESIAN_POINT('',(-0.447788,-0.222628,0.03175));
#866=CARTESIAN_POINT('',(-0.447788,-0.222628,0.03175));
#867=CARTESIAN_POINT('',(-0.236488,-0.222628,0.03175));
#868=CARTESIAN_POINT('',(-0.236488,-0.222628,0.03175));
#869=CARTESIAN_POINT('',(-0.236488,-0.222628,0.03175));
#870=CARTESIAN_POINT('',(-0.234634373415933,-0.222628,0.03175));
#871=CARTESIAN_POINT('',(-0.231849219887537,-0.222372683054277,0.03175));
#872=CARTESIAN_POINT('',(-0.228387151292797,-0.221042207927679,0.03175));
#873=CARTESIAN_POINT('',(-0.226123642047072,-0.219386755255405,0.03175));
#874=CARTESIAN_POINT('',(-0.224468978952853,-0.217122068159948,0.03175));
#875=CARTESIAN_POINT('',(-0.223136278908149,-0.213635899949816,0.03175));
#876=CARTESIAN_POINT('',(-0.222888,-0.210879424331788,0.03175));
#877=CARTESIAN_POINT('',(-0.222888,-0.209028,0.03175));
#878=CARTESIAN_POINT('',(-0.222888,-0.209028,0.03175));
#879=CARTESIAN_POINT('',(-0.222888,-0.173228,0.03175));
#880=CARTESIAN_POINT('',(-0.222888,-0.137428,0.03175));
#881=CARTESIAN_POINT('',(-0.222888,-0.137428,0.03175));
#882=CARTESIAN_POINT('',(-0.222888,-0.135574373415933,0.03175));
#883=CARTESIAN_POINT('',(-0.223143316945723,-0.132789219887537,0.03175));
#884=CARTESIAN_POINT('',(-0.224473792072321,-0.129327151292797,0.03175));
#885=CARTESIAN_POINT('',(-0.226129244744595,-0.127063642047072,0.03175));
#886=CARTESIAN_POINT('',(-0.228393931840052,-0.125408978952853,0.03175));
#887=CARTESIAN_POINT('',(-0.231880100050184,-0.124076278908149,0.03175));
#888=CARTESIAN_POINT('',(-0.234636575668212,-0.123828,0.03175));
#889=CARTESIAN_POINT('',(-0.236488,-0.123828,0.03175));
#890=CARTESIAN_POINT('',(-0.447788,-0.122428,0.03035));
#891=CARTESIAN_POINT('',(-0.447788,-0.122428,0.));
#892=CARTESIAN_POINT('',(-0.450716932188176,-0.122428,0.03035));
#893=CARTESIAN_POINT('',(-0.450716932188176,-0.122428,-3.46944695195361E-18));
#894=CARTESIAN_POINT('',(-0.453216932188205,-0.122856932188147,0.03035));
#895=CARTESIAN_POINT('',(-0.453216932188205,-0.122856932188147,-3.46944695195361E-18));
#896=CARTESIAN_POINT('',(-0.455288000000088,-0.12371479656444,0.03035));
#897=CARTESIAN_POINT('',(-0.455288000000088,-0.12371479656444,0.));
#898=CARTESIAN_POINT('',(-0.455288,-0.12371479656444,0.03175));
#899=CARTESIAN_POINT('',(-0.455288,-0.12371479656444,0.03035));
#900=CARTESIAN_POINT('',(-0.455288,-0.12371479656444,0.));
#901=CARTESIAN_POINT('',(-0.455288000000088,-0.12371479656444,0.03035));
#902=CARTESIAN_POINT('',(-0.45293358715737,-0.122739572978714,0.03035));
#903=CARTESIAN_POINT('',(-0.45034344693183,-0.122428,0.03035));
#904=CARTESIAN_POINT('',(-0.447788,-0.122428,0.03035));
#905=CARTESIAN_POINT('',(-0.447788,-0.122428,0.03035));
#906=CARTESIAN_POINT('',(-0.447788,-0.122428,0.03175));
#907=CARTESIAN_POINT('',(-0.447788,-0.122428,0.));
#908=CARTESIAN_POINT('',(-0.447788,-0.122428,0.));
#909=CARTESIAN_POINT('',(-0.452181398282264,-0.122428,0.));
#910=CARTESIAN_POINT('',(-0.455288000000088,-0.12371479656444,0.));
#911=CARTESIAN_POINT('',(-0.455288000000088,-0.12371479656444,0.03035));
#912=CARTESIAN_POINT('',(-0.455288000000088,-0.12371479656444,3.46944695195361E-18));
#913=CARTESIAN_POINT('',(-0.458216932188147,-0.124928000000029,0.03035));
#914=CARTESIAN_POINT('',(-0.458216932188147,-0.124928000000029,3.46944695195361E-18));
#915=CARTESIAN_POINT('',(-0.460287999999971,-0.126999067811853,0.03035));
#916=CARTESIAN_POINT('',(-0.460287999999971,-0.126999067811853,3.46944695195361E-18));
#917=CARTESIAN_POINT('',(-0.46150120343556,-0.129927999999912,0.03035));
#918=CARTESIAN_POINT('',(-0.46150120343556,-0.129927999999912,3.46944695195361E-18));
#919=CARTESIAN_POINT('',(-0.46150120343556,-0.129927999999912,0.03175));
#920=CARTESIAN_POINT('',(-0.46150120343556,-0.129927999999912,0.03035));
#921=CARTESIAN_POINT('',(-0.46150120343556,-0.129927999999912,0.));
#922=CARTESIAN_POINT('',(-0.46150120343556,-0.129927999999912,0.03035));
#923=CARTESIAN_POINT('',(-0.460924992762753,-0.128536913178278,0.03035));
#924=CARTESIAN_POINT('',(-0.459270221438415,-0.125940530969985,0.03035));
#925=CARTESIAN_POINT('',(-0.456686694114259,-0.124294154636152,0.03035));
#926=CARTESIAN_POINT('',(-0.455288000000088,-0.12371479656444,0.03035));
#927=CARTESIAN_POINT('',(-0.455288000000088,-0.12371479656444,0.));
#928=CARTESIAN_POINT('',(-0.459681398282176,-0.125534601717824,0.));
#929=CARTESIAN_POINT('',(-0.46150120343556,-0.129927999999912,0.));
#930=CARTESIAN_POINT('',(-0.46150120343556,-0.129927999999912,0.03035));
#931=CARTESIAN_POINT('',(-0.46150120343556,-0.129927999999912,0.));
#932=CARTESIAN_POINT('',(-0.462359067811853,-0.131999067811795,0.03035));
#933=CARTESIAN_POINT('',(-0.462359067811853,-0.131999067811795,-3.46944695195361E-18));
#934=CARTESIAN_POINT('',(-0.462788,-0.134499067811824,0.03035));
#935=CARTESIAN_POINT('',(-0.462788,-0.134499067811824,-3.46944695195361E-18));
#936=CARTESIAN_POINT('',(-0.462788,-0.137428,0.03035));
#937=CARTESIAN_POINT('',(-0.462788,-0.137428,0.));
#938=CARTESIAN_POINT('',(-0.462788,-0.137428,0.03175));
#939=CARTESIAN_POINT('',(-0.462788,-0.137428,0.03035));
#940=CARTESIAN_POINT('',(-0.462788,-0.137428,0.));
#941=CARTESIAN_POINT('',(-0.462788,-0.137428,0.03035));
#942=CARTESIAN_POINT('',(-0.462787997449166,-0.134875125434207,0.03035));
#943=CARTESIAN_POINT('',(-0.462480347319921,-0.132291862445003,0.03035));
#944=CARTESIAN_POINT('',(-0.46150120343556,-0.129927999999912,0.03035));
#945=CARTESIAN_POINT('',(-0.46150120343556,-0.129927999999912,0.));
#946=CARTESIAN_POINT('',(-0.462788,-0.133034601717736,0.));
#947=CARTESIAN_POINT('',(-0.462788,-0.137428,0.));
#948=CARTESIAN_POINT('',(-0.462788,-0.173228,0.03175));
#949=CARTESIAN_POINT('',(-0.462788,-0.209028,0.03175));
#950=CARTESIAN_POINT('',(-0.462788,-0.209028,0.03035));
#951=CARTESIAN_POINT('',(-0.462788,-0.209028,0.));
#952=CARTESIAN_POINT('',(-0.462788,-0.137428,0.03035));
#953=CARTESIAN_POINT('',(-0.462788,-0.173228,0.));
#954=CARTESIAN_POINT('',(-0.462788,-0.209028,0.03035));
#955=CARTESIAN_POINT('',(-0.462788,-0.209028,0.));
#956=CARTESIAN_POINT('',(-0.462788,-0.219028,0.03035));
#957=CARTESIAN_POINT('',(-0.462788,-0.219028,0.));
#958=CARTESIAN_POINT('',(-0.457788,-0.224028,0.03035));
#959=CARTESIAN_POINT('',(-0.457788,-0.224028,0.));
#960=CARTESIAN_POINT('',(-0.447788,-0.224028,0.03035));
#961=CARTESIAN_POINT('',(-0.447788,-0.224028,0.));
#962=CARTESIAN_POINT('',(-0.447788,-0.224028,0.03175));
#963=CARTESIAN_POINT('',(-0.447788,-0.224028,0.03035));
#964=CARTESIAN_POINT('',(-0.447788,-0.224028,0.));
#965=CARTESIAN_POINT('',(-0.447788,-0.224028,0.03035));
#966=CARTESIAN_POINT('',(-0.449802598025661,-0.224027997985148,0.03035));
#967=CARTESIAN_POINT('',(-0.452855959315801,-0.223738395844602,0.03035));
#968=CARTESIAN_POINT('',(-0.456657961519717,-0.222227837656332,0.03035));
#969=CARTESIAN_POINT('',(-0.459131028744742,-0.22039672591385,0.03035));
#970=CARTESIAN_POINT('',(-0.460968782795845,-0.217930267382415,0.03035));
#971=CARTESIAN_POINT('',(-0.462484366349202,-0.214158434823349,0.03035));
#972=CARTESIAN_POINT('',(-0.462788,-0.21106862833151,0.03035));
#973=CARTESIAN_POINT('',(-0.462788,-0.209028,0.03035));
#974=CARTESIAN_POINT('',(-0.462788,-0.209028,0.));
#975=CARTESIAN_POINT('',(-0.462788,-0.224028,0.));
#976=CARTESIAN_POINT('',(-0.447788,-0.224028,0.));
#977=CARTESIAN_POINT('',(-0.342138,-0.224028,0.03175));
#978=CARTESIAN_POINT('',(-0.236488,-0.224028,0.03175));
#979=CARTESIAN_POINT('',(-0.236488,-0.224028,0.03035));
#980=CARTESIAN_POINT('',(-0.236488,-0.224028,0.));
#981=CARTESIAN_POINT('',(-0.447788,-0.224028,0.03035));
#982=CARTESIAN_POINT('',(-0.342138,-0.224028,0.));
#983=CARTESIAN_POINT('',(-0.221488,-0.209028,0.03035));
#984=CARTESIAN_POINT('',(-0.221488,-0.209028,0.));
#985=CARTESIAN_POINT('',(-0.221488,-0.219028,0.03035));
#986=CARTESIAN_POINT('',(-0.221488,-0.219028,0.));
#987=CARTESIAN_POINT('',(-0.226488,-0.224028,0.03035));
#988=CARTESIAN_POINT('',(-0.226488,-0.224028,0.));
#989=CARTESIAN_POINT('',(-0.236488,-0.224028,0.03035));
#990=CARTESIAN_POINT('',(-0.236488,-0.224028,0.));
#991=CARTESIAN_POINT('',(-0.221488,-0.209028,0.03175));
#992=CARTESIAN_POINT('',(-0.221488,-0.209028,0.03035));
#993=CARTESIAN_POINT('',(-0.221488,-0.209028,0.));
#994=CARTESIAN_POINT('',(-0.221488,-0.209028,0.03035));
#995=CARTESIAN_POINT('',(-0.221488,-0.211042598025663,0.03035));
#996=CARTESIAN_POINT('',(-0.221777604609704,-0.2140959593158,0.03035));
#997=CARTESIAN_POINT('',(-0.223288162258109,-0.217897961519717,0.03035));
#998=CARTESIAN_POINT('',(-0.225119274109046,-0.220371028744742,0.03035));
#999=CARTESIAN_POINT('',(-0.22758573261156,-0.222208782795845,0.03035));
#1000=CARTESIAN_POINT('',(-0.231357565180266,-0.223724366349202,0.03035));
#1001=CARTESIAN_POINT('',(-0.23444737166849,-0.224028,0.03035));
#1002=CARTESIAN_POINT('',(-0.236488,-0.224028,0.03035));
#1003=CARTESIAN_POINT('',(-0.221488,-0.209028,0.));
#1004=CARTESIAN_POINT('',(-0.221488,-0.224028,0.));
#1005=CARTESIAN_POINT('',(-0.236488,-0.224028,0.));
#1006=CARTESIAN_POINT('',(-0.221488,-0.173228,0.03175));
#1007=CARTESIAN_POINT('',(-0.221488,-0.137428,0.03175));
#1008=CARTESIAN_POINT('',(-0.221488,-0.137428,0.03035));
#1009=CARTESIAN_POINT('',(-0.221488,-0.137428,0.));
#1010=CARTESIAN_POINT('',(-0.221488,-0.173228,0.03035));
#1011=CARTESIAN_POINT('',(-0.221488,-0.173228,0.));
#1012=CARTESIAN_POINT('',(-0.236488,-0.122428,0.03035));
#1013=CARTESIAN_POINT('',(-0.236488,-0.122428,0.));
#1014=CARTESIAN_POINT('',(-0.226488,-0.122428,0.03035));
#1015=CARTESIAN_POINT('',(-0.226488,-0.122428,0.));
#1016=CARTESIAN_POINT('',(-0.221488,-0.127428,0.03035));
#1017=CARTESIAN_POINT('',(-0.221488,-0.127428,0.));
#1018=CARTESIAN_POINT('',(-0.221488,-0.137428,0.03035));
#1019=CARTESIAN_POINT('',(-0.221488,-0.137428,0.));
#1020=CARTESIAN_POINT('',(-0.236488,-0.122428,0.03175));
#1021=CARTESIAN_POINT('',(-0.236488,-0.122428,0.03035));
#1022=CARTESIAN_POINT('',(-0.236488,-0.122428,0.));
#1023=CARTESIAN_POINT('',(-0.236488,-0.122428,0.03035));
#1024=CARTESIAN_POINT('',(-0.234473401974337,-0.122428,0.03035));
#1025=CARTESIAN_POINT('',(-0.231420040684199,-0.122717604609704,0.03035));
#1026=CARTESIAN_POINT('',(-0.227618038480284,-0.124228162258109,0.03035));
#1027=CARTESIAN_POINT('',(-0.225144971255257,-0.126059274109046,0.03035));
#1028=CARTESIAN_POINT('',(-0.223307217204155,-0.12852573261156,0.03035));
#1029=CARTESIAN_POINT('',(-0.221791633650798,-0.132297565180266,0.03035));
#1030=CARTESIAN_POINT('',(-0.221488,-0.13538737166849,0.03035));
#1031=CARTESIAN_POINT('',(-0.221488,-0.137428,0.03035));
#1032=CARTESIAN_POINT('',(-0.236488,-0.122428,0.));
#1033=CARTESIAN_POINT('',(-0.221488,-0.122428,0.));
#1034=CARTESIAN_POINT('',(-0.221488,-0.137428,0.));
#1035=CARTESIAN_POINT('',(-0.342138,-0.122428,0.03175));
#1036=CARTESIAN_POINT('',(-0.342138,-0.122428,0.03035));
#1037=CARTESIAN_POINT('',(-0.342138,-0.122428,0.));
#1038=CARTESIAN_POINT('',(-0.342138,-0.173228,0.));
#1039=CARTESIAN_POINT('',(-0.228988,-0.208987057425538,0.00127));
#1040=CARTESIAN_POINT('',(-0.228988,-0.208987057425538,0.03035));
#1041=CARTESIAN_POINT('',(-0.228988,-0.213987057425538,0.00127));
#1042=CARTESIAN_POINT('',(-0.228988,-0.213987057425538,0.03035));
#1043=CARTESIAN_POINT('',(-0.231488,-0.216487057425538,0.00127));
#1044=CARTESIAN_POINT('',(-0.231488,-0.216487057425538,0.03035));
#1045=CARTESIAN_POINT('',(-0.236488,-0.216487057425538,0.00127));
#1046=CARTESIAN_POINT('',(-0.236488,-0.216487057425538,0.03035));
#1047=CARTESIAN_POINT('',(-0.236488,-0.216487057425538,0.00127));
#1048=CARTESIAN_POINT('',(-0.236488,-0.216487057425538,0.00127));
#1049=CARTESIAN_POINT('',(-0.236488,-0.216487057425538,0.03035));
#1050=CARTESIAN_POINT('',(-0.236488,-0.216487057425538,0.03035));
#1051=CARTESIAN_POINT('',(-0.235476454583255,-0.216487057425538,0.03035));
#1052=CARTESIAN_POINT('',(-0.233428835581735,-0.216300460458935,0.03035));
#1053=CARTESIAN_POINT('',(-0.231115405280498,-0.215080443006412,0.03035));
#1054=CARTESIAN_POINT('',(-0.229890188925196,-0.213425965808012,0.03035));
#1055=CARTESIAN_POINT('',(-0.229133640928609,-0.211523816439333,0.03035));
#1056=CARTESIAN_POINT('',(-0.228988,-0.2100048162622,0.03035));
#1057=CARTESIAN_POINT('',(-0.228988,-0.208987057425538,0.03035));
#1058=CARTESIAN_POINT('',(-0.228988,-0.208987057425538,0.03035));
#1059=CARTESIAN_POINT('',(-0.228988,-0.208987057425538,0.00127));
#1060=CARTESIAN_POINT('',(-0.228988,-0.208987057425538,0.00127));
#1061=CARTESIAN_POINT('',(-0.228988,-0.208987057425538,0.00127));
#1062=CARTESIAN_POINT('',(-0.228988,-0.216487057425538,0.00127));
#1063=CARTESIAN_POINT('',(-0.236488,-0.216487057425538,0.00127));
#1064=CARTESIAN_POINT('',(-0.228988,-0.173187057425538,0.00127));
#1065=CARTESIAN_POINT('',(-0.228988,-0.137387057425538,0.03035));
#1066=CARTESIAN_POINT('',(-0.228988,-0.137387057425538,0.03035));
#1067=CARTESIAN_POINT('',(-0.228988,-0.137387057425538,0.00127));
#1068=CARTESIAN_POINT('',(-0.228988,-0.137387057425538,0.00127));
#1069=CARTESIAN_POINT('',(-0.228988,-0.173187057425538,0.00127));
#1070=CARTESIAN_POINT('',(-0.236488,-0.129887057425538,0.00127));
#1071=CARTESIAN_POINT('',(-0.236488,-0.129887057425538,0.03035));
#1072=CARTESIAN_POINT('',(-0.231488,-0.129887057425538,0.00127));
#1073=CARTESIAN_POINT('',(-0.231488,-0.129887057425538,0.03035));
#1074=CARTESIAN_POINT('',(-0.228988,-0.132387057425538,0.00127));
#1075=CARTESIAN_POINT('',(-0.228988,-0.132387057425538,0.03035));
#1076=CARTESIAN_POINT('',(-0.228988,-0.137387057425538,0.00127));
#1077=CARTESIAN_POINT('',(-0.228988,-0.137387057425538,0.03035));
#1078=CARTESIAN_POINT('',(-0.228988,-0.137387057425538,0.03035));
#1079=CARTESIAN_POINT('',(-0.228988,-0.136375512008793,0.03035));
#1080=CARTESIAN_POINT('',(-0.229174596966603,-0.134327893007273,0.03035));
#1081=CARTESIAN_POINT('',(-0.230394614419126,-0.132014462706036,0.03035));
#1082=CARTESIAN_POINT('',(-0.232049091617526,-0.130789246350734,0.03035));
#1083=CARTESIAN_POINT('',(-0.233951240986205,-0.130032698354147,0.03035));
#1084=CARTESIAN_POINT('',(-0.235470241163338,-0.129887057425538,0.03035));
#1085=CARTESIAN_POINT('',(-0.236488,-0.129887057425538,0.03035));
#1086=CARTESIAN_POINT('',(-0.236488,-0.129887057425538,0.03035));
#1087=CARTESIAN_POINT('',(-0.236488,-0.129887057425538,0.00127));
#1088=CARTESIAN_POINT('',(-0.236488,-0.129887057425538,0.00127));
#1089=CARTESIAN_POINT('',(-0.236488,-0.129887057425538,0.00127));
#1090=CARTESIAN_POINT('',(-0.228988,-0.129887057425538,0.00127));
#1091=CARTESIAN_POINT('',(-0.228988,-0.137387057425538,0.00127));
#1092=CARTESIAN_POINT('',(-0.342138,-0.129887057425538,0.00127));
#1093=CARTESIAN_POINT('',(-0.447788,-0.129887057425538,0.03035));
#1094=CARTESIAN_POINT('',(-0.447788,-0.129887057425538,0.03035));
#1095=CARTESIAN_POINT('',(-0.447788,-0.129887057425538,0.00127));
#1096=CARTESIAN_POINT('',(-0.447788,-0.129887057425538,0.00127));
#1097=CARTESIAN_POINT('',(-0.342138,-0.129887057425538,0.00127));
#1098=CARTESIAN_POINT('',(-0.447788,-0.129887057425538,0.00127));
#1099=CARTESIAN_POINT('',(-0.447788,-0.129887057425538,0.03035));
#1100=CARTESIAN_POINT('',(-0.452788,-0.129887057425538,0.00127));
#1101=CARTESIAN_POINT('',(-0.452788,-0.129887057425538,0.03035));
#1102=CARTESIAN_POINT('',(-0.455288,-0.132387057425538,0.00127));
#1103=CARTESIAN_POINT('',(-0.455288,-0.132387057425538,0.03035));
#1104=CARTESIAN_POINT('',(-0.455288,-0.137387057425538,0.00127));
#1105=CARTESIAN_POINT('',(-0.455288,-0.137387057425538,0.03035));
#1106=CARTESIAN_POINT('',(-0.447788,-0.129887057425538,0.03035));
#1107=CARTESIAN_POINT('',(-0.448799545416741,-0.129887059448884,0.03035));
#1108=CARTESIAN_POINT('',(-0.450847164418267,-0.130073653429064,0.03035));
#1109=CARTESIAN_POINT('',(-0.453160594719502,-0.131293671963944,0.03035));
#1110=CARTESIAN_POINT('',(-0.454385811074804,-0.132948149020975,0.03035));
#1111=CARTESIAN_POINT('',(-0.455142359071391,-0.134850298424996,0.03035));
#1112=CARTESIAN_POINT('',(-0.455288,-0.136369298588876,0.03035));
#1113=CARTESIAN_POINT('',(-0.455288,-0.137387057425538,0.03035));
#1114=CARTESIAN_POINT('',(-0.455288,-0.137387057425538,0.03035));
#1115=CARTESIAN_POINT('',(-0.455288,-0.137387057425538,0.00127));
#1116=CARTESIAN_POINT('',(-0.455288,-0.137387057425538,0.00127));
#1117=CARTESIAN_POINT('',(-0.447788,-0.129887057425538,0.00127));
#1118=CARTESIAN_POINT('',(-0.455288,-0.129887057425538,0.00127));
#1119=CARTESIAN_POINT('',(-0.455288,-0.137387057425538,0.00127));
#1120=CARTESIAN_POINT('',(-0.455288,-0.173187057425538,0.00127));
#1121=CARTESIAN_POINT('',(-0.455288,-0.173187057425538,0.03035));
#1122=CARTESIAN_POINT('',(-0.455288,-0.208987057425538,0.03035));
#1123=CARTESIAN_POINT('',(-0.455288,-0.208987057425538,0.00127));
#1124=CARTESIAN_POINT('',(-0.455288,-0.208987057425538,0.00127));
#1125=CARTESIAN_POINT('',(-0.455288,-0.173187057425538,0.00127));
#1126=CARTESIAN_POINT('',(-0.455288,-0.208987057425538,0.00127));
#1127=CARTESIAN_POINT('',(-0.455288,-0.208987057425538,0.03035));
#1128=CARTESIAN_POINT('',(-0.455288,-0.213987057425538,0.00127));
#1129=CARTESIAN_POINT('',(-0.455288,-0.213987057425538,0.03035));
#1130=CARTESIAN_POINT('',(-0.452788,-0.216487057425538,0.00127));
#1131=CARTESIAN_POINT('',(-0.452788,-0.216487057425538,0.03035));
#1132=CARTESIAN_POINT('',(-0.447788,-0.216487057425538,0.00127));
#1133=CARTESIAN_POINT('',(-0.447788,-0.216487057425538,0.03035));
#1134=CARTESIAN_POINT('',(-0.455288,-0.208987057425538,0.03035));
#1135=CARTESIAN_POINT('',(-0.455287997976654,-0.209998602842279,0.03035));
#1136=CARTESIAN_POINT('',(-0.455101403996474,-0.212046221843805,0.03035));
#1137=CARTESIAN_POINT('',(-0.453881385461595,-0.21435965214504,0.03035));
#1138=CARTESIAN_POINT('',(-0.452226908404563,-0.215584868500342,0.03035));
#1139=CARTESIAN_POINT('',(-0.450324759000542,-0.216341416496929,0.03035));
#1140=CARTESIAN_POINT('',(-0.448805758836662,-0.216487057425538,0.03035));
#1141=CARTESIAN_POINT('',(-0.447788,-0.216487057425538,0.03035));
#1142=CARTESIAN_POINT('',(-0.447788,-0.216487057425538,0.03035));
#1143=CARTESIAN_POINT('',(-0.447788,-0.216487057425538,0.00127));
#1144=CARTESIAN_POINT('',(-0.447788,-0.216487057425538,0.00127));
#1145=CARTESIAN_POINT('',(-0.455288,-0.208987057425538,0.00127));
#1146=CARTESIAN_POINT('',(-0.455288,-0.216487057425538,0.00127));
#1147=CARTESIAN_POINT('',(-0.447788,-0.216487057425538,0.00127));
#1148=CARTESIAN_POINT('',(-0.446303643316508,-0.216487057425538,0.00127));
#1149=CARTESIAN_POINT('',(-0.446303643316508,-0.216487057425538,0.03035));
#1150=CARTESIAN_POINT('',(-0.446303643316508,-0.216487057425538,0.00127));
#1151=CARTESIAN_POINT('',(-0.342138,-0.173207528712769,0.00127));
#1152=CARTESIAN_POINT('',(-0.455288,-0.137387057425538,0.03035));
#1153=CARTESIAN_POINT('',(-0.455288,-0.137387057425538,0.03175));
#1154=CARTESIAN_POINT('',(-0.456688,-0.137387057425538,0.03175));
#1155=CARTESIAN_POINT('',(-0.455288,-0.136288439010651,0.0303499999999938));
#1156=CARTESIAN_POINT('',(-0.455288000001414,-0.136288439010332,0.0317499999999204));
#1157=CARTESIAN_POINT('',(-0.456688000003501,-0.136185901292995,0.03175));
#1158=CARTESIAN_POINT('',(-0.455055019423162,-0.134174247718081,0.0303500000000031));
#1159=CARTESIAN_POINT('',(-0.45505501942254,-0.134174247718329,0.0317500000000398));
#1160=CARTESIAN_POINT('',(-0.456449748629189,-0.13380942971511,0.03175));
#1161=CARTESIAN_POINT('',(-0.4536062537445,-0.131575768810463,0.0303499999999984));
#1162=CARTESIAN_POINT('',(-0.453606253744556,-0.131575768810072,0.0317499999999801));
#1163=CARTESIAN_POINT('',(-0.45465218263297,-0.130532666590709,0.03175));
#1164=CARTESIAN_POINT('',(-0.451031461906092,-0.130128567841706,0.0303500000000031));
#1165=CARTESIAN_POINT('',(-0.451031461906488,-0.130128567843023,0.0317500000000399));
#1166=CARTESIAN_POINT('',(-0.451401556672318,-0.128734953509662,0.03175));
#1167=CARTESIAN_POINT('',(-0.448889725815527,-0.129887057425538,0.0303499999999937));
#1168=CARTESIAN_POINT('',(-0.448889725814566,-0.129887057422725,0.0317499999999202));
#1169=CARTESIAN_POINT('',(-0.448992553557179,-0.128487057422044,0.03175));
#1170=CARTESIAN_POINT('',(-0.447788,-0.129887057425538,0.03035));
#1171=CARTESIAN_POINT('',(-0.447788,-0.129887057425538,0.03175));
#1172=CARTESIAN_POINT('',(-0.447788,-0.128487057425538,0.03175));
#1173=CARTESIAN_POINT('',(-0.456688,-0.137387057425538,0.03035));
#1174=CARTESIAN_POINT('',(-0.447788,-0.128487057425538,0.03035));
#1175=CARTESIAN_POINT('',(-0.342138,-0.128487057425538,0.03035));
#1176=CARTESIAN_POINT('',(-0.236488,-0.128487057425538,0.03035));
#1177=CARTESIAN_POINT('',(-0.456688,-0.173228,0.03035));
#1178=CARTESIAN_POINT('',(-0.456688,-0.208987057425538,0.03035));
#1179=CARTESIAN_POINT('',(-0.236488,-0.129887057425538,0.03035));
#1180=CARTESIAN_POINT('',(-0.236488,-0.129887057425538,0.03175));
#1181=CARTESIAN_POINT('',(-0.236488,-0.128487057425538,0.03175));
#1182=CARTESIAN_POINT('',(-0.235389381585213,-0.129887057425538,0.0303499999999938));
#1183=CARTESIAN_POINT('',(-0.235389381584676,-0.129887057422862,0.0317499999999204));
#1184=CARTESIAN_POINT('',(-0.235286843867557,-0.128487057422137,0.03175));
#1185=CARTESIAN_POINT('',(-0.233275190292497,-0.130120038002377,0.0303500000000031));
#1186=CARTESIAN_POINT('',(-0.233275190292856,-0.130120038003631,0.0317500000000398));
#1187=CARTESIAN_POINT('',(-0.232910372289527,-0.128725308796306,0.03175));
#1188=CARTESIAN_POINT('',(-0.230676711384938,-0.131568803681034,0.0303499999999984));
#1189=CARTESIAN_POINT('',(-0.230676711384484,-0.131568803680657,0.0317499999999801));
#1190=CARTESIAN_POINT('',(-0.229633609165178,-0.13052287479257,0.03175));
#1191=CARTESIAN_POINT('',(-0.229229510416164,-0.134143595519462,0.0303500000000031));
#1192=CARTESIAN_POINT('',(-0.229229510417621,-0.134143595519716,0.0317500000000399));
#1193=CARTESIAN_POINT('',(-0.227835896084143,-0.133773500753256,0.03175));
#1194=CARTESIAN_POINT('',(-0.228988,-0.136285331609978,0.0303499999999937));
#1195=CARTESIAN_POINT('',(-0.228987999996903,-0.136285331609636,0.0317499999999202));
#1196=CARTESIAN_POINT('',(-0.227587999996456,-0.136182503868275,0.03175));
#1197=CARTESIAN_POINT('',(-0.228988,-0.137387057425538,0.03035));
#1198=CARTESIAN_POINT('',(-0.228988,-0.137387057425538,0.03175));
#1199=CARTESIAN_POINT('',(-0.227588,-0.137387057425538,0.03175));
#1200=CARTESIAN_POINT('',(-0.227588,-0.137387057425538,0.03035));
#1201=CARTESIAN_POINT('',(-0.447788,-0.216487057425538,0.03035));
#1202=CARTESIAN_POINT('',(-0.447788,-0.216487057425538,0.03175));
#1203=CARTESIAN_POINT('',(-0.447788,-0.217887057425538,0.03175));
#1204=CARTESIAN_POINT('',(-0.448886618414854,-0.216487057425538,0.0303499999999938));
#1205=CARTESIAN_POINT('',(-0.448886618421689,-0.216487057431361,0.031750000000442));
#1206=CARTESIAN_POINT('',(-0.44898915613251,-0.217887057428989,0.03175));
#1207=CARTESIAN_POINT('',(-0.451000809707472,-0.216254076848699,0.0303500000000031));
#1208=CARTESIAN_POINT('',(-0.451000809704425,-0.216254076846098,0.03174999999981));
#1209=CARTESIAN_POINT('',(-0.451365627710427,-0.217648806054747,0.03175));
#1210=CARTESIAN_POINT('',(-0.45359928861507,-0.214805311170042,0.0303499999999984));
#1211=CARTESIAN_POINT('',(-0.453599288615482,-0.214805311170412,0.0317500000000021));
#1212=CARTESIAN_POINT('',(-0.454642390834881,-0.215851240058514,0.03175));
#1213=CARTESIAN_POINT('',(-0.455046489583834,-0.212230519331615,0.0303500000000031));
#1214=CARTESIAN_POINT('',(-0.455046489585236,-0.212230519332735,0.0317500000001818));
#1215=CARTESIAN_POINT('',(-0.456440103915668,-0.212600614097811,0.03175));
#1216=CARTESIAN_POINT('',(-0.455288,-0.210088783241098,0.0303499999999937));
#1217=CARTESIAN_POINT('',(-0.455287999996454,-0.210088783238237,0.0317499999995745));
#1218=CARTESIAN_POINT('',(-0.456688000003945,-0.210191610982817,0.03175));
#1219=CARTESIAN_POINT('',(-0.455288,-0.208987057425538,0.03035));
#1220=CARTESIAN_POINT('',(-0.455288,-0.208987057425538,0.03175));
#1221=CARTESIAN_POINT('',(-0.456688,-0.208987057425538,0.03175));
#1222=CARTESIAN_POINT('',(-0.447788,-0.217887057425538,0.03035));
#1223=CARTESIAN_POINT('',(-0.227588,-0.173187057425538,0.03035));
#1224=CARTESIAN_POINT('',(-0.227588,-0.208987057425538,0.03035));
#1225=CARTESIAN_POINT('',(-0.342138,-0.217887057425538,0.03035));
#1226=CARTESIAN_POINT('',(-0.236488,-0.217887057425538,0.03035));
#1227=CARTESIAN_POINT('',(-0.228988,-0.208987057425538,0.03035));
#1228=CARTESIAN_POINT('',(-0.228988,-0.208987057425538,0.03175));
#1229=CARTESIAN_POINT('',(-0.227588,-0.208987057425538,0.03175));
#1230=CARTESIAN_POINT('',(-0.228988,-0.210085675840525,0.0303499999999938));
#1231=CARTESIAN_POINT('',(-0.228987999997006,-0.210085675840084,0.0317499999999204));
#1232=CARTESIAN_POINT('',(-0.227587999996549,-0.210188213558181,0.03175));
#1233=CARTESIAN_POINT('',(-0.229220980576833,-0.212199867132949,0.0303500000000031));
#1234=CARTESIAN_POINT('',(-0.229220980577938,-0.212199867132802,0.0317500000000025));
#1235=CARTESIAN_POINT('',(-0.227826251370786,-0.212564685135918,0.03175));
#1236=CARTESIAN_POINT('',(-0.230669746255515,-0.214798346040625,0.0303499999999984));
#1237=CARTESIAN_POINT('',(-0.230669746256139,-0.214798346041799,0.0317500000001108));
#1238=CARTESIAN_POINT('',(-0.229623817367043,-0.215841448260386,0.03175));
#1239=CARTESIAN_POINT('',(-0.233244538093854,-0.216245547009367,0.0303500000000031));
#1240=CARTESIAN_POINT('',(-0.233244538090254,-0.216245547004816,0.0317499999995542));
#1241=CARTESIAN_POINT('',(-0.232874443327657,-0.217639161341387,0.03175));
#1242=CARTESIAN_POINT('',(-0.23538627418459,-0.216487057425538,0.0303499999999937));
#1243=CARTESIAN_POINT('',(-0.235386274192573,-0.216487057435373,0.0317500000009663));
#1244=CARTESIAN_POINT('',(-0.235283446442871,-0.217887057429082,0.03175));
#1245=CARTESIAN_POINT('',(-0.236488,-0.216487057425538,0.03035));
#1246=CARTESIAN_POINT('',(-0.236488,-0.216487057425538,0.03175));
#1247=CARTESIAN_POINT('',(-0.236488,-0.217887057425538,0.03175));
#1248=CARTESIAN_POINT('',(-0.342138,-0.222628,0.03035));
#1249=CARTESIAN_POINT('',(-0.447788,-0.222628,0.03035));
#1250=CARTESIAN_POINT('',(-0.236488,-0.222628,0.03035));
#1251=CARTESIAN_POINT('',(-0.222888,-0.209028,0.03175));
#1252=CARTESIAN_POINT('',(-0.221488,-0.209028,0.03175));
#1253=CARTESIAN_POINT('',(-0.221488,-0.209028,0.03035));
#1254=CARTESIAN_POINT('',(-0.222887999998908,-0.209953712166062,0.03175));
#1255=CARTESIAN_POINT('',(-0.22148799999326,-0.209999026742141,0.0317499999992687));
#1256=CARTESIAN_POINT('',(-0.221488,-0.209999026747377,0.0303499999999952));
#1257=CARTESIAN_POINT('',(-0.222976670606197,-0.21179133380656,0.03175));
#1258=CARTESIAN_POINT('',(-0.221580736075976,-0.21194023744412,0.0317500000003395));
#1259=CARTESIAN_POINT('',(-0.221580736072848,-0.21194023744169,0.0303500000000022));
#1260=CARTESIAN_POINT('',(-0.223467849715633,-0.214509298562741,0.03175));
#1261=CARTESIAN_POINT('',(-0.222107795871194,-0.214872639652904,0.0317499999999088));
#1262=CARTESIAN_POINT('',(-0.222107795872034,-0.214872639653556,0.0303499999999994));
#1263=CARTESIAN_POINT('',(-0.224469484797476,-0.217121557649618,0.03175));
#1264=CARTESIAN_POINT('',(-0.223216164036803,-0.217782133945889,0.0317500000000251));
#1265=CARTESIAN_POINT('',(-0.223216164036572,-0.217782133945712,0.0303500000000002));
#1266=CARTESIAN_POINT('',(-0.226123222872274,-0.219386940736334,0.03175));
#1267=CARTESIAN_POINT('',(-0.225116385973001,-0.220392906965115,0.0317499999999907));
#1268=CARTESIAN_POINT('',(-0.225116385973083,-0.220392906965172,0.0303499999999999));
#1269=CARTESIAN_POINT('',(-0.228388322147363,-0.221041976514292,0.03175));
#1270=CARTESIAN_POINT('',(-0.227726708665768,-0.222294646262077,0.0317500000000122));
#1271=CARTESIAN_POINT('',(-0.227726708665671,-0.222294646262025,0.0303500000000002));
#1272=CARTESIAN_POINT('',(-0.230979438495386,-0.222040804445244,0.03175));
#1273=CARTESIAN_POINT('',(-0.230613527822208,-0.223400202833641,0.0317499999999602));
#1274=CARTESIAN_POINT('',(-0.230613527822512,-0.22340020283379,0.0303499999999994));
#1275=CARTESIAN_POINT('',(-0.233721875025768,-0.222540165074343,0.03175));
#1276=CARTESIAN_POINT('',(-0.233572981503311,-0.223936201492663,0.0317500000001468));
#1277=CARTESIAN_POINT('',(-0.233572981502189,-0.223936201492122,0.0303500000000022));
#1278=CARTESIAN_POINT('',(-0.235561186707889,-0.22262800000108,0.03175));
#1279=CARTESIAN_POINT('',(-0.235515818222881,-0.224027999998836,0.0317499999996839));
#1280=CARTESIAN_POINT('',(-0.235515818225295,-0.224028,0.0303499999999952));
#1281=CARTESIAN_POINT('',(-0.236488,-0.222628,0.03175));
#1282=CARTESIAN_POINT('',(-0.236488,-0.224028,0.03175));
#1283=CARTESIAN_POINT('',(-0.236488,-0.224028,0.03035));
#1284=CARTESIAN_POINT('',(-0.222888,-0.209028,0.03035));
#1285=CARTESIAN_POINT('',(-0.447788,-0.222628,0.03175));
#1286=CARTESIAN_POINT('',(-0.447788,-0.224028,0.03175));
#1287=CARTESIAN_POINT('',(-0.447788,-0.224028,0.03035));
#1288=CARTESIAN_POINT('',(-0.448713712165946,-0.222628000001092,0.03175));
#1289=CARTESIAN_POINT('',(-0.448759026740433,-0.22402799999782,0.0317499999995503));
#1290=CARTESIAN_POINT('',(-0.448759026747223,-0.224028,0.0303499999999952));
#1291=CARTESIAN_POINT('',(-0.450551333806614,-0.222539329393803,0.03175));
#1292=CARTESIAN_POINT('',(-0.45070023744491,-0.223935263928163,0.0317500000002085));
#1293=CARTESIAN_POINT('',(-0.450700237441761,-0.223935263927152,0.0303500000000022));
#1294=CARTESIAN_POINT('',(-0.453269298562726,-0.222048150284367,0.03175));
#1295=CARTESIAN_POINT('',(-0.453632639652704,-0.2234082041277,0.0317499999999447));
#1296=CARTESIAN_POINT('',(-0.453632639653537,-0.223408204127966,0.0303499999999994));
#1297=CARTESIAN_POINT('',(-0.455881557649622,-0.221046515202524,0.03175));
#1298=CARTESIAN_POINT('',(-0.456542133945901,-0.222299835963482,0.0317500000000126));
#1299=CARTESIAN_POINT('',(-0.456542133945717,-0.222299835963427,0.0303500000000002));
#1300=CARTESIAN_POINT('',(-0.458146940736332,-0.219392777127727,0.03175));
#1301=CARTESIAN_POINT('',(-0.459152906965267,-0.220399614026964,0.0317500000000049));
#1302=CARTESIAN_POINT('',(-0.459152906965171,-0.220399614026918,0.0303499999999999));
#1303=CARTESIAN_POINT('',(-0.459801976514297,-0.217127677852632,0.03175));
#1304=CARTESIAN_POINT('',(-0.461054646261459,-0.217789291334083,0.0317499999999676));
#1305=CARTESIAN_POINT('',(-0.461054646262026,-0.217789291334324,0.0303500000000002));
#1306=CARTESIAN_POINT('',(-0.460800804445225,-0.214536561504633,0.03175));
#1307=CARTESIAN_POINT('',(-0.462160202835961,-0.214902472178422,0.0317500000001244));
#1308=CARTESIAN_POINT('',(-0.462160202833789,-0.214902472177507,0.0303499999999994));
#1309=CARTESIAN_POINT('',(-0.461300165074415,-0.211794124974161,0.03175));
#1310=CARTESIAN_POINT('',(-0.462696201484002,-0.211943018494319,0.0317499999995347));
#1311=CARTESIAN_POINT('',(-0.462696201492122,-0.211943018497739,0.0303500000000022));
#1312=CARTESIAN_POINT('',(-0.461388000000926,-0.209954813292265,0.03175));
#1313=CARTESIAN_POINT('',(-0.462788000017499,-0.210000181782231,0.0317500000010028));
#1314=CARTESIAN_POINT('',(-0.462788,-0.21000018177486,0.0303499999999952));
#1315=CARTESIAN_POINT('',(-0.461388,-0.209028,0.03175));
#1316=CARTESIAN_POINT('',(-0.462788,-0.209028,0.0317500000000001));
#1317=CARTESIAN_POINT('',(-0.462788,-0.209028,0.03035));
#1318=CARTESIAN_POINT('',(-0.461388,-0.209028,0.03035));
#1319=CARTESIAN_POINT('',(-0.222888,-0.173228,0.03035));
#1320=CARTESIAN_POINT('',(-0.222888,-0.137428,0.03035));
#1321=CARTESIAN_POINT('',(-0.461388,-0.173228,0.03035));
#1322=CARTESIAN_POINT('',(-0.461388,-0.137428,0.03035));
#1323=CARTESIAN_POINT('',(-0.236488,-0.123828,0.03175));
#1324=CARTESIAN_POINT('',(-0.236488,-0.122428,0.03175));
#1325=CARTESIAN_POINT('',(-0.236488,-0.122428,0.03035));
#1326=CARTESIAN_POINT('',(-0.235562287833977,-0.123827999998985,0.03175));
#1327=CARTESIAN_POINT('',(-0.235516973252772,-0.122427999998864,0.0317500000000045));
#1328=CARTESIAN_POINT('',(-0.235516973252661,-0.122428,0.0303499999999952));
#1329=CARTESIAN_POINT('',(-0.233724666193422,-0.123916670606161,0.03175));
#1330=CARTESIAN_POINT('',(-0.233575762558241,-0.122520736073375,0.0317499999999979));
#1331=CARTESIAN_POINT('',(-0.233575762558292,-0.122520736072847,0.0303500000000022));
#1332=CARTESIAN_POINT('',(-0.231006701437264,-0.124407849715642,0.03175));
#1333=CARTESIAN_POINT('',(-0.230643360346461,-0.123047795871892,0.0317500000000005));
#1334=CARTESIAN_POINT('',(-0.230643360346448,-0.123047795872034,0.0303499999999994));
#1335=CARTESIAN_POINT('',(-0.228394442350381,-0.125409484797473,0.03175));
#1336=CARTESIAN_POINT('',(-0.227733866054287,-0.124156164036611,0.03175));
#1337=CARTESIAN_POINT('',(-0.227733866054287,-0.124156164036572,0.0303500000000002));
#1338=CARTESIAN_POINT('',(-0.226129059263666,-0.127063222872275,0.03175));
#1339=CARTESIAN_POINT('',(-0.225123093034815,-0.126056385973071,0.0317499999999995));
#1340=CARTESIAN_POINT('',(-0.225123093034828,-0.126056385973083,0.0303499999999999));
#1341=CARTESIAN_POINT('',(-0.224474023485708,-0.129328322147363,0.03175));
#1342=CARTESIAN_POINT('',(-0.223221353738026,-0.128666708665682,0.031750000000002));
#1343=CARTESIAN_POINT('',(-0.223221353737975,-0.128666708665671,0.0303500000000002));
#1344=CARTESIAN_POINT('',(-0.223475195554756,-0.131919438495386,0.03175));
#1345=CARTESIAN_POINT('',(-0.222115797166016,-0.131553527822482,0.0317499999999923));
#1346=CARTESIAN_POINT('',(-0.22211579716621,-0.131553527822512,0.0303499999999994));
#1347=CARTESIAN_POINT('',(-0.222975834925657,-0.134661875025768,0.03175));
#1348=CARTESIAN_POINT('',(-0.221579798508604,-0.134512981502301,0.0317500000000285));
#1349=CARTESIAN_POINT('',(-0.221579798507878,-0.134512981502189,0.0303500000000022));
#1350=CARTESIAN_POINT('',(-0.22288799999892,-0.136501186707889,0.03175));
#1351=CARTESIAN_POINT('',(-0.221487999998436,-0.136455818225054,0.0317499999999386));
#1352=CARTESIAN_POINT('',(-0.221488,-0.136455818225295,0.0303499999999952));
#1353=CARTESIAN_POINT('',(-0.222888,-0.137428,0.03175));
#1354=CARTESIAN_POINT('',(-0.221488,-0.137428,0.03175));
#1355=CARTESIAN_POINT('',(-0.221488,-0.137428,0.03035));
#1356=CARTESIAN_POINT('',(-0.236488,-0.123828,0.03035));
#1357=CARTESIAN_POINT('',(-0.461388,-0.137428,0.03175));
#1358=CARTESIAN_POINT('',(-0.462788,-0.137428,0.0317500000000001));
#1359=CARTESIAN_POINT('',(-0.462788,-0.137428,0.03035));
#1360=CARTESIAN_POINT('',(-0.461388000001086,-0.136242030136157,0.03175));
#1361=CARTESIAN_POINT('',(-0.462788000018667,-0.13618397567278,0.0317500000010388));
#1362=CARTESIAN_POINT('',(-0.462788,-0.136183975667632,0.0303499999999691));
#1363=CARTESIAN_POINT('',(-0.461243249465104,-0.133869193845841,0.03175));
#1364=CARTESIAN_POINT('',(-0.462637064099503,-0.13367329698879,0.0317499999989999));
#1365=CARTESIAN_POINT('',(-0.462637064114039,-0.133673296994792,0.0303500000000309));
#1366=CARTESIAN_POINT('',(-0.460662227963786,-0.131560910351021,0.03175));
#1367=CARTESIAN_POINT('',(-0.46200845809955,-0.131152621071003,0.0317500000009615));
#1368=CARTESIAN_POINT('',(-0.462008458089144,-0.131152621064147,0.0303499999999691));
#1369=CARTESIAN_POINT('',(-0.460207772090048,-0.130463756805232,0.03175));
#1370=CARTESIAN_POINT('',(-0.46150120343556,-0.129927999999912,0.0317500000000001));
#1371=CARTESIAN_POINT('',(-0.46150120343556,-0.129927999999912,0.03035));
#1372=CARTESIAN_POINT('',(-0.460207772090048,-0.130463756805232,0.03035));
#1373=CARTESIAN_POINT('',(-0.342138,-0.123828,0.03035));
#1374=CARTESIAN_POINT('',(-0.447788,-0.123828,0.03035));
#1375=CARTESIAN_POINT('',(-0.460207772090048,-0.130463756805232,0.03175));
#1376=CARTESIAN_POINT('',(-0.46150120343556,-0.129927999999912,0.0317500000000001));
#1377=CARTESIAN_POINT('',(-0.46150120343556,-0.129927999999912,0.03035));
#1378=CARTESIAN_POINT('',(-0.459698956421043,-0.129235367108394,0.03175));
#1379=CARTESIAN_POINT('',(-0.460933273475907,-0.128556895743855,0.0317500000009688));
#1380=CARTESIAN_POINT('',(-0.46093327345609,-0.128556895741025,0.0303499999999931));
#1381=CARTESIAN_POINT('',(-0.458256398046191,-0.126959756821311,0.03175));
#1382=CARTESIAN_POINT('',(-0.459279915017696,-0.125936260919392,0.0317499999995384));
#1383=CARTESIAN_POINT('',(-0.459279915028278,-0.125936260918787,0.0303500000000115));
#1384=CARTESIAN_POINT('',(-0.455980535544617,-0.125517003256601,0.03175));
#1385=CARTESIAN_POINT('',(-0.456658995603931,-0.124282681532919,0.0317499999999543));
#1386=CARTESIAN_POINT('',(-0.456658995602583,-0.124282681536958,0.0303499999999839));
#1387=CARTESIAN_POINT('',(-0.454752243194768,-0.125008227909952,0.03175));
#1388=CARTESIAN_POINT('',(-0.455288000000088,-0.12371479656444,0.03175));
#1389=CARTESIAN_POINT('',(-0.455288000000088,-0.12371479656444,0.03035));
#1390=CARTESIAN_POINT('',(-0.454752243194768,-0.125008227909952,0.03035));
#1391=CARTESIAN_POINT('',(-0.454752243194768,-0.125008227909952,0.03175));
#1392=CARTESIAN_POINT('',(-0.455288000000088,-0.12371479656444,0.03175));
#1393=CARTESIAN_POINT('',(-0.455288000000088,-0.12371479656444,0.03035));
#1394=CARTESIAN_POINT('',(-0.453655122936978,-0.124553785824711,0.03175));
#1395=CARTESIAN_POINT('',(-0.454063416088334,-0.123207557306722,0.0317499999999213));
#1396=CARTESIAN_POINT('',(-0.454063416091686,-0.123207557301306,0.0303499999999938));
#1397=CARTESIAN_POINT('',(-0.45134664908014,-0.123972720347863,0.03175));
#1398=CARTESIAN_POINT('',(-0.451542533276031,-0.12257890315888,0.0317500000000597));
#1399=CARTESIAN_POINT('',(-0.451542533274273,-0.12257890316071,0.0303500000000103));
#1400=CARTESIAN_POINT('',(-0.448973950301639,-0.123827999998527,0.03175));
#1401=CARTESIAN_POINT('',(-0.449032003812347,-0.122427999998243,0.0317499999999593));
#1402=CARTESIAN_POINT('',(-0.449032003812511,-0.122428,0.0303499999999856));
#1403=CARTESIAN_POINT('',(-0.447788,-0.123828,0.03175));
#1404=CARTESIAN_POINT('',(-0.447788,-0.122428,0.03175));
#1405=CARTESIAN_POINT('',(-0.447788,-0.122428,0.03035));
#1406=MECHANICAL_DESIGN_GEOMETRIC_PRESENTATION_REPRESENTATION('',(#627),
#1407);
#1407=(
GEOMETRIC_REPRESENTATION_CONTEXT(3)
GLOBAL_UNCERTAINTY_ASSIGNED_CONTEXT((#1408))
GLOBAL_UNIT_ASSIGNED_CONTEXT((#1411,#1410,#1409))
REPRESENTATION_CONTEXT('Tray','TOP_LEVEL_ASSEMBLY_PART')
);
#1408=UNCERTAINTY_MEASURE_WITH_UNIT(LENGTH_MEASURE(2.E-5),#1411,
'DISTANCE_ACCURACY_VALUE','Maximum Tolerance applied to model');
#1409=(
NAMED_UNIT(*)
SI_UNIT($,.STERADIAN.)
SOLID_ANGLE_UNIT()
);
#1410=(
NAMED_UNIT(*)
PLANE_ANGLE_UNIT()
SI_UNIT($,.RADIAN.)
);
#1411=(
LENGTH_UNIT()
NAMED_UNIT(*)
SI_UNIT($,.METRE.)
);
#1412=PRODUCT_DEFINITION_SHAPE('','',#1413);
#1413=PRODUCT_DEFINITION('','',#1415,#1414);
#1414=PRODUCT_DEFINITION_CONTEXT('',#1421,'design');
#1415=PRODUCT_DEFINITION_FORMATION_WITH_SPECIFIED_SOURCE('','',#1417,
 .NOT_KNOWN.);
#1416=PRODUCT_RELATED_PRODUCT_CATEGORY('','',(#1417));
#1417=PRODUCT('Tray','Tray','Tray',(#1419));
#1418=PRODUCT_CATEGORY('','');
#1419=PRODUCT_CONTEXT('',#1421,'mechanical');
#1420=APPLICATION_PROTOCOL_DEFINITION('international standard',
'ap242_managed_model_based_3d_engineering',2020,#1421);
#1421=APPLICATION_CONTEXT('managed model based 3d engineering');
ENDSEC;
END-ISO-10303-21;
